<?xml version="1.0" encoding="UTF-8" standalone="no"?>
<!DOCTYPE svg PUBLIC "-//W3C//DTD SVG 1.1//EN"
 "http://www.w3.org/Graphics/SVG/1.1/DTD/svg11.dtd">
<!-- Generated by graphviz version 2.38.0 (20140413.2041)
 -->
<!-- Title: Network Visualization Pages: 1 -->
<svg width="102pt" height="442pt"
 viewBox="0.00 0.00 102.00 442.00" xmlns="http://www.w3.org/2000/svg" xmlns:xlink="http://www.w3.org/1999/xlink">
<g id="graph0" class="graph" transform="scale(1 1) rotate(0) translate(4 438)">
<title>Network Visualization</title>
<polygon fill="white" stroke="none" points="-4,4 -4,-438 98,-438 98,4 -4,4"/>
<!-- fullyconnected0 -->
<g id="node1" class="node"><title>fullyconnected0</title>
<path fill="#fb8072" stroke="#941305" stroke-width="2" d="M82,-58C82,-58 12,-58 12,-58 6,-58 -7.10543e-15,-52 -7.10543e-15,-46 -7.10543e-15,-46 -7.10543e-15,-12 -7.10543e-15,-12 -7.10543e-15,-6 6,-0 12,-0 12,-0 82,-0 82,-0 88,-0 94,-6 94,-12 94,-12 94,-46 94,-46 94,-52 88,-58 82,-58"/>
<text text-anchor="middle" x="47" y="-37.5" font-family="Times,serif" font-size="10.00">fullyconnected0</text>
<text text-anchor="middle" x="47" y="-26.5" font-family="Times,serif" font-size="10.00">FullyConnected</text>
<text text-anchor="middle" x="47" y="-15.5" font-family="Times,serif" font-size="10.00">num&#45;hidden=300</text>
</g>
<!-- activation0 -->
<g id="node2" class="node"><title>activation0</title>
<path fill="#ffffb3" stroke="#999900" stroke-width="2" d="M82,-152C82,-152 12,-152 12,-152 6,-152 -7.10543e-15,-146 -7.10543e-15,-140 -7.10543e-15,-140 -7.10543e-15,-106 -7.10543e-15,-106 -7.10543e-15,-100 6,-94 12,-94 12,-94 82,-94 82,-94 88,-94 94,-100 94,-106 94,-106 94,-140 94,-140 94,-146 88,-152 82,-152"/>
<text text-anchor="middle" x="47" y="-131.5" font-family="Times,serif" font-size="10.00">activation0</text>
<text text-anchor="middle" x="47" y="-120.5" font-family="Times,serif" font-size="10.00">Activation</text>
<text text-anchor="middle" x="47" y="-109.5" font-family="Times,serif" font-size="10.00">act&#45;type=tanh</text>
</g>
<!-- activation0&#45;&gt;fullyconnected0 -->
<g id="edge1" class="edge"><title>activation0&#45;&gt;fullyconnected0</title>
<path fill="none" stroke="#737373" d="M47,-83.7443C47,-75.2043 47,-66.2977 47,-58.2479"/>
<polygon fill="#737373" stroke="#737373" points="47,-93.8971 42.5001,-83.897 47,-88.8971 47.0001,-83.8971 47.0001,-83.8971 47.0001,-83.8971 47,-88.8971 51.5001,-83.8971 47,-93.8971 47,-93.8971"/>
</g>
<!-- fullyconnected1 -->
<g id="node3" class="node"><title>fullyconnected1</title>
<path fill="#fb8072" stroke="#941305" stroke-width="2" d="M82,-246C82,-246 12,-246 12,-246 6,-246 -7.10543e-15,-240 -7.10543e-15,-234 -7.10543e-15,-234 -7.10543e-15,-200 -7.10543e-15,-200 -7.10543e-15,-194 6,-188 12,-188 12,-188 82,-188 82,-188 88,-188 94,-194 94,-200 94,-200 94,-234 94,-234 94,-240 88,-246 82,-246"/>
<text text-anchor="middle" x="47" y="-225.5" font-family="Times,serif" font-size="10.00">fullyconnected1</text>
<text text-anchor="middle" x="47" y="-214.5" font-family="Times,serif" font-size="10.00">FullyConnected</text>
<text text-anchor="middle" x="47" y="-203.5" font-family="Times,serif" font-size="10.00">num&#45;hidden=40</text>
</g>
<!-- fullyconnected1&#45;&gt;activation0 -->
<g id="edge2" class="edge"><title>fullyconnected1&#45;&gt;activation0</title>
<path fill="none" stroke="#737373" d="M47,-177.744C47,-169.204 47,-160.298 47,-152.248"/>
<polygon fill="#737373" stroke="#737373" points="47,-187.897 42.5001,-177.897 47,-182.897 47.0001,-177.897 47.0001,-177.897 47.0001,-177.897 47,-182.897 51.5001,-177.897 47,-187.897 47,-187.897"/>
</g>
<!-- activation1 -->
<g id="node4" class="node"><title>activation1</title>
<path fill="#ffffb3" stroke="#999900" stroke-width="2" d="M82,-340C82,-340 12,-340 12,-340 6,-340 -7.10543e-15,-334 -7.10543e-15,-328 -7.10543e-15,-328 -7.10543e-15,-294 -7.10543e-15,-294 -7.10543e-15,-288 6,-282 12,-282 12,-282 82,-282 82,-282 88,-282 94,-288 94,-294 94,-294 94,-328 94,-328 94,-334 88,-340 82,-340"/>
<text text-anchor="middle" x="47" y="-319.5" font-family="Times,serif" font-size="10.00">activation1</text>
<text text-anchor="middle" x="47" y="-308.5" font-family="Times,serif" font-size="10.00">Activation</text>
<text text-anchor="middle" x="47" y="-297.5" font-family="Times,serif" font-size="10.00">act&#45;type=tanh</text>
</g>
<!-- activation1&#45;&gt;fullyconnected1 -->
<g id="edge3" class="edge"><title>activation1&#45;&gt;fullyconnected1</title>
<path fill="none" stroke="#737373" d="M47,-271.744C47,-263.204 47,-254.298 47,-246.248"/>
<polygon fill="#737373" stroke="#737373" points="47,-281.897 42.5001,-271.897 47,-276.897 47.0001,-271.897 47.0001,-271.897 47.0001,-271.897 47,-276.897 51.5001,-271.897 47,-281.897 47,-281.897"/>
</g>
<!-- fullyconnected2 -->
<g id="node5" class="node"><title>fullyconnected2</title>
<path fill="#fb8072" stroke="#941305" stroke-width="2" d="M82,-434C82,-434 12,-434 12,-434 6,-434 -7.10543e-15,-428 -7.10543e-15,-422 -7.10543e-15,-422 -7.10543e-15,-388 -7.10543e-15,-388 -7.10543e-15,-382 6,-376 12,-376 12,-376 82,-376 82,-376 88,-376 94,-382 94,-388 94,-388 94,-422 94,-422 94,-428 88,-434 82,-434"/>
<text text-anchor="middle" x="47" y="-413.5" font-family="Times,serif" font-size="10.00">fullyconnected2</text>
<text text-anchor="middle" x="47" y="-402.5" font-family="Times,serif" font-size="10.00">FullyConnected</text>
<text text-anchor="middle" x="47" y="-391.5" font-family="Times,serif" font-size="10.00">num&#45;hidden=9</text>
</g>
<!-- fullyconnected2&#45;&gt;activation1 -->
<g id="edge4" class="edge"><title>fullyconnected2&#45;&gt;activation1</title>
<path fill="none" stroke="#737373" d="M47,-365.744C47,-357.204 47,-348.298 47,-340.248"/>
<polygon fill="#737373" stroke="#737373" points="47,-375.897 42.5001,-365.897 47,-370.897 47.0001,-365.897 47.0001,-365.897 47.0001,-365.897 47,-370.897 51.5001,-365.897 47,-375.897 47,-375.897"/>
</g>
</g>
</svg>
