<?xml version="1.0" encoding="UTF-8" standalone="no"?>
<svg xmlns="http://www.w3.org/2000/svg"
     xmlns:xlink="http://www.w3.org/1999/xlink"
     width="560px" height="420px" viewBox="0 0 560 420">
<title>glps_renderer figure</title>
<desc>
Creator: GL2PS 1.3.9, (C) 1999-2015 C. Geuzaine
For: Octave
CreationDate: Wed May  3 08:01:26 2017
</desc>
<defs>
</defs>
<g shape-rendering="crispEdges">
<polygon fill="#ffffff" points="72.8027,373.8 506.804,373.8 72.8027,31.5"/>
<polygon fill="#ffffff" points="506.804,373.8 506.804,31.5 72.8027,31.5"/>
<polyline fill="none" stroke="#000000" stroke-width="0.5" stroke-dasharray="16,0" points="72.8027,373.8 506.804,373.8"/>
<polyline fill="none" stroke="#000000" stroke-width="0.5" stroke-dasharray="16,0" points="72.8027,31.5 506.804,31.5"/>
<polyline fill="none" stroke="#000000" stroke-width="0.5" stroke-dasharray="16,0" points="72.8027,373.8 72.8027,31.5"/>
<polyline fill="none" stroke="#000000" stroke-width="0.5" stroke-dasharray="16,0" points="506.804,373.8 506.804,31.5"/>
<polyline fill="none" stroke="#000000" stroke-width="0.5" stroke-dasharray="0,3,1,3,1,3,1,3,1,0" points="102.936,373.8 102.936,31.5"/>
<polyline fill="none" stroke="#000000" stroke-width="0.5" stroke-dasharray="0,3,1,3,1,3,1,3,1,0" points="216.161,373.8 216.161,31.5"/>
<polyline fill="none" stroke="#000000" stroke-width="0.5" stroke-dasharray="0,3,1,3,1,3,1,3,1,0" points="329.39,373.8 329.39,31.5"/>
<polyline fill="none" stroke="#000000" stroke-width="0.5" stroke-dasharray="0,3,1,3,1,3,1,3,1,0" points="442.618,373.8 442.618,31.5"/>
<polyline fill="none" stroke="#000000" stroke-width="0.5" stroke-dasharray="16,0" points="102.936,373.8 102.936,369.456"/>
<polyline fill="none" stroke="#000000" stroke-width="0.5" stroke-dasharray="16,0" points="102.936,31.5 102.936,35.8438"/>
<polyline fill="none" stroke="#000000" stroke-width="0.5" stroke-dasharray="16,0" points="216.161,373.8 216.161,369.456"/>
<polyline fill="none" stroke="#000000" stroke-width="0.5" stroke-dasharray="16,0" points="216.161,31.5 216.161,35.8438"/>
<polyline fill="none" stroke="#000000" stroke-width="0.5" stroke-dasharray="16,0" points="329.39,373.8 329.39,369.456"/>
<polyline fill="none" stroke="#000000" stroke-width="0.5" stroke-dasharray="16,0" points="329.39,31.5 329.39,35.8438"/>
<polyline fill="none" stroke="#000000" stroke-width="0.5" stroke-dasharray="16,0" points="442.618,373.8 442.618,369.456"/>
<polyline fill="none" stroke="#000000" stroke-width="0.5" stroke-dasharray="16,0" points="442.618,31.5 442.618,35.8438"/>
<text fill="#000000" x="102.932" y="378.804" font-size="10" text-anchor="middle" baseline-shift="-10" font-family="Helvetica">2000/01</text>
<text fill="#000000" x="216.16" y="378.804" font-size="10" text-anchor="middle" baseline-shift="-10" font-family="Helvetica">2004/12</text>
<text fill="#000000" x="329.388" y="378.804" font-size="10" text-anchor="middle" baseline-shift="-10" font-family="Helvetica">2009/12</text>
<text fill="#000000" x="442.613" y="378.804" font-size="10" text-anchor="middle" baseline-shift="-10" font-family="Helvetica">2014/12</text>
<polyline fill="none" stroke="#000000" stroke-width="0.5" stroke-dasharray="0,3,1,3,1,3,1,3,1,0" points="72.8027,373.8 506.804,373.8"/>
<polyline fill="none" stroke="#000000" stroke-width="0.5" stroke-dasharray="0,3,1,3,1,3,1,3,1,0" points="72.8027,324.9 506.804,324.9"/>
<polyline fill="none" stroke="#000000" stroke-width="0.5" stroke-dasharray="0,3,1,3,1,3,1,3,1,0" points="72.8027,276 506.804,276"/>
<polyline fill="none" stroke="#000000" stroke-width="0.5" stroke-dasharray="0,3,1,3,1,3,1,3,1,0" points="72.8027,227.1 506.804,227.1"/>
<polyline fill="none" stroke="#000000" stroke-width="0.5" stroke-dasharray="0,3,1,3,1,3,1,3,1,0" points="72.8027,178.2 506.804,178.2"/>
<polyline fill="none" stroke="#000000" stroke-width="0.5" stroke-dasharray="0,3,1,3,1,3,1,3,1,0" points="72.8027,129.3 506.804,129.3"/>
<polyline fill="none" stroke="#000000" stroke-width="0.5" stroke-dasharray="0,3,1,3,1,3,1,3,1,0" points="72.8027,80.4 506.804,80.4"/>
<polyline fill="none" stroke="#000000" stroke-width="0.5" stroke-dasharray="0,3,1,3,1,3,1,3,1,0" points="72.8027,31.5 506.804,31.5"/>
<polyline fill="none" stroke="#000000" stroke-width="0.5" stroke-dasharray="16,0" points="72.8027,373.8 77.1436,373.8"/>
<polyline fill="none" stroke="#000000" stroke-width="0.5" stroke-dasharray="16,0" points="506.804,373.8 502.463,373.8"/>
<polyline fill="none" stroke="#000000" stroke-width="0.5" stroke-dasharray="16,0" points="72.8027,324.9 77.1436,324.9"/>
<polyline fill="none" stroke="#000000" stroke-width="0.5" stroke-dasharray="16,0" points="506.804,324.9 502.463,324.9"/>
<polyline fill="none" stroke="#000000" stroke-width="0.5" stroke-dasharray="16,0" points="72.8027,276 77.1436,276"/>
<polyline fill="none" stroke="#000000" stroke-width="0.5" stroke-dasharray="16,0" points="506.804,276 502.463,276"/>
<polyline fill="none" stroke="#000000" stroke-width="0.5" stroke-dasharray="16,0" points="72.8027,227.1 77.1436,227.1"/>
<polyline fill="none" stroke="#000000" stroke-width="0.5" stroke-dasharray="16,0" points="506.804,227.1 502.463,227.1"/>
<polyline fill="none" stroke="#000000" stroke-width="0.5" stroke-dasharray="16,0" points="72.8027,178.2 77.1436,178.2"/>
<polyline fill="none" stroke="#000000" stroke-width="0.5" stroke-dasharray="16,0" points="506.804,178.2 502.463,178.2"/>
<polyline fill="none" stroke="#000000" stroke-width="0.5" stroke-dasharray="16,0" points="72.8027,129.3 77.1436,129.3"/>
<polyline fill="none" stroke="#000000" stroke-width="0.5" stroke-dasharray="16,0" points="506.804,129.3 502.463,129.3"/>
<polyline fill="none" stroke="#000000" stroke-width="0.5" stroke-dasharray="16,0" points="72.8027,80.4 77.1436,80.4"/>
<polyline fill="none" stroke="#000000" stroke-width="0.5" stroke-dasharray="16,0" points="506.804,80.4 502.463,80.4"/>
<polyline fill="none" stroke="#000000" stroke-width="0.5" stroke-dasharray="16,0" points="72.8027,31.5 77.1436,31.5"/>
<polyline fill="none" stroke="#000000" stroke-width="0.5" stroke-dasharray="16,0" points="506.804,31.5 502.463,31.5"/>
<text fill="#000000" x="67.8002" y="373.8" font-size="10" text-anchor="end" baseline-shift="-5" font-family="Helvetica">0</text>
<text fill="#000000" x="67.8002" y="324.9" font-size="10" text-anchor="end" baseline-shift="-5" font-family="Helvetica">2</text>
<text fill="#000000" x="67.8002" y="276" font-size="10" text-anchor="end" baseline-shift="-5" font-family="Helvetica">4</text>
<text fill="#000000" x="67.8002" y="227.1" font-size="10" text-anchor="end" baseline-shift="-5" font-family="Helvetica">6</text>
<text fill="#000000" x="67.8002" y="178.2" font-size="10" text-anchor="end" baseline-shift="-5" font-family="Helvetica">8</text>
<text fill="#000000" x="67.8002" y="129.3" font-size="10" text-anchor="end" baseline-shift="-5" font-family="Helvetica">10</text>
<text fill="#000000" x="67.8002" y="80.4" font-size="10" text-anchor="end" baseline-shift="-5" font-family="Helvetica">12</text>
<text fill="#000000" x="67.8002" y="31.5" font-size="10" text-anchor="end" baseline-shift="-5" font-family="Helvetica">14</text>
<polyline fill="none" stroke="#0000ff" stroke-width="0.5" points="103.06,373.8 103.12,373.8 103.184,361.752 103.244,366.972 103.308,373.8 103.492,373.8 103.556,373.8 103.616,372.923 103.68,373.8 103.74,373.8 103.987,373.8 104.052,373.8 104.111,373.8 104.175,373.759 104.359,373.8 104.423,373.8 104.483,373.317 104.547,373.8 104.607,373.8 104.795,373.8 104.855,373.491 104.919,373.8 104.979,373.8 105.043,373.8 105.226,373.8 105.291,373.8 105.35,373.005 105.414,373.8 105.474,373.8 105.662,371.767 105.726,373.8 105.786,372.458 105.85,373.8 105.91,370.62 106.158,373.8 106.222,373.8 106.282,373.8 106.346,369.395 106.53,362.833 106.594,371.417 106.653,373.623 106.718,372.361 106.777,373.8 106.965,373.8 107.025,373.8 107.089,373.8 107.149,373.8 107.213,372.887 107.397,373.8 107.461,373.8 107.521,373.8 107.585,373.8 107.833,372.587 107.892,370.372 107.957,367.992 108.016,361.964 108.08,373.8 108.264,371.356 108.392,373.8 108.452,373.8 108.516,367.966 108.7,373.8 108.764,373.8 108.824,370.748 108.888,373.8 108.948,373.8 109.136,373.8 109.196,372.936 109.26,369.982 109.319,370.594 109.384,373.8 109.567,373.8 109.631,367.078 109.691,371.933 109.755,373.8 110.003,345.35 110.063,362.472 110.127,373.028 110.187,373.8 110.251,373.8 110.435,367.6 110.499,373.8 110.558,373.8 110.623,373.47 110.682,369.199 110.87,373.8 110.93,373.8 110.994,373.8 111.058,373.8 111.118,373.8 111.306,372.31 111.366,370.74 111.43,373.8 111.49,373.8 111.554,363.741 111.738,373.8 111.802,373.8 111.862,373.8 111.926,372.832 111.985,373.8 112.233,373.8 112.297,373.8 112.357,373.574 112.421,373.8 112.605,373.8 112.669,373.8 112.729,369.18 112.793,373.064 112.853,373.098 113.041,370.954 113.101,373.8 113.165,373.8 113.224,373.8 113.289,373.8 113.472,373.8 113.536,373.8 113.596,365.222 113.66,372.471 113.724,373.8 113.908,373.006 113.972,373.8 114.032,373.8 114.096,365.316 114.156,373.8 114.468,373.8 114.528,371.01 114.592,373.8 114.775,373.8 114.839,373.8 114.899,373.8 114.963,373.8 115.023,372.174 115.211,373.8 115.271,373.8 115.335,371.424 115.395,373.8 115.459,373.8 115.643,373.8 115.707,373.8 115.767,372.068 115.831,373.8 115.891,373.8 116.078,370.37 116.138,367.277 116.202,373.8 116.262,373.8 116.326,373.267 116.514,372.963 116.574,370.922 116.638,373.8 116.698,370.854 116.762,372.319 116.946,373.8 117.01,373.8 117.07,373.8 117.134,373.8 117.194,373.8 117.382,372.433 117.441,373.8 117.505,372.617 117.565,373.8 117.629,373.8 117.813,373.8 117.877,371.111 117.937,371.642 118.001,373.8 118.061,373.8 118.309,373.8 118.373,373.8 118.433,373.8 118.497,373.8 118.68,373.8 118.745,372.608 118.804,372.172 118.868,371.819 118.928,372.472 119.116,373.8 119.18,366.707 119.24,373.8 119.304,373.8 119.364,364.894 119.552,369.91 119.612,373.299 119.676,366.294 119.736,373.8 119.8,370.627 119.984,371.519 120.048,373.8 120.107,371.802 120.172,373.3 120.231,373.8 120.419,373.8 120.479,373.8 120.543,373.8 120.603,373.8 120.667,372.862 120.851,373.428 120.915,365.141 120.975,373.8 121.039,368.158 121.099,368.532 121.287,373.8 121.346,373.8 121.411,373.8 121.47,373.8 121.534,373.8 121.722,373.8 121.782,373.8 121.846,360.49 121.906,368.26 121.97,372.68 122.154,373.8 122.218,370.059 122.278,373.8 122.342,373.8 122.402,373.8 122.59,373.8 122.65,367.489 122.714,373.8 122.773,373.8 122.838,373.8 123.021,373.8 123.085,373.8 123.145,370.448 123.269,364.194 123.457,373.8 123.517,367.439 123.581,373.8 123.641,373.8 123.705,373.8 123.889,371.355 123.953,373.8 124.012,368.972 124.077,369.726 124.136,357.121 124.324,373.8 124.384,373.8 124.448,373.8 124.512,354.812 124.572,373.238 124.76,373.8 124.82,373.8 124.884,373.8 124.944,372.437 125.008,373.8 125.256,373.8 125.316,371.903 125.38,373.8 125.439,373.8 125.687,371.538 125.751,373.8 125.811,371.179 125.875,373.8 126.123,359.524 126.183,373.8 126.247,373.8 126.307,373.8 126.555,371.651 126.619,373.8 126.678,371.47 126.743,373.8 126.926,373.8 126.99,368.297 127.05,370.809 127.114,371.876 127.178,373.8 127.362,372.11 127.426,370.729 127.486,373.8 127.55,373.8 127.61,373.224 127.798,373.8 127.858,373.8 127.922,369.44 127.982,371.897 128.046,373.8 128.229,373.079 128.293,371.788 128.353,372.886 128.417,370.813 128.477,369.065 128.725,373.8 128.789,373.8 128.849,373.8 128.913,373.8 129.097,373.8 129.161,373.8 129.221,373.8 129.285,368.09 129.344,373.8 129.532,370.698 129.592,373.8 129.656,366.639 129.78,373.8 129.968,373.8 130.028,356.147 130.092,373.8 130.152,373.647 130.216,363.341 130.4,366.391 130.464,357.438 130.588,373.8 130.648,373.8 130.836,373.8 130.895,373.8 130.959,373.8 131.019,373.8 131.083,358.079 131.331,373.8 131.391,359.582 131.455,373.8 131.515,373.8 131.703,373.8 131.763,373.8 131.827,373.8 131.887,368.225 132.134,373.8 132.198,366.296 132.322,373.172 132.382,373.8 132.57,373.8 132.634,372.453 132.694,360.452 132.758,373.8 132.818,362.414 133.006,373.8 133.066,372.281 133.13,373.8 133.19,373.256 133.254,371.602 133.438,372.429 133.502,373.747 133.561,369.653 133.625,373.8 133.685,373.8 133.873,373.8 133.933,369.816 133.997,371.85 134.057,373.503 134.121,373.8 134.305,373.8 134.369,373.8 134.429,373.26 134.493,373.8 134.553,373.8 134.8,370.714 134.865,371.066 134.924,372.459 134.988,371.307 135.176,373.8 135.236,370.839 135.3,368.96 135.36,371.786 135.424,373.8 135.608,372.438 135.672,373.135 135.732,373.8 135.796,373.8 135.856,370.812 136.044,373.8 136.104,373.8 136.168,373.108 136.227,373.046 136.292,373.8 136.475,373.8 136.539,369.47 136.599,368.872 136.663,373.8 136.723,373.8 136.911,373.8 136.971,373.8 137.095,373.8 137.159,373.8 137.343,373.8 137.407,373.082 137.466,373.8 137.531,373.8 137.59,371.742 137.778,373.562 137.842,373.431 137.902,373.8 137.966,373.8 138.026,368.304 138.214,373.8 138.274,373.8 138.338,368.795 138.398,372.87 138.462,373.8 138.646,371.351 138.71,371.39 138.77,372.747 138.834,373.8 138.893,373.8 139.081,373.8 139.141,373.8 139.205,373.8 139.265,371.881 139.329,373.8 139.513,371.959 139.577,370.543 139.637,373.8 139.701,371.761 139.761,373.8 139.949,372.903 140.132,373.8 140.197,373.8 140.38,372.131 140.444,370.514 140.504,373.8 140.568,373.8 140.632,373.8 140.88,373.8 140.94,373.8 141.004,337.025 141.064,373.8 141.252,369.603 141.683,373.8 141.747,373.8 141.807,373.8 141.871,363.135 141.931,373.8 142.119,373.8 142.179,373.8 142.243,371.738 142.303,373.8 142.367,364.096 142.551,372.054 142.615,369.657 142.675,373.8 142.739,368.978 142.798,373.8 143.046,369.401 143.11,369.404 143.17,373.8 143.234,373.8 143.422,373.8 143.482,373.8 143.546,366.513 143.606,373.8 143.67,373.8 143.854,373.8 143.918,361.426 144.042,373.8 144.102,363.754 144.29,373.8 144.349,373.8 144.413,373.8 144.473,372.508 144.537,367.804 144.721,373.8 144.785,371.964 144.845,373.8 144.909,373.581 144.969,369.585 145.157,373.8 145.217,372.779 145.281,373.8 145.341,373.8 145.405,370.316 145.588,372.933 145.652,369.609 145.712,373.8 145.836,373.784 146.024,373.8 146.088,373.8 146.148,373.512 146.212,373.633 146.272,372.897 146.46,373.8 146.52,373.8 146.584,373.8 146.644,373.8 146.708,371.435 146.891,371.023 146.956,373.8 147.015,373.02 147.079,373.8 147.139,363.9 147.327,373.8 147.387,373.8 147.451,373.8 147.511,372.935 147.575,373.8 147.759,373.8 147.883,373.8 147.947,373.8 148.007,372.895 148.195,373.8 148.318,373.8 148.378,373.8 148.442,370.828 148.63,373.8 148.69,370.982 148.754,373.8 148.814,373.8 148.878,368.835 149.062,373.717 149.126,372.252 149.186,373.8 149.31,372.301 149.557,373.8 149.622,373.8 149.681,373.752 149.745,373.345 149.929,373.8 149.993,373.8 150.053,355.711 150.117,372.875 150.365,373.8 150.425,373.8 150.489,373.8 150.549,372.714 150.613,372.805 150.797,371.476 150.861,371.184 150.92,373.8 150.984,370.835 151.044,373.527 151.296,371.098 151.356,373.8 151.42,373.8 151.48,373.51 151.668,373.8 151.728,373.8 151.792,373.8 151.852,372.633 151.916,373.296 152.1,373.8 152.164,369.937 152.224,373.8 152.288,373.8 152.347,371.986 152.535,373.8 152.595,372.443 152.659,373.8 152.719,373.8 152.783,373.8 152.967,372.726 153.031,369.98 153.091,373.8 153.155,373.8 153.215,371.519 153.403,373.8 153.463,370.185 153.527,373.63 153.586,373.8 153.834,373.8 153.898,372.619 153.962,373.8 154.022,373.8 154.086,373.8 154.27,373.8 154.334,373.026 154.394,373.8 154.458,370.489 154.518,373.8 154.706,371.521 154.766,373.8 154.83,372.795 154.89,373.8 154.954,373.326 155.137,373.8 155.201,373.8 155.261,369.955 155.325,373.8 155.385,373.8 155.573,373.545 155.633,373.8 155.697,372.3 155.757,369.314 155.821,371.393 156.005,372.711 156.069,369.24 156.129,373.8 156.193,365.427 156.252,370.552 156.44,370.782 156.5,373.8 156.564,373.8 156.624,373.8 156.688,371.328 156.876,373.8 156.936,373.8 157,369.153 157.06,373.8 157.124,373.8 157.372,373.595 157.432,373.32 157.496,373.8 157.556,373.8 157.744,373.8 157.803,369.605 157.867,372.322 157.927,373.8 157.991,369.569 158.175,373.121 158.239,373.2 158.299,373.775 158.363,373.8 158.423,373.8 158.611,373.8 158.671,373.017 158.735,367.388 158.795,373.8 158.859,373.8 159.042,373.8 159.106,370.2 159.166,373.8 159.23,373.787 159.29,373.8 159.478,371.358 159.542,373.8 159.602,372.525 159.726,373.8 159.914,373.8 159.974,370.098 160.038,373.8 160.098,373.8 160.162,357.605 160.345,373.8 160.41,373.8 160.469,373.8 160.533,373.8 160.593,373.8 160.781,373.8 160.841,352.99 160.905,373.8 160.965,373.8 161.029,334.92 161.213,373.8 161.277,373.8 161.337,369.838 161.401,373.8 161.461,369.737 161.649,366.389 161.708,373.8 161.772,373.8 161.832,365.729 161.896,373.8 162.084,373.8 162.144,373.8 162.208,373.8 162.268,360.092 162.332,373.8 162.516,373.8 162.58,371.137 162.64,373.8 162.704,373.8 162.764,373.8 162.952,373.8 163.011,373.8 163.076,373.8 163.135,369.61 163.199,356.015 163.447,373.8 163.507,373.8 163.571,373.8 163.631,373.8 163.819,373.8 163.879,370.544 163.943,373.8 164.003,373.8 164.067,362.541 164.25,373.8 164.315,373.8 164.374,373.8 164.438,373.8 164.498,373.007 164.686,373.8 164.75,373.8 164.81,356.764 164.874,355.57 164.934,373.8 165.122,373.8 165.182,351.487 165.246,372.679 165.306,373.8 165.37,323.067 165.554,365.434 165.618,373.8 165.677,373.8 165.742,373.8 165.801,373.8 165.989,368.558 166.049,373.8 166.113,369.647 166.173,373.8 166.237,358.026 166.421,373.8 166.485,371.903 166.545,373.8 166.609,373.8 166.669,371.955 166.857,373.8 166.917,373.8 166.981,373.8 167.104,373.8 167.288,373.8 167.352,366.872 167.416,348.934 167.476,373.8 167.54,368.351 167.724,373.8 167.788,373.8 167.848,373.8 167.912,366.969 167.972,366.642 168.16,372.969 168.22,373.8 168.344,373.8 168.408,369.829 168.591,373.711 168.655,373.8 168.715,372.548 168.839,372.924 169.027,373.8 169.087,373.8 169.151,371.957 169.211,372.294 169.275,373.8 169.459,373.8 169.523,373.8 169.583,372.255 169.647,370.59 169.706,368.75 169.894,373.164 169.954,368.832 170.018,373.8 170.082,373.8 170.142,369.021 170.33,373.8 170.39,373.726 170.514,373.8 170.578,369.11 170.762,373.8 170.826,365.865 170.95,373.8 171.01,367.68 171.198,373.8 171.257,372.088 171.321,372.852 171.381,373.746 171.445,373.8 171.629,371.487 171.693,371.274 171.753,373.8 171.817,373.8 172.189,372.075 172.249,373.8 172.313,373.8 172.496,373.8 172.56,373.8 172.62,373.8 172.684,369.113 172.748,373.8 172.932,373.8 172.996,373.8 173.056,373.8 173.12,373.8 173.18,362.812 173.368,373.8 173.428,373.8 173.492,369.704 173.552,373.8 173.616,367.965 173.864,373.8 173.923,370.646 173.987,373.564 174.047,373.8 174.235,373.241 174.295,373.8 174.359,373.8 174.419,362.859 174.483,372.718 174.667,373.8 174.731,373.8 174.791,372.046 174.855,371.599 174.915,352.819 175.103,373.035 175.162,373.8 175.226,367.137 175.286,373.8 175.35,373.8 175.538,373.8 175.598,366.217 175.662,366.029 175.722,373.8 175.786,373.8 175.97,373.8 176.034,373.8 176.094,373.8 176.158,373.8 176.218,373.8 176.406,373.8 176.465,373.8 176.53,373.8 176.589,369.866 176.653,363.041 176.837,373.8 176.901,373.8 176.961,373.8 177.025,373.8 177.085,373.8 177.273,368.422 177.333,372.707 177.397,372.28 177.457,373.8 177.704,373.8 177.769,371.615 177.828,373.8 177.892,373.8 177.952,373.8 178.14,373.8 178.204,367.189 178.264,373.8 178.328,373.8 178.388,373.8 178.576,371.519 178.636,373.8 178.7,373.8 178.76,373.8 178.824,373.116 179.008,373.8 179.072,373.8 179.131,372.447 179.196,372.497 179.255,373.8 179.443,373.8 179.503,365.55 179.567,373.8 179.627,373.321 179.691,373.8 179.939,373.8 179.999,373.8 180.063,373.043 180.123,373.8 180.311,373.8 180.37,371.859 180.435,373.236 180.494,373.8 180.558,373.8 180.742,373.8 180.806,373.8 180.87,373.484 180.93,373.8 180.994,372.346 181.178,373.8 181.242,373.474 181.302,373.8 181.366,373.8 181.426,372.788 181.614,373.8 181.674,370.239 181.738,364.562 181.797,368.804 181.862,371.694 182.045,371.982 182.109,373.8 182.169,373.8 182.233,365.221 182.481,373.8 182.541,373.8 182.605,370.778 182.665,373.8 182.729,372.1 182.913,373.8 182.977,373.546 183.036,373.8 183.101,373.8 183.16,373.8 183.348,372.131 183.408,368.011 183.472,373.499 183.536,373.8 183.596,373.8 183.784,373.749 183.844,370.753 183.908,372.494 183.968,369.106 184.032,369.387 184.216,373.189 184.28,364.989 184.34,373.8 184.404,369.721 184.464,373.8 184.651,373.8 184.711,373.8 184.775,373.8 184.835,373.8 184.899,373.8 185.083,373.8 185.147,373.8 185.207,372.125 185.271,373.8 185.331,371.937 185.519,370.477 185.579,372.844 185.643,373.404 185.703,373.45 185.767,373.8 186.014,373.8 186.074,371.35 186.138,373.8 186.202,371.106 186.386,373.8 186.45,373.8 186.51,369.538 186.574,373.8 186.634,373.8 186.822,373.156 186.882,373.8 186.946,372.396 187.006,372.178 187.07,371.988 187.253,373.8 187.318,369.963 187.377,373.8 187.441,371.716 187.501,372.978 187.689,373.8 187.749,365.045 187.813,371.466 187.873,371.696 187.937,373.8 188.121,373.8 188.185,373.8 188.245,373.8 188.309,373.8 188.369,373.504 188.557,373.8 188.616,373.8 188.74,373.8 188.804,373.75 188.992,372.715 189.052,372.812 189.116,373.8 189.176,373.8 189.24,373.8 189.424,373.8 189.488,373.8 189.548,373.8 189.612,373.669 189.672,372.605 189.86,373.367 189.919,373.089 189.984,373.8 190.043,373.066 190.107,373.8 190.291,373.8 190.355,373.758 190.415,373.624 190.479,373.8 190.539,373.8 190.727,373.8 190.787,373.8 190.851,373.8 190.911,373.8 190.975,373.8 191.158,373.8 191.223,373.8 191.282,372.675 191.406,373.601 191.594,371.711 191.658,373.123 191.718,373.8 191.782,370.725 191.842,370.361 192.03,373.8 192.09,373.8 192.154,373.8 192.214,373.8 192.278,373.643 192.462,369.35 192.526,371.364 192.585,373.8 192.65,373.661 192.709,373.8 192.897,373.452 192.957,373.398 193.021,373.8 193.145,373.754 193.329,373.8 193.393,373.463 193.453,373.8 193.577,373.8 193.765,373.8 193.824,373.8 193.889,373.8 193.948,373.8 194.012,373.8 194.324,373.003 194.384,370.637 194.448,373.8 194.696,373.8 194.756,373.8 194.82,373.8 194.88,373.336 195.068,373.8 195.128,371.741 195.192,373.8 195.251,373.8 195.316,373.327 195.499,373.8 195.563,373.79 195.623,370.971 195.687,372.988 195.747,373.8 195.935,373.305 195.995,373.8 196.059,373.8 196.119,372.635 196.183,373.238 196.431,368.658 196.49,373.8 196.555,373.8 196.614,372.347 196.802,373.8 196.862,373.8 196.926,373.375 196.99,373.8 197.05,373.8 197.238,373.522 197.298,373.559 197.362,373.8 197.422,373.8 197.486,371.072 197.67,373.8 197.734,373.8 197.794,372.481 197.858,373.8 197.917,373.8 198.105,373.8 198.165,373.8 198.229,373.8 198.289,373.72 198.353,373.588 198.537,373.8 198.601,373.8 198.661,373.8 198.725,373.8 198.785,372.712 198.973,373.8 199.033,373.08 199.097,373.8 199.156,372.524 199.221,373.8 199.404,373.8 199.468,373.8 199.528,373.8 199.592,373.233 199.84,372.922 199.904,372.56 199.964,373.8 200.028,373.792 200.088,372.66 200.276,373.8 200.336,373.8 200.4,373.8 200.46,373.8 200.524,371.819 200.707,373.8 200.771,373.8 200.831,373.8 200.895,373.8 200.955,372.995 201.143,373.8 201.203,373.8 201.267,372.513 201.327,372.02 201.391,367.438 201.575,373.8 201.639,373.8 201.699,371.626 201.763,369.331 201.823,372.909 202.01,373.8 202.07,373.8 202.134,373.8 202.194,372.001 202.258,373.8 202.446,373.151 202.506,373.8 202.57,373.272 202.63,373.8 202.694,373.8 202.942,373.8 203.002,373.042 203.066,373.078 203.126,373.8 203.314,373.8 203.373,373.061 203.438,372.216 203.497,372.839 203.745,372.569 203.809,373.8 203.869,373.563 203.933,373.02 203.993,373.8 204.181,373.8 204.241,373.8 204.305,373.614 204.365,372.629 204.429,373.423 204.612,373.8 204.677,373.128 204.736,372.596 204.8,373.8 204.86,373.734 205.112,373.8 205.172,373.8 205.236,372.841 205.296,373.8 205.484,373.8 205.544,373.576 205.608,373.8 205.668,371.497 205.732,373.8 205.916,372.581 205.98,373.8 206.039,373.8 206.104,372.882 206.163,373.8 206.351,371.761 206.411,373.8 206.475,373.8 206.535,373.795 206.599,373.8 206.783,372.19 206.847,373.291 206.907,373.8 206.971,373.8 207.031,373.8 207.219,373.8 207.278,372.875 207.343,373.8 207.402,373.029 207.466,373.8 207.65,373.525 207.714,373.8 207.778,372.754 207.838,372.334 207.902,372.682 208.086,373.8 208.15,373.8 208.21,373.8 208.274,372.851 208.334,373.133 208.522,372.58 208.582,373.8 208.646,373.8 208.705,373.8 208.77,373.8 209.017,373.8 209.077,373.8 209.141,373.287 209.201,373.8 209.389,371.765 209.449,373.8 209.513,373.8 209.573,373.8 209.637,373.8 209.821,372.34 209.885,373.8 209.944,373.744 210.009,373.8 210.068,373.759 210.256,373.8 210.316,373.8 210.38,373.224 210.444,372.459 210.504,373.8 210.692,372.472 210.752,372.177 210.816,373.8 210.876,373.8 210.94,373.8 211.124,373.385 211.248,372.26 211.312,373.8 211.371,372.551 211.559,373.8 211.619,373.8 211.683,371.753 211.743,373.776 211.807,371.656 211.991,372.566 212.055,373.8 212.115,373.8 212.179,373.8 212.239,373.8 212.427,373.511 212.487,372.852 212.551,373.8 212.61,373.8 212.675,373.387 212.858,373.8 212.922,373.8 212.982,373.8 213.046,373.8 213.11,373.8 213.294,373.8 213.358,373.425 213.418,373.8 213.482,373.51 213.542,373.8 213.73,373.8 213.79,373.558 213.854,373.8 213.978,373.8 214.161,373.8 214.225,373.057 214.285,373.8 214.349,373.092 214.409,373.431 214.597,373.8 214.657,373.8 214.721,372.328 214.781,373.8 214.845,373.8 215.029,373.8 215.093,373.559 215.153,373.098 215.217,373.8 215.276,373.8 215.464,373.8 215.524,373.8 215.588,373.8 215.648,373.291 215.9,373.8 215.96,373.028 216.024,373.735 216.084,373.8 216.148,373.8 216.332,373.8 216.396,373.8 216.456,373.8 216.52,372.338 216.58,372.835 216.768,372.239 216.827,373.8 216.891,372.828 216.951,373.705 217.015,373.8 217.263,373.8 217.323,373.8 217.387,373.8 217.447,373.038 217.635,373.8 217.695,373.8 217.759,371.967 217.819,373.8 217.883,373.723 218.066,373.462 218.13,373.798 218.19,373.8 218.254,372.57 218.314,373.176 218.502,373.02 218.566,372.873 218.626,373.471 218.69,372.823 218.75,373.8 218.938,372.894 218.998,373.8 219.062,373.8 219.122,373.44 219.186,373.323 219.434,373.8 219.493,371.239 219.557,371.943 219.617,373.637 219.805,373.8 219.865,373.8 219.929,373.8 219.989,373.8 220.053,373.42 220.237,373.404 220.301,373.8 220.361,373.8 220.425,373.8 220.485,373.8 220.673,373.8 220.732,372.679 220.797,372.576 220.856,373.8 220.92,373.8 221.108,372.431 221.168,372.025 221.232,373.8 221.292,373.8 221.54,373.8 221.604,370.535 221.664,373.8 221.728,373.8 221.788,373.8 221.976,373.8 222.036,373.8 222.1,372.507 222.159,373.641 222.224,373.8 222.407,373.078 222.471,373.8 222.531,373.187 222.595,373.8 222.655,373.8 222.843,373.694 222.903,373.8 222.967,373.8 223.027,373.8 223.091,373.8 223.275,372.152 223.339,373.8 223.398,373.8 223.463,373.8 223.522,373.8 223.71,373.246 223.77,373.8 223.834,373.21 223.898,373.465 223.958,373.8 224.146,373.8 224.206,371.636 224.27,373.745 224.33,373.8 224.394,373.8 224.578,373.8 224.642,373.8 224.702,373.8 224.766,372.28 224.825,371.892 225.013,373.206 225.073,373.508 225.137,373.287 225.197,373.8 225.261,373.65 225.509,373.175 225.569,373.8 225.633,371.419 225.693,372.955 225.881,373.8 225.941,372.282 226.005,373.656 226.064,373.8 226.129,373.484 226.312,373.8 226.376,373.8 226.436,373.494 226.5,373.8 226.564,371.811 226.748,373.8 226.812,373.8 226.872,372.766 226.936,373.049 226.996,373.8 227.184,373.431 227.244,373.557 227.308,373.025 227.368,373.8 227.432,373.8 227.679,373.419 227.739,373.488 227.803,373.8 227.863,373.8 228.051,373.8 228.111,373.8 228.175,373.8 228.235,373.8 228.299,373.8 228.483,373.8 228.547,373.8 228.607,372.216 228.671,371.204 228.73,373.8 228.918,373.8 228.978,373.583 229.042,372.922 229.102,373.082 229.166,373.8 229.354,373.596 229.414,373.8 229.478,373.8 229.538,373.478 229.602,373.8 229.786,373.8 229.85,373.8 229.91,373.8 229.974,373.8 230.034,373.8 230.222,373.8 230.281,373.8 230.345,371.505 230.405,373.8 230.469,373.302 230.653,373.8 230.717,372.567 230.777,373.8 230.841,373.8 230.901,373.8 231.089,373.8 231.149,373.512 231.213,373.8 231.273,369.872 231.337,372.249 231.584,373.8 231.644,372.929 231.708,373.8 231.768,373.8 231.956,373.8 232.02,373.8 232.08,373.003 232.144,373.763 232.204,373.572 232.392,373.8 232.452,373.8 232.516,373.8 232.576,372.104 232.64,373.8 232.823,373.35 232.888,372.23 232.947,373.8 233.011,373.596 233.071,373.144 233.259,373.8 233.319,373.8 233.383,372.925 233.443,373.8 233.507,372.946 233.691,371.142 233.755,373.8 233.815,370.43 233.879,371.022 233.939,373.8 234.127,372.9 234.186,373.8 234.25,373.8 234.31,373.8 234.374,372.341 234.562,369.507 234.622,373.8 234.686,372.209 234.746,373.8 234.81,373.077 234.994,373.8 235.058,372.812 235.118,373.13 235.182,373.8 235.242,373.8 235.43,373.148 235.49,373.8 235.554,373.8 235.613,373.8 235.677,373.554 235.861,373.8 235.925,373.734 235.985,373.526 236.049,373.8 236.109,373.8 236.297,373.8 236.357,373.8 236.421,372.986 236.545,373.8 236.729,373.8 236.793,373.8 236.852,373.69 236.917,373.8 236.976,373.482 237.164,373.8 237.228,373.8 237.288,373.8 237.352,373.8 237.412,373.8 237.6,373.453 237.66,373.8 237.724,373.8 237.784,373.8 237.848,372.55 238.032,373.8 238.096,373.8 238.156,371.753 238.22,373.365 238.279,373.8 238.527,371.828 238.591,373.8 238.651,373.518 238.715,373.8 238.963,373.8 239.023,373.182 239.087,373.8 239.147,368.662 239.335,373.512 239.395,372.092 239.459,372.619 239.518,373.8 239.583,373.8 239.83,373.369 239.894,373.8 239.954,373.8 240.018,372.999 240.202,373.142 240.266,373.8 240.326,369.637 240.39,373.8 240.45,373.8 240.638,373.8 240.698,372.131 240.762,373.747 240.822,373.8 240.886,372.287 241.069,372.732 241.133,373.65 241.193,373.8 241.257,373.8 241.317,373.688 241.505,373.8 241.565,373.8 241.629,372.683 241.689,373.8 241.753,373.8 242.001,373.737 242.061,373.8 242.125,373.8 242.184,373.8 242.372,373.8 242.432,373.8 242.496,373.294 242.556,373.8 242.62,373.096 242.808,373.8 242.868,373.8 242.932,373.8 242.992,373.445 243.056,373.07 243.24,373.093 243.304,373.8 243.364,373.8 243.428,373.575 243.488,373.621 243.676,373.324 243.735,373.8 243.799,373.23 243.859,373.574 243.923,373.8 244.107,372.659 244.171,373.725 244.231,373.8 244.295,372.655 244.355,372.86 244.543,373.8 244.603,373.8 244.667,373.419 244.727,373.8 244.791,373.8 244.974,373.412 245.038,371.861 245.098,373.696 245.162,373.8 245.41,372.952 245.474,373.8 245.534,373.55 245.598,373.8 245.658,373.8 245.846,372.958 245.906,373.8 245.97,373.2 246.03,373.8 246.094,373.749 246.277,373.579 246.342,372.318 246.401,373.8 246.465,373.684 246.525,373.8 246.713,373.472 246.773,373.8 246.837,372.124 246.897,373.8 246.961,368.532 247.145,373.132 247.209,373.8 247.269,373.771 247.333,373.8 247.393,370.507 247.581,366.533 247.64,373.8 247.704,370.85 247.764,372.862 247.828,373.638 248.076,373.8 248.14,373.795 248.2,372.197 248.264,373.8 248.448,373.8 248.512,373.502 248.572,373.418 248.636,372.563 248.696,371.795 248.884,371.559 248.943,371.137 249.008,373.8 249.067,373.8 249.131,373.8 249.315,373.8 249.379,373.8 249.439,373.8 249.503,371.677 249.563,373.642 249.751,371.202 249.811,372.946 249.875,373.234 249.935,370.086 249.999,372.521 250.182,373.8 250.306,373.8 250.37,370.836 250.43,373.8 250.618,373.8 250.682,371.458 250.742,373.8 250.806,372.596 250.866,369.304 251.054,373.256 251.114,373.8 251.178,373.8 251.238,373.8 251.302,369.534 251.486,373.8 251.55,373.8 251.609,373.8 251.674,369.601 251.733,372.424 251.921,373.8 251.981,373.8 252.045,373.8 252.105,371.812 252.169,371.16 252.353,372.535 252.417,373.8 252.477,367.949 252.541,373.8 252.601,373.8 252.789,371.685 252.849,371.665 252.913,373.8 252.972,372.961 253.036,373.8 253.22,373.547 253.284,373.8 253.348,373.8 253.408,372.852 253.472,373.8 253.656,373.8 253.72,373.8 253.78,372.816 253.844,373.398 253.904,373.557 254.152,373.8 254.216,373.8 254.276,373.8 254.34,372.545 254.523,373.416 254.587,373.597 254.647,372.956 254.711,373.8 254.771,373.8 254.959,373.8 255.019,372.528 255.083,373.427 255.143,373.8 255.207,373.522 255.391,373.8 255.455,373.8 255.515,373.347 255.579,373.8 255.638,373.651 255.826,373.8 255.886,373.8 255.95,373.651 256.014,373.275 256.074,373.8 256.262,373.465 256.322,373.708 256.386,373.345 256.446,373.39 256.51,373.8 256.694,373.53 256.758,373.8 256.818,373.8 256.882,373.8 256.942,372.979 257.13,373.8 257.189,373.616 257.253,373.8 257.313,373.8 257.377,373.8 257.561,373.8 257.625,373.743 257.685,373.8 257.749,372.45 257.809,370.319 257.997,373.8 258.057,373.8 258.121,372.862 258.181,373.012 258.245,373.553 258.428,373.8 258.492,373.8 258.552,373.023 258.616,373.8 258.676,373.8 258.864,373.8 258.928,373.8 258.988,373.8 259.112,372.42 259.3,373.508 259.36,373.762 259.424,373.8 259.484,372.168 259.548,373.8 259.731,373.8 259.796,373.172 259.855,372.722 259.919,373.189 259.979,373.8 260.167,373.8 260.227,372.297 260.291,373.185 260.351,373.8 260.415,371.492 260.599,373.8 260.663,373.8 260.723,373.316 260.787,373.016 260.847,373.438 261.094,373.8 261.158,373.8 261.218,373.8 261.282,373.8 261.594,373.8 261.654,373.8 261.718,373.319 261.902,373.716 261.966,373.8 262.026,373.8 262.09,373.8 262.15,373.613 262.397,373.173 262.462,372.611 262.521,373.632 262.585,373.614 262.769,372.969 262.833,372.069 262.893,373.653 262.957,373.8 263.017,373.8 263.205,373.41 263.265,372.779 263.329,372.704 263.389,373.138 263.453,373.8 263.636,373.8 263.701,373.8 263.76,373.79 263.824,372.504 263.884,373.767 264.072,373.8 264.136,373.8 264.196,373.8 264.26,373.8 264.32,373.057 264.568,373.709 264.632,372.318 264.692,372.911 264.756,373.8 264.94,373.8 265.004,373.8 265.063,373.8 265.128,356.134 265.187,371.393 265.375,370.047 265.435,373.8 265.499,372.921 265.559,373.8 265.623,373.792 265.807,373.8 265.871,370.807 265.931,364.668 265.995,372.811 266.055,372.243 266.243,373.8 266.302,373.506 266.367,373.8 266.426,373.691 266.49,371.103 266.674,373.8 266.738,372.443 266.802,373.497 266.862,371.909 266.926,373.8 267.11,373.8 267.174,373.8 267.234,372.853 267.298,373.66 267.546,373.8 267.606,373.8 267.67,373.8 267.729,373.102 267.794,373.8 267.977,373.8 268.041,373.8 268.101,373.8 268.165,371.771 268.225,373.8 268.413,373.507 268.473,373.8 268.537,373.8 268.597,373.507 268.661,373.096 268.845,373.8 268.909,371.508 268.969,373.8 269.033,373.8 269.092,373.311 269.28,373.604 269.34,372.158 269.404,373.8 269.468,371.601 269.528,373.42 269.716,373.8 269.776,373.8 269.84,373.8 269.9,372.61 269.964,371.485 270.148,373.8 270.212,371.999 270.272,373.283 270.336,373.8 270.396,372.701 270.643,372.178 270.707,371.237 270.767,373.8 270.831,373.8 271.015,373.8 271.079,373.8 271.139,373.464 271.203,373.8 271.263,368.446 271.451,373.8 271.511,372.598 271.575,373.8 271.635,372.923 271.699,373.8 271.882,372.1 271.946,373.8 272.006,372.981 272.07,371.216 272.134,370.779 272.318,370.167 272.382,373.8 272.442,366.988 272.506,370.574 272.566,373.206 272.754,372.731 272.814,373.723 272.938,372.387 273.002,373.8 273.185,373.616 273.25,372.11 273.309,372.678 273.373,373.586 273.433,373.8 273.621,373.108 273.681,373.8 273.745,373.168 273.805,373.8 273.869,372.243 274.053,373.609 274.117,373.8 274.177,373.8 274.241,370.616 274.301,373.8 274.489,358.009 274.548,373.1 274.612,373.8 274.672,373.8 274.736,373.8 274.924,373.8 274.984,373.8 275.048,373.8 275.108,372.622 275.172,373.8 275.356,368.466 275.42,373.8 275.48,373.8 275.544,373.8 275.604,373.8 275.792,373.8 275.851,367.845 275.916,373.8 275.975,371.979 276.039,373.8 276.223,373.8 276.287,373.8 276.347,373.8 276.411,370.542 276.471,373.8 276.719,373.211 276.783,373.8 276.843,373.8 276.907,373.8 277.09,367.257 277.155,373.8 277.214,372.987 277.278,373.8 277.338,369.824 277.526,373.297 277.59,366.625 277.65,373.8 277.714,373.294 277.774,373.8 277.962,373.8 278.022,373.8 278.086,373.8 278.146,372.805 278.21,372.696 278.394,373.8 278.458,373.8 278.517,373.701 278.582,373.207 278.641,372.497 278.829,372.855 278.889,373.8 278.953,372.667 279.013,373.8 279.077,373.301 279.261,372.656 279.325,373.8 279.385,373.8 279.449,371.173 279.509,373.8 279.697,369.411 279.756,371.587 279.821,373.8 279.88,373.8 279.944,373.8 280.128,372.389 280.192,373.222 280.256,370.806 280.316,373.8 280.38,358.436 280.564,362.572 280.628,370.264 280.688,373.8 280.752,364.688 280.812,373.8 281,369.462 281.06,373.8 281.124,373.8 281.183,373.8 281.248,373.8 281.431,373.8 281.495,373.8 281.555,372.263 281.679,368.901 281.867,373.8 281.927,373.8 281.991,373.8 282.051,362.319 282.115,373.8 282.299,369.53 282.363,372.97 282.422,372.424 282.487,370.542 282.546,372.692 282.734,373.8 282.794,362.841 282.858,353.607 282.922,371.267 282.982,373.671 283.17,373.8 283.23,372.582 283.294,373.8 283.354,373.8 283.418,373.8 283.602,373.8 283.726,373.8 283.79,373.8 283.849,373.8 284.037,373.71 284.161,373.8 284.221,373.8 284.285,373.8 284.469,371.016 284.533,370.02 284.593,354.964 284.657,369.794 284.717,367.432 284.905,366.071 284.965,373.8 285.029,373.8 285.089,369.357 285.153,373.8 285.4,322.493 285.46,373.8 285.524,365.873 285.588,365.452 285.772,373.8 285.836,373.8 285.896,373.8 285.96,360.153 286.02,373.135 286.208,373.8 286.268,373.8 286.332,366.654 286.392,373.8 286.456,369.543 286.639,373.57 286.703,373.8 286.763,365.766 286.827,371.736 286.887,373.052 287.135,369.517 287.199,364.219 287.259,373.8 287.323,373.8 287.507,373.8 287.571,365.65 287.631,373.8 287.695,371.119 287.755,373.8 287.943,373.8 288.002,373.8 288.066,371.471 288.126,371.21 288.19,352.494 288.378,366.96 288.438,373.8 288.502,373.8 288.562,366.484 288.626,359.941 288.81,373.8 288.874,370.777 288.934,370.655 288.998,369.031 289.246,373.8 289.305,367.407 289.37,373.8 289.429,369.642 289.493,372.03 289.677,372.521 289.741,373.8 289.801,373.714 289.865,373.8 289.925,373.8 290.113,369.213 290.173,368.774 290.237,373.8 290.297,372.598 290.361,373.8 290.544,371.009 290.609,370.87 290.668,372.716 290.732,373.8 290.792,364.231 290.98,372.245 291.044,372.854 291.104,369.936 291.168,373.018 291.228,373.565 291.416,372.713 291.476,373.8 291.54,360.427 291.6,373.8 291.664,363.106 291.848,373.8 291.912,373.8 291.971,373.8 292.036,373.8 292.095,367.952 292.283,372.468 292.343,373.8 292.407,373.8 292.467,368.782 292.715,373.8 292.779,373.8 292.839,373.8 292.903,372.95 292.963,373.722 293.21,373.8 293.275,372.745 293.334,373.088 293.398,372.918 293.582,373.8 293.646,373.8 293.71,373.298 293.77,372.118 294.018,373.8 294.082,369.4 294.142,373.8 294.206,373.757 294.266,373.8 294.454,371.942 294.514,366.577 294.578,365.356 294.637,372.966 294.702,370.674 294.885,371.269 294.949,372.559 295.009,373.8 295.073,373.8 295.133,370.01 295.321,373.8 295.381,364.403 295.445,373.8 295.753,373.8 295.817,369.309 295.876,369.293 295.941,373.8 296,364.971 296.188,373.8 296.248,373.8 296.312,373.8 296.376,373.8 296.436,370.492 296.624,373.8 296.684,373.8 296.748,369.284 296.808,373.8 296.872,366.026 297.056,372.881 297.12,372.899 297.18,373.8 297.244,373.8 297.491,373.8 297.551,373.8 297.615,373.8 297.739,373.65 297.923,373.529 297.987,373.8 298.111,373.703 298.171,373.297 298.359,370.292 298.419,369.062 298.483,373.8 298.542,369.588 298.607,371.609 298.79,373.8 298.854,369.676 298.914,373.8 299.042,373.8 299.29,373.8 299.35,369.247 299.414,373.8 299.474,370.875 299.662,373.8 299.722,373.8 299.786,373.8 299.846,373.8 299.91,373.8 300.093,373.8 300.157,366.879 300.217,373.8 300.281,373.8 300.341,373.8 300.529,373.8 300.589,373.8 300.653,373.8 300.713,373.8 300.777,348.603 300.961,249.92 301.025,373.8 301.085,373.8 301.149,366.581 301.208,330.747 301.396,373.8 301.456,373.8 301.52,283.834 301.58,333.221 301.644,373.8 301.832,373.8 301.892,331.587 301.956,373.8 302.016,247.867 302.08,308.886 302.264,370.831 302.328,353.78 302.388,373.8 302.452,373.8 302.512,367.266 302.7,318.103 302.759,373.8 302.823,373.8 302.883,304.573 302.947,367.096 303.131,370.402 303.195,357.461 303.255,370.349 303.319,366.992 303.379,373.8 303.567,295.786 303.627,373.8 303.691,330.006 303.751,373.8 303.815,373.8 303.998,300.829 304.062,373.8 304.122,373.8 304.186,344.588 304.246,271.508 304.434,370.459 304.498,299.797 304.558,355.197 304.682,370.622 304.87,373.8 304.93,373.8 304.994,353.781 305.054,342.176 305.118,356.605 305.302,373.8 305.366,355.351 305.425,368.423 305.49,331.128 305.549,327.107 305.737,373.8 305.797,373.8 305.861,346.33 305.921,354.755 305.985,346.348 306.169,373.8 306.233,360.466 306.293,372.666 306.417,373.8 306.605,373.8 306.664,373.8 306.729,369.203 306.852,373.8 307.04,373.8 307.1,373.8 307.164,373.8 307.224,368.569 307.288,365.483 307.472,368.535 307.536,373.8 307.596,373.8 307.66,373.8 307.72,353.641 307.968,373.8 308.032,356.452 308.091,367.878 308.156,315.24 308.339,344.101 308.403,373.8 308.463,373.8 308.527,373.8 308.587,372.645 308.775,347.563 308.835,363.105 308.899,356.138 308.959,373.8 309.023,373.8 309.207,366.8 309.271,373.8 309.33,373.8 309.395,373.8 309.454,373.8 309.702,373.8 309.766,343.473 309.83,373.8 309.89,346.621 310.078,373.8 310.138,373.8 310.202,373.8 310.262,351.235 310.326,373.8 310.51,332.194 310.574,373.8 310.634,373.8 310.698,337.394 310.757,366.635 310.945,373.8 311.005,373.8 311.069,370.795 311.129,373.8 311.193,373.8 311.377,373.8 311.441,354.549 311.501,304.408 311.565,353.319 311.625,362.551 311.813,373.8 311.873,373.8 311.937,373.8 311.996,367.474 312.061,373.8 312.244,359.341 312.308,362.341 312.368,348.481 312.432,359.109 312.496,357.949 312.68,373.8 312.744,369.601 312.804,365.725 312.868,355.044 313.116,364.782 313.176,373.8 313.24,373.8 313.3,373.8 313.364,373.8 313.547,370.275 313.611,373.749 313.671,373.8 313.735,373.8 313.795,360.493 313.983,361.084 314.043,368.224 314.107,373.8 314.167,373.8 314.231,373.207 314.415,373.8 314.479,372.825 314.539,365.266 314.603,370.308 314.662,373.8 314.85,373.8 314.91,365.028 314.974,373.8 315.034,361.144 315.098,369.431 315.286,373.8 315.346,366.431 315.41,357.917 315.47,373.8 315.534,372.213 315.782,373.8 315.842,371.732 315.906,373.8 315.966,373.012 316.154,373.8 316.213,369.23 316.277,369.032 316.337,373.8 316.401,373.8 316.585,373.8 316.649,369.056 316.709,373.8 316.773,373.8 316.833,369.478 317.021,373.8 317.081,373.8 317.145,373.381 317.205,373.8 317.269,373.739 317.452,373.8 317.516,364.935 317.576,373.8 317.64,373.8 317.7,364.919 317.888,369.626 317.952,372.989 318.012,373.8 318.076,373.8 318.324,371.042 318.384,373.106 318.448,373.8 318.508,364.396 318.572,370.348 318.755,373.8 318.82,373.8 318.879,373.8 318.943,372.6 319.003,373.8 319.191,373.8 319.251,373.8 319.315,371.359 319.375,372.809 319.439,373.69 319.623,370.901 319.687,370.86 319.747,372.31 319.811,373.8 319.871,370.004 320.059,368.231 320.118,373.8 320.182,373.8 320.242,373.8 320.306,361.461 320.494,370.927 320.554,373.8 320.618,373.8 320.678,370.102 320.742,373.8 320.926,373.8 320.99,373.8 321.05,373.8 321.114,373.8 321.174,371.828 321.362,373.8 321.422,373.054 321.486,373.8 321.545,373.8 321.609,373.8 321.793,371.559 321.857,373.8 321.917,370.057 321.981,371.688 322.041,373.8 322.289,369.196 322.353,373.8 322.413,373.8 322.477,373.11 322.661,369.896 322.725,371.927 322.784,370.321 322.849,373.8 322.908,370.785 323.096,371.182 323.16,372.201 323.22,373.8 323.284,369.718 323.344,373.8 323.532,373.8 323.592,373.678 323.656,373.8 323.716,373.8 323.78,361.898 323.964,370.884 324.028,373.8 324.088,373.8 324.152,373.8 324.211,373.701 324.399,373.8 324.459,369.024 324.523,365.914 324.583,373.735 324.647,364.897 324.831,373.8 324.895,373.8 324.955,371.317 325.019,373.8 325.079,371.042 325.267,373.8 325.327,359.083 325.391,362.345 325.45,373.8 325.515,370.753 325.698,362.065 325.762,366.375 325.822,367.807 325.886,373.8 325.95,364.705 326.134,373.8 326.198,373.8 326.258,372.156 326.322,373.8 326.382,371.304 326.57,373.8 326.63,373.8 326.694,370.011 326.754,373.8 326.818,368.693 327.001,373.8 327.065,373.594 327.125,373.8 327.249,373.8 327.437,371.702 327.497,373.8 327.561,372.247 327.621,373.8 327.685,373.8 327.869,373.625 327.933,373.8 327.993,373.8 328.057,373.8 328.116,373.8 328.304,371.473 328.364,372.455 328.428,373.49 328.488,371.34 328.552,373.8 328.74,373.8 328.8,373.8 328.864,373.642 328.924,372.612 329.172,373.8 329.236,372.987 329.296,372.768 329.36,373.8 329.608,373.8 329.667,373.17 329.731,373.8 329.791,373.8 329.855,373.8 330.039,371.786 330.103,373.177 330.163,373.129 330.227,373.377 330.287,373.8 330.535,373.8 330.599,373.8 330.659,373.8 330.723,373.8 330.906,373.075 330.97,370.108 331.03,373.8 331.094,365.706 331.154,359.475 331.342,365.671 331.406,373.8 331.466,372.332 331.53,372.932 331.59,371.44 331.778,370.506 331.838,370.132 331.902,373.8 331.962,368.292 332.026,373.8 332.274,373.8 332.333,367.771 332.397,370.542 332.457,372.229 332.645,373.8 332.705,371.922 332.769,373.8 332.829,370.167 332.893,373.8 333.077,373.8 333.141,370.129 333.201,373.8 333.265,372.08 333.325,372.613 333.513,372.576 333.572,372.837 333.636,373.8 333.696,373.8 333.76,373.8 333.948,373.8 334.008,373.8 334.072,373.8 334.132,371.886 334.196,373.782 334.38,373.541 334.444,372.225 334.504,373.8 334.568,373.8 334.628,372.152 334.816,372.296 334.875,372.592 334.94,373.8 334.999,373.8 335.247,373.8 335.311,372.346 335.371,373.079 335.435,373.8 335.495,373.703 335.683,373.8 335.743,373.8 335.807,372.948 335.867,373.8 335.931,371.098 336.115,373.759 336.179,373.8 336.238,373.8 336.302,373.8 336.362,370.296 336.55,373.8 336.614,373.8 336.674,373.8 336.738,373.8 336.798,373.8 336.986,373.8 337.046,373.8 337.11,373.8 337.17,373.8 337.234,372.873 337.418,373.8 337.482,371.56 337.542,373.8 337.606,373.8 337.665,373.8 337.853,373.8 337.913,369.944 337.977,373.34 338.037,359.851 338.101,342.891 338.285,370.221 338.349,373.8 338.409,373.8 338.473,355.265 338.533,370.742 338.781,373.8 338.845,373.8 338.904,370.839 338.969,359.131 339.152,373.8 339.216,373.8 339.28,373.8 339.34,357.505 339.404,373.8 339.588,371.562 339.652,373.8 339.712,370.508 339.776,373.126 339.836,372.507 340.024,372.588 340.084,373.8 340.148,373.8 340.208,373.8 340.272,369.233 340.455,373.8 340.519,373.8 340.579,370.633 340.643,371.341 340.703,365.04 340.951,359.839 341.015,373.8 341.075,373.8 341.139,368.437 341.323,373.8 341.387,373.8 341.447,372.167 341.511,373.8 341.57,373.8 341.758,373.408 341.818,373.8 341.882,371.562 341.942,373.8 342.006,368.778 342.194,372.848 342.254,373.8 342.318,371.959 342.378,373.8 342.442,373.8 342.626,364.067 342.69,371.385 342.75,373.547 342.814,369.135 342.874,373.8 343.062,373.507 343.121,373.8 343.185,361.684 343.245,371.243 343.309,371.582 343.493,371.452 343.557,373.8 343.617,372.133 343.681,362.484 343.741,372.437 343.929,373.8 343.989,373.8 344.053,373.8 344.113,368.313 344.177,373.8 344.36,371.698 344.424,372.763 344.484,357.74 344.548,373.052 344.608,373.8 344.86,371.808 344.92,372.849 344.984,373.8 345.044,373.598 345.232,373.8 345.292,373.8 345.356,373.8 345.416,373.8 345.48,373.8 345.663,373.8 345.728,373.8 345.787,373.68 345.851,371.342 345.911,373.8 346.099,373.8 346.159,373.8 346.223,367.499 346.283,368.678 346.347,370.569 346.531,373.273 346.595,367.787 346.655,373.8 346.719,370.642 346.779,373.741 346.967,373.8 347.026,373.8 347.09,371.291 347.15,372.725 347.214,373.8 347.402,373.8 347.462,364.121 347.526,373.592 347.586,373.8 347.65,373.8 347.834,373.8 347.898,372.702 347.958,372.246 348.022,373.8 348.082,373.8 348.27,373.8 348.329,371.334 348.394,373.8 348.453,373.8 348.517,372.013 348.701,373.222 348.765,373.8 348.825,373.8 348.889,370.086 348.949,372.761 349.137,373.8 349.197,367.908 349.261,372.441 349.321,373.8 349.385,373.8 349.568,370.863 349.633,369.253 349.692,371.604 349.816,372.94 350.004,367.306 350.068,373.8 350.128,373.8 350.192,373.8 350.252,372.247 350.44,373.117 350.5,372.36 350.564,373.8 350.624,372.359 350.688,373.298 350.872,372.326 350.936,373.8 350.995,373.8 351.06,373.8 351.119,372.85 351.307,373.8 351.367,373.8 351.431,373.793 351.491,373.693 351.739,373.043 351.803,373.762 351.863,373.366 351.927,373.704 351.987,373.8 352.175,373.8 352.234,373.8 352.299,373.8 352.358,373.8 352.422,371.942 352.606,373.8 352.67,372.013 352.734,373.343 352.794,372.982 352.858,373.8 353.106,372.903 353.166,372.527 353.23,371.63 353.29,372.661 353.478,373.8 353.538,373.8 353.602,373.12 353.661,373.345 353.726,373.8 353.909,371.113 353.973,373.8 354.033,373.8 354.097,373.483 354.157,371.044 354.345,373.8 354.405,373.302 354.469,373.8 354.529,371.133 354.593,373.075 354.777,373.38 354.841,373.8 354.901,373.8 354.965,373.235 355.024,373.8 355.272,368.401 355.336,371.762 355.4,371.972 355.46,373.8 355.648,373.8 355.708,372.893 355.772,372.917 355.832,371.083 355.896,373.8 356.08,373.208 356.144,373.8 356.204,373.204 356.268,373.8 356.328,372.515 356.516,366.648 356.575,365.469 356.639,373.8 356.699,372.35 356.763,373.8 356.947,372.724 357.011,373.8 357.071,373.8 357.135,373.8 357.195,373.353 357.383,373.778 357.443,373.8 357.507,373.8 357.567,372.96 357.631,373.8 357.814,373.413 357.878,373.056 357.938,373.8 358.002,368.216 358.062,373.663 358.25,373.317 358.314,369.947 358.374,373.8 358.438,373.565 358.498,373.8 358.686,371.417 358.746,372.53 358.81,373.8 358.87,372.686 359.117,373.061 359.182,372.548 359.241,373.8 359.305,373.232 359.365,373.8 359.553,372.183 359.613,373.349 359.677,373.8 359.737,373.8 359.801,373.588 359.985,372.934 360.049,373.338 360.109,373.749 360.173,371.035 360.233,372.127 360.421,373.556 360.48,373.8 360.544,373.8 360.604,372.304 360.668,373.8 360.856,361.603 360.916,373.8 360.98,372.249 361.04,372.649 361.104,373.8 361.352,370.423 361.412,373.8 361.476,373.228 361.536,369.995 361.724,371.899 361.783,373.8 361.848,373.8 361.907,373.8 361.971,373.8 362.155,373.8 362.219,371.959 362.279,373.8 362.343,373.8 362.403,368.692 362.591,373.8 362.651,373.8 362.715,373.8 362.775,359.322 362.839,371.725 363.022,373.8 363.087,373.645 363.146,372.017 363.21,373.462 363.27,373.351 363.522,373.8 363.582,373.8 363.646,371.669 363.706,373.8 363.894,372.706 363.954,371.77 364.018,373.8 364.078,371.155 364.142,370.036 364.326,367.215 364.39,372.914 364.449,373.8 364.514,373.8 364.573,371.722 364.761,372.874 364.821,373.8 364.885,373.149 364.945,373.75 365.009,373.706 365.193,350.389 365.257,371.204 365.317,373.8 365.381,373.8 365.441,373.8 365.629,373.8 365.688,287.185 365.753,280.355 365.812,329.598 365.876,353.352 366.06,373.8 366.124,361.267 366.188,373.8 366.248,373.8 366.312,341.349 366.496,359.972 366.56,373.8 366.62,373.398 366.684,344.316 366.744,373.8 366.932,371.094 366.992,359.957 367.056,370.733 367.115,360.415 367.18,373.8 367.427,366.19 367.487,373.8 367.551,358.029 367.611,372.604 367.799,373.8 367.859,372.389 367.923,371.856 367.983,367.806 368.047,371.862 368.231,373.8 368.295,370.714 368.354,373.8 368.419,336.301 368.478,358.275 368.666,364.112 368.726,373.8 368.79,366.155 368.854,373.8 368.914,345.023 369.102,373.8 369.162,373.8 369.226,373.175 369.286,372.218 369.35,372.536 369.534,373.8 369.598,371.512 369.658,366.934 369.722,373.8 369.781,370.826 369.969,368.837 370.029,372.161 370.093,371.152 370.153,367.425 370.217,373.8 370.401,373.8 370.465,373.8 370.525,357.744 370.589,365.024 370.649,366.925 370.837,373.8 370.897,358.67 370.961,345.686 371.021,371.446 371.085,373.495 371.268,373.8 371.332,373.8 371.392,373.8 371.456,373.8 371.52,373.8 371.704,371.352 371.768,367.059 371.828,362.546 371.892,373.8 371.952,366.225 372.14,373.8 372.2,373.8 372.264,366.501 372.388,373.8 372.571,373.8 372.635,372.449 372.695,373.8 372.759,373.8 372.819,372.829 373.007,371.588 373.067,373.8 373.131,373.8 373.191,366.336 373.255,371.523 373.439,369.38 373.503,373.8 373.563,373.8 373.627,372.679 373.687,373.8 373.875,373.8 373.934,373.8 373.998,372.376 374.058,373.8 374.122,372.519 374.37,373.604 374.434,373.8 374.494,373.8 374.558,372.447 374.806,373.8 374.866,372.997 374.93,373.8 374.99,373.372 375.178,373.467 375.237,368.721 375.302,373.8 375.361,371.796 375.425,367.737 375.673,373.8 375.733,371.545 375.797,372.678 375.857,373.8 376.045,373.8 376.105,373.8 376.169,373.8 376.229,373.452 376.293,373.414 376.476,372.135 376.541,373.8 376.6,373.123 376.664,373.696 376.724,371.951 376.912,369.625 376.976,373.8 377.036,373.8 377.1,372.809 377.16,368.877 377.348,373.8 377.408,373.8 377.472,372.736 377.532,371.088 377.596,371.879 377.844,373.232 377.903,373.269 377.968,373.8 378.027,372.589 378.215,372.613 378.275,370.853 378.339,373.8 378.399,371.344 378.463,371.628 378.647,373.8 378.711,373.8 378.771,373.697 378.835,371.449 378.895,373.8 379.083,371.624 379.142,373.8 379.207,373.8 379.266,372.665 379.33,373.8 379.514,373.657 379.578,372.504 379.642,373.8 379.702,372.486 379.766,373.8 379.95,373.8 380.014,373.8 380.074,372.684 380.138,373.8 380.198,373.8 380.386,373.8 380.446,373.8 380.51,370.685 380.569,373.8 380.817,373.8 380.881,373.8 380.941,373.8 381.005,373.8 381.065,373.8 381.253,370.588 381.313,373.8 381.377,370.103 381.437,373.8 381.501,373.8 381.685,365.829 381.749,373.8 381.808,373.8 381.873,373.51 381.932,373.125 382.12,372.75 382.18,373.8 382.244,371.887 382.308,372.765 382.368,373.8 382.556,368.39 382.616,373.8 382.68,369.697 382.74,369.51 382.804,370.703 382.988,373.8 383.052,372.473 383.112,369.127 383.176,369.386 383.235,365.447 383.423,369.99 383.483,373.8 383.547,373.8 383.607,368.23 383.671,372.512 383.919,373.8 383.979,373.8 384.043,373.8 384.103,373.8 384.291,373.8 384.351,372.927 384.415,373.8 384.474,373.8 384.539,373.8 384.722,369.325 384.786,371.602 384.846,373.8 384.91,372.517 384.974,370.318 385.158,366.329 385.222,373.651 385.282,373.8 385.346,373.8 385.406,370.61 385.594,373.8 385.654,373.8 385.718,373.8 385.778,373.8 385.842,370.487 386.025,373.8 386.089,373.8 386.213,373.8 386.273,372.853 386.461,373.8 386.521,373.8 386.585,373.8 386.645,373.8 386.709,373.8 386.893,373.8 386.957,373.8 387.017,372.67 387.081,373.8 387.141,372.736 387.328,373.8 387.388,373.8 387.452,373.8 387.512,373.8 387.576,373.45 387.764,371.467 387.824,371.702 387.888,373.8 387.948,373.8 388.012,370.114 388.196,373.8 388.26,373.266 388.32,372.514 388.384,373.029 388.444,371.386 388.632,372.568 388.691,372.159 388.755,373.477 388.815,373.715 388.879,373.41 389.063,372.781 389.127,371.938 389.187,372.542 389.251,372.349 389.311,373.8 389.499,372.392 389.559,373.131 389.623,373.701 389.683,371.109 389.747,373.8 389.995,373.8 390.054,373.63 390.118,373.8 390.178,373.8 390.366,373.476 390.43,373.64 390.49,373.8 390.554,372.551 390.614,373.8 390.802,373.172 390.862,373.8 390.926,371.397 390.986,373.185 391.05,373.633 391.234,371.695 391.298,373.769 391.357,373.8 391.422,373.8 391.481,373.8 391.669,373.8 391.729,369.644 391.793,373.8 391.853,372.818 391.917,373.8 392.101,372.91 392.165,372.071 392.225,372.938 392.289,371.626 392.349,373.8 392.537,371.288 392.596,373.8 392.661,373.64 392.72,373.007 392.784,373.223 392.968,373.8 393.032,373.8 393.096,369.075 393.156,364.996 393.22,371.705 393.528,373.214 393.592,373.8 393.652,373.76 393.84,373.712 393.9,373.8 393.964,373.8 394.023,373.8 394.088,372.996 394.271,373.8 394.335,368.211 394.395,371.538 394.459,373.8 394.519,373.8 394.707,373.8 394.767,373.277 394.831,373.8 394.955,373.582 395.139,373.061 395.203,373.8 395.262,373.8 395.327,367.228 395.386,371.586 395.574,371.17 395.634,372.444 395.698,373.8 395.762,372.698 395.822,370.743 396.01,373.8 396.07,373.8 396.134,373.8 396.194,373.417 396.258,371.923 396.442,373.8 396.506,373.8 396.566,373.8 396.63,373.8 396.689,373.8 396.877,373.8 397.001,373.8 397.061,373.527 397.125,373.8 397.309,373.8 397.433,373.8 397.497,373.626 397.557,372.761 397.745,373.8 397.805,372.975 397.869,372.937 397.928,373.136 397.993,373.675 398.176,372.947 398.24,371.385 398.3,373.8 398.364,372.025 398.428,373.755 398.676,373.409 398.736,373.587 398.8,373.8 398.86,373.8 399.048,373.8 399.108,373.8 399.172,373.223 399.232,371.591 399.296,373.588 399.479,373.122 399.543,373.663 399.603,370.316 399.667,371.82 399.727,373.8 399.915,373.8 399.975,373.379 400.039,373.8 400.099,371.018 400.163,373.8 400.411,373.8 400.471,373.8 400.535,373.8 400.594,373.8 400.782,373.8 400.842,371.387 400.906,371.695 400.966,373.8 401.03,373.8 401.218,373.8 401.278,373.8 401.342,373.217 401.402,372.333 401.466,373.076 401.65,373.8 401.714,373.8 401.774,373.569 401.838,373.8 401.898,373.8 402.086,364.981 402.145,370.423 402.209,373.8 402.269,372.065 402.333,373.8 402.517,373.8 402.581,373.617 402.641,370.765 402.705,372.666 402.953,372.872 403.013,372.897 403.077,373.8 403.137,373.8 403.201,362.534 403.384,373.426 403.448,373.8 403.508,373.8 403.572,373.8 403.632,372.339 403.82,370.981 403.884,373.8 403.944,373.8 404.008,372.475 404.068,373.8 404.256,371.072 404.316,373.8 404.38,373.711 404.44,373.8 404.504,373.8 404.688,373.674 404.752,373.388 404.811,373.057 404.875,373.8 404.935,373.8 405.123,373.8 405.183,373.8 405.247,373.8 405.307,373.278 405.371,373.674 405.555,373.492 405.619,373.8 405.679,373.077 405.743,373.8 405.803,372.914 405.991,372.904 406.05,372.611 406.115,373.8 406.174,373.8 406.238,373.382 406.486,371.701 406.55,373.495 406.61,373.8 406.674,373.8 406.858,371.123 406.922,373.8 406.982,373.8 407.046,373.8 407.106,373.8 407.294,372.09 407.354,373.8 407.418,371.202 407.477,373.057 407.542,372.039 407.725,373.8 407.789,373.8 407.849,372.629 407.913,373.8 407.973,367.328 408.161,373.8 408.221,371.185 408.285,370.823 408.345,373.8 408.409,373.8 408.593,373.8 408.657,373.8 408.716,372.106 408.84,372.678 409.028,372.221 409.088,372.691 409.152,371.335 409.216,372.244 409.276,373.103 409.464,373.518 409.524,373.8 409.588,373.304 409.648,373.8 409.712,373.229 409.896,373.591 409.96,373.8 410.02,373.658 410.084,373.8 410.143,371.562 410.331,373.394 410.391,372.968 410.455,372.766 410.515,373.8 410.579,373.8 410.763,373.8 410.827,373.8 410.887,373.8 410.951,373.8 411.011,373.8 411.199,371.411 411.259,373.505 411.323,371.911 411.382,373.8 411.447,373.045 411.63,373.096 411.694,373.8 411.754,373.313 411.818,373.8 411.882,373.8 412.066,372.993 412.13,370.833 412.19,373.496 412.254,373.8 412.314,372.189 412.562,373.8 412.626,373.8 412.686,372.936 412.75,373.454 412.933,373.607 412.997,371.696 413.057,373.8 413.121,373.8 413.181,373.166 413.369,371.064 413.429,373.8 413.493,373.8 413.553,372.62 413.617,373.677 413.801,373.8 413.865,373.8 413.925,373.081 413.989,373.8 414.048,373.8 414.236,372.623 414.296,373.663 414.36,373.695 414.42,365.21 414.484,373.066 414.672,373.8 414.732,373.8 414.796,373.8 414.856,373.8 414.92,373.8 415.104,371.463 415.168,372.462 415.228,373.8 415.292,372.5 415.352,372.993 415.54,373.796 415.599,373.528 415.663,373.086 415.723,372.866 415.787,373.8 415.971,373.8 416.035,373.414 416.095,370.538 416.159,373.8 416.219,373.8 416.407,373.8 416.467,373.737 416.531,373.311 416.591,373.8 416.655,373.153 416.838,372.407 416.902,372.835 416.962,373.8 417.026,373.8 417.086,373.517 417.274,372.843 417.338,373.8 417.398,371.202 417.462,372.401 417.522,373.8 417.71,373.455 417.77,373.8 417.834,373.8 417.958,373.8 418.141,373.721 418.206,373.8 418.265,373.695 418.329,372.777 418.389,369.524 418.577,373.412 418.637,373.8 418.701,373.598 418.761,373.329 418.825,373.8 419.009,373.8 419.073,373.8 419.133,373.8 419.197,372.5 419.257,373.8 419.445,373.603 419.504,373.791 419.628,373.783 419.692,373.614 419.88,373.8 419.94,373.8 420.064,373.8 420.128,373.8 420.312,372.573 420.376,373.8 420.436,372.867 420.5,373.8 420.56,373.8 420.748,373.8 420.807,373.402 420.872,373.8 420.931,373.8 420.995,373.38 421.243,372.231 421.303,373.8 421.367,373.8 421.427,373.8 421.615,373.8 421.675,372.616 421.739,373.8 421.799,373.8 421.863,373.8 422.047,373.8 422.111,371.43 422.17,367.028 422.234,373.8 422.294,373.8 422.482,373.8 422.546,373.8 422.606,373.419 422.67,373.09 422.73,372.739 422.978,373.753 423.042,373.8 423.102,373.292 423.166,373.8 423.35,373.8 423.414,372.488 423.474,373.604 423.538,372.484 423.597,373.8 423.785,367.492 423.845,373.8 423.909,372.471 423.969,373.8 424.033,373.109 424.217,373.662 424.281,373.47 424.341,372.142 424.405,373.432 424.465,373.402 424.653,373.8 424.713,373.8 424.777,373.8 424.836,373.8 424.901,372.793 425.084,372.341 425.148,371.039 425.212,373.8 425.272,373.8 425.336,373.8 425.52,373.8 425.584,372.533 425.644,373.8 425.708,373.8 425.768,373.8 425.956,373.8 426.016,373.8 426.08,373.8 426.14,373.8 426.204,368.92 426.387,373.8 426.451,373.8 426.511,370.489 426.575,372.437 426.823,373.8 426.883,373.602 426.947,373.371 427.007,373.8 427.071,373.8 427.255,373.8 427.319,373.519 427.379,371.291 427.443,373.8 427.502,373.8 427.69,373.8 427.75,373.8 427.814,366.698 427.874,373.576 427.938,373.219 428.126,373.8 428.186,373.737 428.25,373.8 428.31,373.8 428.374,373.8 428.558,373.212 428.622,373.8 428.682,373.8 428.746,373.8 428.806,373.358 429.053,372.678 429.117,373.8 429.177,373.557 429.241,373.8 429.425,373.8 429.489,372.944 429.549,373.234 429.613,373.8 429.673,373.8 429.861,373.754 429.921,373.8 429.985,373.008 430.045,373.8 430.109,373.8 430.292,373.178 430.356,373.8 430.416,373.378 430.48,373.577 430.54,373.5 430.728,373.224 430.792,373.8 430.852,372.988 430.916,373.8 430.976,373.738 431.164,373.683 431.224,373.8 431.288,373.042 431.348,373.441 431.595,373.632 431.66,373.428 431.719,373.8 431.783,371.222 431.843,373.8 432.031,373.336 432.091,373.8 432.155,372.989 432.215,372.061 432.279,373.8 432.463,373.8 432.527,373.7 432.587,373.505 432.651,373.8 432.711,372.494 432.899,373.8 432.958,373.8 433.022,372.655 433.082,373.8 433.146,371.883 433.334,373.8 433.394,370.22 433.458,373.8 433.518,372.691 433.582,373.543 433.766,373.8 433.83,373.196 433.89,373.8 433.954,373.8 434.014,371.768 434.202,373.625 434.261,373.427 434.326,373.38 434.385,373.8 434.449,373.573 434.633,373.709 434.697,373.8 434.757,373.484 434.821,373.8 434.881,373.779 435.129,373.139 435.193,372.892 435.253,373.8 435.317,373.8 435.5,372.543 435.565,373.8 435.624,373.303 435.688,373.704 435.748,373.21 435.936,373.8 436,373.8 436.06,369.083 436.124,373.444 436.184,373.771 436.372,373.8 436.432,372.955 436.496,373.8 436.556,373.8 436.62,371.561 436.804,369.313 436.868,373.8 436.927,373.8 436.992,373.504 437.051,368.978 437.239,373.8 437.299,373.076 437.363,373.8 437.423,373.8 437.487,370.83 437.671,373.8 437.735,370.487 437.795,373.8 437.859,359.222 437.919,366.874 438.107,367.894 438.167,373.012 438.231,373.666 438.29,373.8 438.354,373.8 438.538,372.902 438.602,373.8 438.666,373.8 438.726,373.8 438.79,373.575 438.974,373.214 439.038,373.553 439.098,371.377 439.162,373.8 439.222,372.21 439.41,373.746 439.47,373.622 439.534,373.137 439.594,373.8 439.658,373.8 439.841,373.8 439.905,373.8 439.965,371.661 440.029,373.8 440.089,373.8 440.277,373.8 440.337,373.8 440.401,373.629 440.525,373.8 440.709,373.8 440.773,373.8 440.833,373.614 440.897,373.588 440.956,373.8 441.144,373.661 441.204,373.8 441.268,373.8 441.332,373.8 441.392,372.564 441.58,370.529 441.64,373.8 441.704,372.315 441.764,373.8 441.828,372.57 442.012,372.858 442.076,373.755 442.136,373.657 442.26,373.8 442.448,373.8 442.507,373.338 442.571,373.8 442.695,373.8 442.879,373.8 442.943,373.8 443.003,373.8 443.067,373.8 443.127,372.508 443.315,373.8 443.375,373.8 443.439,373.8 443.499,369.903 443.563,373.8 443.81,370.443 443.87,365.576 443.934,373.8 443.994,373.8 444.182,373.8 444.246,370.51 444.306,372.351 444.37,370.178 444.43,372.286 444.618,373.8 444.678,373.136 444.742,370.327 444.802,373.8 444.866,373.3 445.049,373.8 445.114,373.8 445.173,373.745 445.237,373.273 445.297,373.8 445.545,373.8 445.609,372.943 445.669,373.242 445.733,373.8 445.917,373.8 445.981,373.601 446.041,373.8 446.105,372.977 446.165,373.8 446.353,373.8 446.412,373.46 446.476,373.8 446.536,373.635 446.6,373.8 446.788,373.415 446.848,373.8 446.912,372.482 446.972,373.8 447.036,373.8 447.22,373.8 447.284,372.827 447.344,373.8 447.408,373.8 447.468,373.8 447.656,373.8 447.715,373.8 447.78,373.8 447.839,370.461 447.903,370.993 448.087,373.8 448.151,371.987 448.211,373.8 448.275,373.8 448.523,373.8 448.583,373.8 448.647,373.8 448.707,372.268 448.771,373.667 448.954,373.8 449.019,373.663 449.078,373.8 449.142,373.597 449.202,373.654 449.39,373.8 449.454,372.576 449.514,373.8 449.578,373.179 449.638,373.381 449.826,373.8 449.886,372.533 449.95,371.755 450.01,373.763 450.074,373.8 450.258,373.8 450.322,373.8 450.381,368.259 450.446,373.8 450.505,371.698 450.693,373.131 450.753,373.215 450.817,372.205 450.877,373.411 450.941,372.917 451.125,373.738 451.189,373.8 451.249,373.8 451.313,373.8 451.373,372.784 451.62,373.8 451.685,373.663 451.744,373.8 451.808,373.8 451.992,372.909 452.056,373.8 452.12,373.665 452.18,372.781 452.244,373.8 452.428,373.229 452.492,373.07 452.552,373.8 452.616,373.8 452.676,373.8 452.864,371.816 452.924,371.898 452.988,373.8 453.047,372.34 453.112,373.8 453.295,369.233 453.359,373.254 453.419,373.457 453.483,373.344 453.543,373.621 453.731,373.8 453.791,373.355 453.855,373.8 453.915,373.8 454.163,366.637 454.227,370.039 454.286,373.384 454.351,370.737 454.41,373.8 454.598,373.8 454.658,373.769 454.722,373.119 454.786,372.82 454.846,373.8 455.034,373.212 455.094,373.8 455.158,373.8 455.218,373.797 455.282,373.8 455.466,373.8 455.53,373.8 455.59,373.8 455.654,373.8 455.714,373.8 455.901,372.611 455.961,373.8 456.025,373.8 456.085,373.8 456.149,373.8 456.333,373.306 456.397,373.8 456.457,368.318 456.521,372.585 456.581,373.524 456.769,373.8 456.829,372.858 456.893,373.8 456.953,366.752 457.017,367.789 457.2,48.3586 457.264,373.8 457.324,345.43 457.388,373.8 457.452,373.8 457.636,369.379 457.7,358.757 457.76,373.8 457.824,373.8 457.884,367.626 458.132,373.8 458.196,373.8 458.256,373.8 458.32,369.304 458.503,373.8 458.568,372.658 458.627,373.8 458.691,367.499 458.751,373.8 458.939,373.8 458.999,365.054 459.063,370.906 459.123,373.8 459.187,373.8 459.371,373.8 459.435,373.8 459.495,373.8 459.559,365.525 459.619,365.676 459.807,373.8 459.866,373.8 459.93,373.8 459.99,373.8 460.054,372.737 460.242,373.8 460.302,372.534 460.366,372.76 460.426,373.8 460.49,372.695 460.674,373.8 460.738,373.8 460.798,373.775 460.862,373.8 460.922,373.8 461.11,373.8 461.169,372.854 461.234,371.955 461.293,372.706 461.357,373.8 461.541,373.8 461.605,371.578 461.665,372.95 461.729,373.8 461.789,373.8 461.977,372.449 462.037,371.711 462.101,372.897 462.161,371.425 462.225,373.8 462.408,373.8 462.473,372.121 462.532,372.22 462.596,373.8 462.656,373.8 462.844,373.8 462.908,372.477 462.968,373.609 463.092,373.393 463.28,373.598 463.34,373.8 463.404,373.312 463.464,373.8 463.528,373.8 463.712,371.357 463.776,372.588 463.835,370.371 463.9,372.085 463.959,373.8 464.147,370.835 464.207,373.8 464.271,373.8 464.331,373.668 464.395,373.8 464.579,369.402 464.643,371.619 464.703,373.8 464.767,373.8 465.015,373.142 465.074,373.8 465.139,373.8 465.198,373.8 465.446,368.607 465.51,372.668 465.574,368.188 465.634,347.443 465.698,365.671 465.882,369.475 465.946,373.8 466.006,369.657 466.07,373.8 466.13,373.8 466.378,373.8 466.442,373.8 466.501,372.367 466.566,369.762 466.749,372.096 466.813,364.878 466.873,373.378 466.937,356.55 466.997,373.8 467.185,362.771 467.245,373.8 467.309,373.8 467.369,367.486 467.433,369.542 467.617,373.8 467.681,366.669 467.74,365.432 467.805,373.8 467.864,372.764 468.112,371.957 468.176,373.8 468.24,373.8 468.3,373.8 468.488,373.8 468.548,373.8 468.612,372.638 468.672,367.697 468.736,373.8 468.92,373.8 468.984,372.956 469.044,373.203 469.108,373.181 469.167,372.366 469.355,373.467 469.415,370.267 469.479,371.38 469.539,371.848 469.603,373.8 469.787,373.8 469.851,373.8 469.911,373.286 469.975,373.8 470.035,373.8 470.223,373.458 470.283,373.8 470.347,373.8 470.406,373.448 470.654,373.589 470.718,373.8 470.778,373.8 470.842,373.055 470.906,373.8 471.09,373.27 471.154,373.8 471.214,373.647 471.278,373.523 471.338,373.8 471.526,373.8 471.586,372.895 471.65,373.8 471.71,372.483 471.774,373.8 471.957,371.846 472.021,373.8 472.081,373.164 472.145,371.806 472.205,373.213 472.393,373.547 472.453,373.8 472.517,373.364 472.577,373.664 472.641,373.8 472.825,373.8 472.889,373.8 472.949,373.8 473.013,373.604 473.073,369.996 473.26,373.53 473.32,373.8 473.384,373.745 473.444,372.373 473.508,373.592 473.696,373.538 473.756,373.8 473.82,373.285 473.88,373.228 473.944,373.8"/>
</g>
</svg>
