<?xml version="1.0" encoding="UTF-8" standalone="no"?>
<svg xmlns="http://www.w3.org/2000/svg"
     xmlns:xlink="http://www.w3.org/1999/xlink"
     width="576px" height="432px" viewBox="0 0 576 432">
<title>glps_renderer figure</title>
<desc>
Creator: GL2PS 1.3.9, (C) 1999-2015 C. Geuzaine
For: Octave
CreationDate: Wed May  3 08:01:26 2017
</desc>
<defs>
</defs>
<g shape-rendering="crispEdges">
<polygon fill="#ffffff" points="74.8828,384.48 521.284,384.48 74.8828,32.4"/>
<polygon fill="#ffffff" points="521.284,384.48 521.284,32.4 74.8828,32.4"/>
<polyline fill="none" stroke="#000000" stroke-width="0.5" stroke-dasharray="16,0" points="74.8828,384.48 521.284,384.48"/>
<polyline fill="none" stroke="#000000" stroke-width="0.5" stroke-dasharray="16,0" points="74.8828,32.4 521.284,32.4"/>
<polyline fill="none" stroke="#000000" stroke-width="0.5" stroke-dasharray="16,0" points="74.8828,384.48 74.8828,32.4"/>
<polyline fill="none" stroke="#000000" stroke-width="0.5" stroke-dasharray="16,0" points="521.284,384.48 521.284,32.4"/>
<polyline fill="none" stroke="#000000" stroke-width="0.5" stroke-dasharray="0,3,1,3,1,3,1,3,1,0" points="105.877,384.48 105.877,32.4"/>
<polyline fill="none" stroke="#000000" stroke-width="0.5" stroke-dasharray="0,3,1,3,1,3,1,3,1,0" points="222.337,384.48 222.337,32.4"/>
<polyline fill="none" stroke="#000000" stroke-width="0.5" stroke-dasharray="0,3,1,3,1,3,1,3,1,0" points="338.801,384.48 338.801,32.4"/>
<polyline fill="none" stroke="#000000" stroke-width="0.5" stroke-dasharray="0,3,1,3,1,3,1,3,1,0" points="455.265,384.48 455.265,32.4"/>
<polyline fill="none" stroke="#000000" stroke-width="0.5" stroke-dasharray="16,0" points="105.877,384.48 105.877,380.015"/>
<polyline fill="none" stroke="#000000" stroke-width="0.5" stroke-dasharray="16,0" points="105.877,32.4 105.877,36.865"/>
<polyline fill="none" stroke="#000000" stroke-width="0.5" stroke-dasharray="16,0" points="222.337,384.48 222.337,380.015"/>
<polyline fill="none" stroke="#000000" stroke-width="0.5" stroke-dasharray="16,0" points="222.337,32.4 222.337,36.865"/>
<polyline fill="none" stroke="#000000" stroke-width="0.5" stroke-dasharray="16,0" points="338.801,384.48 338.801,380.015"/>
<polyline fill="none" stroke="#000000" stroke-width="0.5" stroke-dasharray="16,0" points="338.801,32.4 338.801,36.865"/>
<polyline fill="none" stroke="#000000" stroke-width="0.5" stroke-dasharray="16,0" points="455.265,384.48 455.265,380.015"/>
<polyline fill="none" stroke="#000000" stroke-width="0.5" stroke-dasharray="16,0" points="455.265,32.4 455.265,36.865"/>
<text fill="#000000" x="105.872" y="389.481" font-size="10" text-anchor="middle" baseline-shift="-10" font-family="Helvetica">2000/01</text>
<text fill="#000000" x="222.336" y="389.481" font-size="10" text-anchor="middle" baseline-shift="-10" font-family="Helvetica">2004/12</text>
<text fill="#000000" x="338.799" y="389.481" font-size="10" text-anchor="middle" baseline-shift="-10" font-family="Helvetica">2009/12</text>
<text fill="#000000" x="455.259" y="389.481" font-size="10" text-anchor="middle" baseline-shift="-10" font-family="Helvetica">2014/12</text>
<polyline fill="none" stroke="#000000" stroke-width="0.5" stroke-dasharray="0,3,1,3,1,3,1,3,1,0" points="74.8828,384.48 521.284,384.48"/>
<polyline fill="none" stroke="#000000" stroke-width="0.5" stroke-dasharray="0,3,1,3,1,3,1,3,1,0" points="74.8828,314.064 521.284,314.064"/>
<polyline fill="none" stroke="#000000" stroke-width="0.5" stroke-dasharray="0,3,1,3,1,3,1,3,1,0" points="74.8828,243.648 521.284,243.648"/>
<polyline fill="none" stroke="#000000" stroke-width="0.5" stroke-dasharray="0,3,1,3,1,3,1,3,1,0" points="74.8828,173.232 521.284,173.232"/>
<polyline fill="none" stroke="#000000" stroke-width="0.5" stroke-dasharray="0,3,1,3,1,3,1,3,1,0" points="74.8828,102.816 521.284,102.816"/>
<polyline fill="none" stroke="#000000" stroke-width="0.5" stroke-dasharray="0,3,1,3,1,3,1,3,1,0" points="74.8828,32.4 521.284,32.4"/>
<polyline fill="none" stroke="#000000" stroke-width="0.5" stroke-dasharray="16,0" points="74.8828,384.48 79.3521,384.48"/>
<polyline fill="none" stroke="#000000" stroke-width="0.5" stroke-dasharray="16,0" points="521.284,384.48 516.814,384.48"/>
<polyline fill="none" stroke="#000000" stroke-width="0.5" stroke-dasharray="16,0" points="74.8828,314.064 79.3521,314.064"/>
<polyline fill="none" stroke="#000000" stroke-width="0.5" stroke-dasharray="16,0" points="521.284,314.064 516.814,314.064"/>
<polyline fill="none" stroke="#000000" stroke-width="0.5" stroke-dasharray="16,0" points="74.8828,243.648 79.3521,243.648"/>
<polyline fill="none" stroke="#000000" stroke-width="0.5" stroke-dasharray="16,0" points="521.284,243.648 516.814,243.648"/>
<polyline fill="none" stroke="#000000" stroke-width="0.5" stroke-dasharray="16,0" points="74.8828,173.232 79.3521,173.232"/>
<polyline fill="none" stroke="#000000" stroke-width="0.5" stroke-dasharray="16,0" points="521.284,173.232 516.814,173.232"/>
<polyline fill="none" stroke="#000000" stroke-width="0.5" stroke-dasharray="16,0" points="74.8828,102.816 79.3521,102.816"/>
<polyline fill="none" stroke="#000000" stroke-width="0.5" stroke-dasharray="16,0" points="521.284,102.816 516.814,102.816"/>
<polyline fill="none" stroke="#000000" stroke-width="0.5" stroke-dasharray="16,0" points="74.8828,32.4 79.3521,32.4"/>
<polyline fill="none" stroke="#000000" stroke-width="0.5" stroke-dasharray="16,0" points="521.284,32.4 516.814,32.4"/>
<text fill="#000000" x="69.8735" y="384.48" font-size="10" text-anchor="end" baseline-shift="-5" font-family="Helvetica">-10</text>
<text fill="#000000" x="69.8735" y="314.064" font-size="10" text-anchor="end" baseline-shift="-5" font-family="Helvetica">-5</text>
<text fill="#000000" x="69.8735" y="243.648" font-size="10" text-anchor="end" baseline-shift="-5" font-family="Helvetica">0</text>
<text fill="#000000" x="69.8735" y="173.232" font-size="10" text-anchor="end" baseline-shift="-5" font-family="Helvetica">5</text>
<text fill="#000000" x="69.8735" y="102.816" font-size="10" text-anchor="end" baseline-shift="-5" font-family="Helvetica">10</text>
<text fill="#000000" x="69.8735" y="32.4" font-size="10" text-anchor="end" baseline-shift="-5" font-family="Helvetica">15</text>
<polyline fill="none" stroke="#0000ff" stroke-width="0.5" points="106.005,257.877 106.066,298.984 106.132,241.185 106.194,242.152 106.26,207.001 106.449,228.808 106.515,262.214 106.576,250.085 106.642,226.292 106.704,230.074 106.958,252.761 107.024,243.271 107.086,254.251 107.152,248.244 107.341,283.756 107.407,235.442 107.468,249.513 107.534,249.145 107.596,280.849 107.789,209.594 107.851,229.119 107.917,243.318 107.978,228.835 108.044,244.182 108.233,243.47 108.299,227.241 108.36,272.514 108.426,239.444 108.488,280.261 108.681,240.899 108.747,230.879 108.809,258.167 108.875,244.034 108.936,285.198 109.191,241.292 109.257,233.612 109.318,250.974 109.384,263.728 109.573,228.092 109.639,223.329 109.701,231.334 109.767,240.619 109.828,216.284 110.021,262.725 110.083,279.592 110.149,227.236 110.21,209.806 110.276,250.133 110.465,257.883 110.531,265.983 110.593,215.671 110.659,180.155 110.914,251.72 110.975,208.85 111.041,237.646 111.103,219.586 111.168,242.358 111.357,247.387 111.489,242.192 111.551,261.763 111.617,229.128 111.806,237.506 111.872,254.887 111.933,249.956 111.999,231.852 112.061,229.991 112.254,254.098 112.315,248.271 112.381,246.824 112.443,269.484 112.509,328.771 112.698,200.787 112.764,205.06 112.825,257.204 112.891,237.937 113.146,249.561 113.208,197.328 113.273,258.973 113.335,241.009 113.401,255.591 113.59,228.602 113.656,265.328 113.717,273.745 113.783,248.873 113.845,221.031 114.038,252.464 114.1,254.119 114.166,273.482 114.231,218.859 114.293,230.881 114.486,213.933 114.548,231.079 114.614,260.706 114.675,253.781 114.741,274.417 114.93,250.521 114.996,270.393 115.058,218.191 115.124,260.458 115.185,246.71 115.44,199.988 115.506,245.818 115.567,217.142 115.633,216.404 115.822,252.686 115.888,253.47 115.95,230.274 116.016,253.937 116.077,247.575 116.271,253.348 116.332,221.443 116.398,242.537 116.459,236.312 116.525,255.738 116.714,222.762 116.78,252.881 116.842,241.16 116.908,268.837 116.974,253.829 117.163,230.172 117.229,247.136 117.29,238.957 117.356,255.459 117.417,234.51 117.738,265.348 117.8,233.364 117.866,222.033 118.055,246.26 118.121,239.35 118.182,232.839 118.248,241.075 118.31,231.238 118.503,243.191 118.564,258.579 118.63,254.105 118.692,230.642 118.758,257.787 118.947,258.185 119.013,234.78 119.074,259.98 119.14,245.793 119.202,273.059 119.395,232.366 119.457,236.628 119.522,242.483 119.584,230.504 119.65,234.535 119.843,228.434 119.905,240.253 119.971,252.146 120.032,255.902 120.098,233.366 120.287,225.688 120.353,249.618 120.415,247.572 120.48,229.191 120.542,247.211 120.735,236.867 120.797,244.475 120.863,230.466 120.924,241.237 120.99,244.928 121.179,235.809 121.245,247.29 121.307,249.668 121.373,228.573 121.434,241.08 121.689,255.953 121.755,257.131 121.816,233.811 121.882,252.288 122.071,249.153 122.137,251.005 122.199,241.654 122.265,247.808 122.326,257.621 122.52,264.38 122.585,228.675 122.647,252.134 122.713,245.94 122.774,244.328 122.968,252.698 123.029,254.326 123.095,244.754 123.157,211.49 123.223,264.36 123.412,244.374 123.478,253.824 123.539,235.723 123.605,241.656 123.667,271.644 123.86,250.863 123.921,260.178 123.987,267.455 124.049,280.855 124.115,198.316 124.304,244.202 124.37,268.349 124.431,252.659 124.497,195.63 124.559,236.275 124.752,244.354 124.813,241.642 124.879,277.349 124.941,244.742 125.007,228.822 125.2,224.566 125.262,213.484 125.328,252.474 125.389,236.63 125.455,245.562 125.644,240.271 125.71,243.402 125.771,266.363 125.837,253.465 125.899,277.424 126.092,259.032 126.154,210.787 126.22,237.551 126.281,260.488 126.347,247.862 126.536,270.373 126.602,238.779 126.664,270.238 126.791,223.127 126.984,234.734 127.046,257.518 127.112,237.159 127.173,273.43 127.239,244.098 127.428,233.033 127.494,191.256 127.556,270.732 127.622,251.286 127.683,215.165 127.876,231.192 127.938,252.523 128.004,255.426 128.07,263.998 128.131,261.585 128.325,233.073 128.386,262.24 128.452,288.104 128.514,233.452 128.58,210.546 128.834,233.301 128.896,228.884 128.962,238.444 129.023,259.251 129.278,285.502 129.344,175.044 129.406,258.916 129.472,280.709 129.727,238.614 129.788,230.33 129.854,229.149 129.916,252.272 130.17,235.776 130.236,241.601 130.298,224.317 130.364,249.144 130.553,243.459 130.619,226.45 130.68,239.967 130.746,250.363 130.812,246.66 131.001,233.87 131.067,233.926 131.128,252.482 131.194,237.999 131.256,269.017 131.449,238.752 131.511,245.823 131.577,255.729 131.638,252.782 131.704,262.159 131.893,227.132 131.959,256.997 132.021,246.524 132.086,232.339 132.148,270.387 132.403,268.592 132.469,270.81 132.53,247.085 132.596,251.923 132.785,219.952 132.851,247.974 132.913,264.195 132.979,242.796 133.04,235.931 133.233,235.683 133.295,229.639 133.361,235.003 133.488,279.751 133.682,307.305 133.743,223.683 133.809,281.04 133.871,236.04 133.937,271.254 134.125,218.98 134.191,278.366 134.319,250.126 134.38,216.132 134.574,228.434 134.635,208.226 134.701,279.017 134.763,250.883 134.829,230.521 135.083,293.994 135.145,249.234 135.211,185.592 135.272,273.362 135.466,233.513 135.527,206.712 135.593,246.81 135.655,223.642 135.91,249.646 135.976,230.435 136.103,226.442 136.165,256.229 136.358,265.56 136.424,260.682 136.485,221.238 136.551,236.366 136.613,224.072 136.806,247.756 136.868,225.372 136.934,242.981 136.995,264.864 137.061,223.434 137.25,248.091 137.316,249.977 137.377,250.341 137.443,243.659 137.505,255.128 137.698,240.542 137.76,243.828 137.826,204.422 137.887,239.282 137.953,240.002 138.142,221.295 138.208,248.171 138.27,265.915 138.335,239.404 138.397,259.925 138.652,254.768 138.718,265.994 138.779,235.143 138.845,237.728 139.039,236.806 139.1,225.384 139.166,258.904 139.228,235.995 139.293,257.023 139.482,255.578 139.548,241.909 139.61,259.674 139.676,268.791 139.737,250.546 139.931,250.553 139.992,239.226 140.058,231.851 140.12,228.702 140.186,257.825 140.375,251.242 140.44,245.869 140.502,249.377 140.568,226.599 140.629,241.915 140.823,230.323 140.884,246.224 141.012,261.016 141.078,276.592 141.267,234.745 141.333,264.776 141.394,245.151 141.46,210.381 141.521,235.21 141.715,259.504 141.781,229.594 141.842,252.326 141.908,236.263 141.97,248.56 142.163,266.808 142.225,267.233 142.291,221.407 142.352,228.692 142.418,240 142.607,245.191 142.673,236.173 142.734,238.912 142.8,238.238 142.862,251.225 143.055,259.908 143.117,239.162 143.183,268.718 143.244,244.315 143.31,235.662 143.499,242.489 143.565,249.18 143.626,253.544 143.692,239.613 143.754,268.416 143.947,232.758 144.136,250.105 144.202,216.689 144.391,249.555 144.457,264.523 144.519,259.438 144.584,267.962 144.65,237.313 144.905,245.152 144.967,246.298 145.033,275.857 145.094,270.078 145.288,239.724 145.731,313.49 145.797,252.747 145.859,265.915 145.925,287.684 145.986,269.751 146.18,190.141 146.241,231.824 146.307,252.16 146.369,227.961 146.435,214.665 146.624,247.631 146.689,227.737 146.751,216.859 146.817,247.633 146.878,241.924 147.133,250.891 147.199,211.174 147.261,222.905 147.327,251.537 147.52,246.063 147.582,233.888 147.647,270.738 147.709,254.622 147.775,237.809 147.964,222.709 148.03,250.682 148.157,225.237 148.219,237.555 148.412,277.232 148.474,268.192 148.54,243.329 148.601,211.968 148.667,240.015 148.856,224.031 148.922,223.64 148.983,247.706 149.049,240.307 149.111,241.861 149.304,246.139 149.366,218.078 149.432,238.084 149.493,243.648 149.559,248.799 149.748,228.957 149.814,254.086 149.875,250.703 150.003,227.258 150.196,235.238 150.262,253.49 150.324,269.215 150.39,229.703 150.451,244.389 150.645,256.062 150.706,225.579 150.772,211.186 150.833,247.661 150.899,255.085 151.088,266.137 151.154,248.152 151.216,244.268 151.282,266.712 151.343,238.624 151.537,229.375 151.598,233.061 151.664,235.257 151.726,255.014 151.792,236.599 151.98,243.943 152.108,236.053 152.174,234.622 152.235,239.625 152.429,259.42 152.556,236.844 152.618,231.274 152.684,235.586 152.877,253.556 152.938,249.584 153.004,250.715 153.066,242.186 153.132,257.119 153.321,252.552 153.387,233.921 153.448,266.814 153.576,249.531 153.831,253.575 153.896,232.432 153.958,239.111 154.024,242.678 154.213,237.37 154.279,283.7 154.34,227.541 154.406,223.993 154.661,280.07 154.723,250.278 154.789,252.188 154.85,247.931 154.916,223.043 155.105,223.685 155.171,249.473 155.232,230.434 155.298,246.572 155.36,259.109 155.619,268.112 155.681,224.628 155.747,265.011 155.808,232.863 156.001,218.38 156.063,243.813 156.129,243.267 156.19,247.32 156.256,215.043 156.445,216.962 156.511,252.451 156.573,223.349 156.639,250.532 156.7,239.966 156.894,239.095 156.955,247.499 157.021,254.613 157.083,244.747 157.148,228.492 157.337,244.856 157.403,238.606 157.465,266.017 157.531,241.18 157.592,250.121 157.786,264.024 157.847,235.361 157.913,235.409 157.975,240.182 158.229,245.183 158.295,251.06 158.361,258.644 158.423,242.76 158.489,248.094 158.678,240.503 158.744,253.557 158.805,229.686 158.871,273.729 158.933,235.099 159.126,254.004 159.188,211.073 159.253,246.234 159.315,244.987 159.381,243.398 159.57,265.241 159.636,252.946 159.697,253.429 159.763,245.891 159.825,262.757 160.018,257.838 160.08,228.476 160.146,232.394 160.207,247.074 160.273,258.385 160.462,270.697 160.528,248.204 160.589,191.926 160.655,264.759 160.717,266.846 160.91,218.169 160.972,214.541 161.038,252.132 161.099,234.552 161.165,233.668 161.358,262.353 161.42,258.807 161.486,235.871 161.547,230.059 161.613,260.981 161.868,255.614 161.93,252.325 161.996,246.883 162.057,239.791 162.25,279.685 162.312,245.259 162.378,231.28 162.439,272.678 162.505,246.278 162.694,239.583 162.76,268.181 162.822,232.838 162.888,259.682 162.949,246.874 163.143,204.367 163.204,243.254 163.27,267.144 163.332,262.048 163.397,267.857 163.586,238.546 163.652,266.921 163.714,247.129 163.78,219.894 163.841,243.662 164.035,275.841 164.101,273.684 164.162,234.867 164.29,192.848 164.483,260.897 164.544,279.578 164.61,292.385 164.672,232.705 164.738,254.196 164.927,249.683 164.993,269.662 165.054,236.912 165.12,283.757 165.182,303.95 165.375,291.395 165.437,283.775 165.502,163.675 165.564,251.719 165.63,220.713 165.819,170.244 165.885,237.536 165.946,231.347 166.012,288.491 166.074,277.449 166.267,293.775 166.329,201.198 166.395,215.762 166.456,198.178 166.522,238.773 166.715,251.7 166.777,275.433 166.843,188.38 166.904,228.038 166.97,247.419 167.159,211.285 167.225,264.12 167.287,226.417 167.353,223.865 167.414,276.894 167.607,232.734 167.669,264.632 167.735,269.878 167.796,243.832 167.862,247.043 168.117,303.891 168.179,220.423 168.245,266.516 168.306,221.209 168.5,229.462 168.561,234.639 168.627,245.474 168.688,279.627 168.754,240.444 168.943,242.651 169.009,272.129 169.071,250.112 169.137,286.605 169.198,241.179 169.392,263.022 169.458,268.22 169.519,209.346 169.585,218.827 169.646,290.68 169.84,266.211 169.901,190.043 169.967,270.389 170.029,259.97 170.095,276.267 170.284,270.733 170.35,220.56 170.411,282.81 170.477,196.123 170.539,190.717 170.732,233.87 170.793,179.233 170.859,278.072 170.921,212.921 170.987,236.124 171.176,219.727 171.242,244.818 171.303,234.486 171.369,265.839 171.431,220.069 171.624,255.543 171.686,256.233 171.751,230.712 171.879,219.623 172.068,233.322 172.134,233.191 172.2,231.317 172.261,277.547 172.327,256.453 172.516,272.815 172.582,232.792 172.644,244.957 172.709,209.766 172.771,235.263 172.964,258.368 173.026,249.636 173.153,213.365 173.219,248.377 173.408,239.326 173.474,272.874 173.536,205.121 173.663,247.493 173.856,247.278 173.918,265.211 173.984,248.751 174.045,260.353 174.111,235.655 174.3,275.042 174.366,224.299 174.428,242.558 174.494,249.762 174.555,262.439 174.749,211.342 174.81,254.986 174.876,262.236 174.942,252.872 175.003,225.702 175.197,240.711 175.258,251.375 175.386,249.055 175.452,266.485 175.641,238.013 175.707,243.296 175.834,198.101 175.896,244.997 176.089,215.322 176.15,252.956 176.216,264.431 176.278,217.564 176.344,244.134 176.533,245.927 176.599,235.673 176.66,264.281 176.726,248.949 177.108,259.027 177.17,228.974 177.236,285.841 177.425,267.456 177.491,225.421 177.552,233.726 177.618,276.1 177.684,225.803 177.873,237.064 177.939,263.961 178,251.607 178.066,252.558 178.128,258.275 178.321,233.298 178.383,255.422 178.449,261.87 178.51,246.731 178.576,215.029 178.831,217.593 178.893,254.611 178.958,257.48 179.02,223.57 179.213,269.978 179.275,233.838 179.341,262.738 179.402,227.792 179.468,237.036 179.657,254.674 179.723,265.066 179.785,230.67 179.851,256.605 179.912,232.421 180.105,280.398 180.167,255.664 180.233,238.154 180.294,196.125 180.36,242.058 180.554,194.929 180.615,238.581 180.681,231.945 180.743,241.217 180.809,212.464 180.998,293.851 181.063,226.769 181.125,250.798 181.191,246.451 181.252,251.274 181.446,269.34 181.507,226.534 181.573,207.293 181.635,251.15 181.701,239.957 181.89,241.87 181.956,246.115 182.017,263.478 182.083,235.919 182.145,248.731 182.338,216.883 182.399,234.814 182.465,261.147 182.527,222.331 182.782,246.03 182.848,215.497 182.909,232.106 182.975,252.564 183.037,263.629 183.23,218.675 183.296,238.577 183.357,246.628 183.423,244.97 183.485,223.217 183.678,248.608 183.74,231.812 183.806,250.613 183.867,257.839 183.933,224.119 184.122,226.582 184.188,248.185 184.25,248.154 184.315,232.849 184.377,247.178 184.57,278.956 184.632,244.413 184.698,238.528 184.759,230.835 184.825,241.971 185.08,216.254 185.142,240.868 185.208,249.541 185.269,222.687 185.462,239.227 185.524,237.327 185.59,223.071 185.651,238.73 185.717,247.693 185.906,260.876 185.972,231.278 186.038,226.267 186.1,242.053 186.166,258.379 186.354,213.683 186.42,242.91 186.482,246.547 186.548,265.483 186.609,242.106 186.803,264.064 186.864,240.324 186.93,254.025 186.992,228.953 187.058,257.242 187.247,245.337 187.312,232.263 187.374,228.206 187.44,255.103 187.695,217.714 187.756,239.63 187.822,251.636 187.884,262.377 187.95,230.054 188.139,235.32 188.205,248.933 188.266,252.743 188.332,260.28 188.394,228.339 188.587,264.645 188.648,230.53 188.714,243.349 188.78,253.612 188.842,219.749 189.035,246.386 189.097,254.117 189.163,246.298 189.224,239.888 189.29,258.387 189.479,239.889 189.545,268.848 189.606,240.777 189.672,233.173 189.734,238.424 189.927,239.735 189.989,229.757 190.055,253.151 190.116,234.916 190.182,239.819 190.371,230.686 190.437,239.484 190.499,246.686 190.564,239.052 190.626,258.337 190.819,243.223 190.881,238.894 190.947,242.744 191.008,234.48 191.074,236.448 191.329,223.933 191.391,238.188 191.457,241.386 191.522,253.216 191.711,229.463 191.777,255.066 191.839,260.959 191.905,236.284 191.966,241.018 192.16,249.397 192.221,224.133 192.287,248.088 192.349,225.427 192.415,247.976 192.604,262.68 192.669,235.602 192.731,270.703 192.797,251.848 192.858,252.237 193.052,230.5 193.113,258.02 193.179,213.515 193.241,241.064 193.307,230.267 193.496,237.698 193.562,237.738 193.623,251.298 193.689,237.694 193.75,244.028 193.944,233.994 194.005,238.538 194.133,239.888 194.199,258.641 194.392,237.186 194.454,242.22 194.52,264.304 194.581,239.513 194.647,250.627 194.836,241.214 194.902,223.389 194.963,241.9 195.029,245.719 195.091,239.296 195.284,232.62 195.346,251.275 195.412,245.521 195.473,235.784 195.539,249.891 195.728,252.165 195.794,244.711 195.855,227.645 195.921,244.007 195.983,254.843 196.176,253.335 196.238,256.322 196.304,232.12 196.365,255.328 196.431,241.687 196.62,221.406 196.686,240.8 196.748,238.22 196.875,243.981 197.068,228.255 197.134,248.711 197.196,245.908 197.262,236.497 197.323,254.021 197.517,233.772 197.578,256.056 197.644,245.802 197.706,227.544 197.771,239.775 197.96,251.247 198.026,234.461 198.088,242.522 198.154,227.596 198.215,244.696 198.409,238.844 198.47,240.147 198.536,246.194 198.664,241.269 198.853,227.154 198.918,244.308 198.98,243.407 199.107,249.156 199.301,227.554 199.362,242.055 199.428,240.906 199.49,238.257 199.556,256.585 199.876,232.451 199.938,241.781 200.004,234.682 200.259,244.352 200.32,233.028 200.386,247.888 200.448,247.371 200.641,227.14 200.703,257.108 200.769,262.372 200.83,236.937 200.896,247.391 201.085,239.061 201.151,243.015 201.212,255.462 201.278,240.713 201.34,226.212 201.533,247.708 201.595,236.942 201.661,229.495 201.722,250.648 201.788,250.952 202.043,230.253 202.104,249.772 202.17,249.333 202.232,246.45 202.425,247.951 202.487,245.278 202.553,237.554 202.619,241.396 202.68,244.312 202.874,230.609 202.935,251.577 203.001,241.407 203.062,239.323 203.128,240.651 203.317,255.58 203.383,251.613 203.445,264.107 203.511,265.609 203.572,226.549 203.766,264.042 203.827,235.245 203.893,227.097 203.955,245.491 204.021,258.889 204.209,262.183 204.275,244.548 204.337,246.702 204.403,221.32 204.464,243.94 204.658,225.916 204.719,238.276 204.785,245.111 204.847,236.177 204.913,232.658 205.102,233.276 205.167,247.264 205.229,252.396 205.295,245.131 205.55,236.226 205.616,263.014 205.677,245.607 205.743,242.812 205.805,236.741 205.998,242.407 206.06,264.911 206.125,235.598 206.187,222.941 206.253,242.475 206.442,250.232 206.508,239.611 206.569,263.449 206.635,256.505 206.697,251.356 206.89,230.924 206.952,240.79 207.018,240.544 207.079,253.047 207.145,263.06 207.334,258.156 207.4,232.885 207.461,241.053 207.527,245.318 207.589,244.817 207.782,258.598 207.844,233.668 207.91,246.489 207.971,242.42 208.037,237.738 208.23,241.088 208.292,220.593 208.358,241.347 208.419,235.876 208.485,243.46 208.74,242.995 208.802,238.845 208.868,253.648 208.929,235.963 209.123,221.651 209.184,242.229 209.25,257.289 209.312,237.549 209.566,258.272 209.632,234.616 209.694,241.709 209.76,245.451 209.821,240.293 210.015,249.355 210.076,238.338 210.142,231.719 210.204,247.05 210.27,246.639 210.458,244.592 210.524,239.752 210.586,236.921 210.652,258.789 210.713,248.634 210.973,254.817 211.034,241.467 211.1,255.713 211.162,239.173 211.355,241.966 211.417,242.41 211.482,248.278 211.544,249.514 211.61,250.102 211.799,244.249 211.865,234.34 211.926,261.764 211.992,240.382 212.054,257.337 212.247,245.971 212.309,229.61 212.375,242.272 212.436,236.748 212.502,241.896 212.691,237.526 212.757,252.841 212.818,245.327 212.884,266.639 212.946,265.356 213.139,241.664 213.201,226.186 213.267,248.25 213.328,260.094 213.394,241.544 213.583,224.352 213.649,241.262 213.715,226.592 213.776,249.137 213.842,234.489 214.031,247.076 214.097,243.173 214.159,232.744 214.225,243.011 214.286,239.639 214.479,254.201 214.541,237.537 214.607,241.749 214.668,227.593 214.734,248.707 214.989,234.12 215.051,249.791 215.117,241.442 215.178,237.002 215.372,241.982 215.433,240.587 215.499,253.694 215.561,239.769 215.626,237.282 215.815,251.369 215.881,234.816 215.943,263.339 216.009,249.808 216.07,241.464 216.264,251.855 216.325,235.047 216.391,238.089 216.457,244.356 216.519,222.753 216.712,239.398 216.773,244.219 216.839,234.837 216.901,258.013 216.967,254.15 217.156,240.476 217.283,254.41 217.349,256.632 217.411,237.445 217.604,236.423 217.666,257.278 217.731,243.252 217.793,240.207 217.859,257.809 218.048,244.792 218.114,223.837 218.175,225.663 218.241,241.572 218.303,240.952 218.496,243.287 218.558,243.748 218.624,230.789 218.685,221.84 218.751,238.674 218.94,245.158 219.006,243.793 219.067,244.689 219.133,230.329 219.199,231.745 219.388,243.886 219.454,253.521 219.516,236.203 219.582,241.517 219.643,258.938 219.836,235.381 219.898,243.935 219.964,237.308 220.091,242.588 220.28,248.587 220.346,248.388 220.408,223.634 220.474,244.996 220.535,242.891 220.729,244.677 220.79,258.851 220.856,237.154 220.917,236.262 220.983,244.726 221.172,231.056 221.238,237.833 221.3,240.959 221.366,246.665 221.427,252.16 221.621,243.2 221.682,230.88 221.748,238.563 221.81,242.065 222.069,248.673 222.13,233.806 222.196,243.497 222.258,243.323 222.324,245.855 222.513,255.762 222.579,259.897 222.64,248.457 222.706,239.146 222.768,245.974 222.961,239.286 223.022,252.122 223.088,237.72 223.15,256.13 223.216,235.253 223.471,230.724 223.532,257.101 223.598,254.113 223.66,252.313 223.853,248.093 223.915,237.779 223.98,236.65 224.042,243.072 224.108,247.646 224.297,232.081 224.363,234.285 224.424,239.097 224.49,247.596 224.552,228.415 224.745,245.323 224.811,242.582 224.873,255.871 224.938,237.812 225,233.461 225.193,242.562 225.255,239.067 225.321,243.473 225.382,254.722 225.448,242.148 225.703,263.263 225.765,235.241 225.831,232.88 225.892,230.776 226.085,253.073 226.147,235.853 226.213,244.113 226.274,243.183 226.34,229.882 226.529,240.138 226.595,250.677 226.657,257.704 226.723,241.876 226.784,253.746 226.978,236.169 227.039,253.767 227.105,254.946 227.167,240.629 227.232,244.926 227.426,250.697 227.487,257.348 227.553,243.42 227.615,244.273 227.87,239.914 227.936,255.076 227.997,224.456 228.063,244.721 228.125,252.935 228.318,239.643 228.379,237.28 228.445,240.873 228.507,235.252 228.573,255.402 228.762,243.755 228.828,235.979 228.889,260.334 228.955,257.332 229.017,266.976 229.21,239.574 229.271,235.096 229.337,261.846 229.399,216.743 229.465,252.686 229.654,231.707 229.72,255.599 229.781,237.718 229.847,259.57 229.909,227.736 230.102,237.114 230.164,244.509 230.229,227.009 230.295,247.186 230.357,245.896 230.55,234.994 230.612,259.072 230.678,238.224 230.739,258.202 230.805,250.333 230.994,229.49 231.06,234.28 231.122,230.036 231.188,237.248 231.249,245.849 231.442,238.046 231.504,243.188 231.57,247.829 231.631,234.647 231.697,242.355 231.952,251.541 232.014,231.116 232.08,241.646 232.141,252.646 232.334,241.801 232.396,243.613 232.462,246.344 232.523,236.194 232.589,246.724 232.778,240.161 232.844,239.982 232.906,240.47 232.972,238.522 233.038,236.525 233.227,244.493 233.292,246.244 233.354,242.824 233.42,258.835 233.481,254.279 233.675,244.44 233.736,230.861 233.802,245.478 233.864,254.287 233.93,239.187 234.185,231.322 234.246,254.995 234.312,240.399 234.374,227.11 234.567,234.878 234.628,240.66 234.694,242.657 234.756,239.98 234.822,242.454 235.011,250.835 235.077,234.085 235.138,237.202 235.204,253.224 235.266,236.493 235.459,249.024 235.521,240.626 235.586,237.245 235.648,235.541 235.714,254.116 235.907,242.587 235.969,234.025 236.035,242.777 236.096,254.344 236.162,254.091 236.351,247.466 236.417,233.964 236.479,245.8 236.544,234.489 236.606,252.07 236.799,239.739 236.861,260.412 236.927,242.297 236.988,245.288 237.054,242.562 237.243,241.271 237.309,247.746 237.371,252.268 237.437,240.554 237.498,251.744 237.691,234.632 237.753,248.046 237.819,230.032 237.88,242.16 237.946,247.677 238.201,225.782 238.263,240.705 238.329,248.692 238.39,233.009 238.583,244.84 238.649,254.131 238.711,248.369 238.777,243.166 238.838,232.947 239.032,251.52 239.093,254.316 239.159,256.902 239.221,238.317 239.287,242.582 239.476,243.127 239.542,243.567 239.603,241.738 239.669,230.78 239.73,242.685 239.924,245.701 239.985,257.678 240.051,264.748 240.113,249.723 240.179,238.422 240.368,253.551 240.434,246.7 240.495,252.124 240.561,244.437 240.623,231.791 240.816,239.808 240.877,257.418 240.943,223.213 241.005,264.877 241.071,241.545 241.264,220.545 241.326,247.046 241.392,249.368 241.453,258.239 241.519,221.261 241.708,234.535 241.774,248.686 241.835,229.864 241.901,237.886 241.963,243.914 242.156,240.823 242.218,248.574 242.284,241.731 242.345,231.688 242.411,239.809 242.6,244.686 242.666,249.218 242.728,240.889 242.793,230.623 242.855,237.463 243.048,236.39 243.11,237.053 243.176,238.933 243.303,240.713 243.492,255.121 243.558,243.155 243.62,252.478 243.686,226.229 243.747,243.192 243.94,246.724 244.006,242.298 244.068,250.675 244.134,245.441 244.195,239.572 244.389,242.206 244.45,235.959 244.516,237.638 244.578,245.619 244.644,247.198 244.833,252.063 244.898,243.927 244.96,239.662 245.026,237.661 245.087,242.593 245.342,256.797 245.408,242.001 245.47,247.695 245.536,251.043 245.791,221.152 245.852,238.386 245.918,244.013 245.979,230.889 246.173,238.617 246.234,244.336 246.3,239.167 246.362,252.501 246.428,242.05 246.683,248.677 246.749,249.28 246.81,236.13 246.876,269.797 247.065,240.982 247.131,240.153 247.192,245.996 247.258,233.175 247.32,233.294 247.513,241.719 247.575,249.116 247.641,241.57 247.702,256.4 247.768,251.393 247.957,242.412 248.023,254.758 248.084,231.812 248.15,245.496 248.212,239.864 248.405,248.001 248.467,229.733 248.533,238.985 248.594,233.759 248.66,246.305 248.915,248.097 248.977,233.074 249.042,249.062 249.104,241.615 249.297,238.426 249.359,258.614 249.425,232.268 249.486,245.558 249.552,245.67 249.746,253.54 249.807,246.626 249.873,241.045 249.935,250.262 250,233.116 250.189,241.057 250.255,229.332 250.317,237.323 250.383,240.679 250.444,241.804 250.638,245.589 250.699,252.101 250.765,235.238 250.827,247.03 250.893,242.372 251.082,244.913 251.147,252.516 251.209,232.908 251.275,246.212 251.336,248.965 251.53,249.139 251.591,235.188 251.657,237.783 251.719,246.561 251.785,258.291 251.974,242.605 252.04,254.716 252.101,241.581 252.167,242.653 252.422,247.838 252.488,219.704 252.549,241.141 252.615,241.95 252.677,244.217 252.87,246.626 252.932,249.971 252.998,239.597 253.059,238.597 253.125,242.476 253.314,249.387 253.38,235.117 253.441,249.225 253.507,238.939 253.569,228.788 253.762,245.008 253.824,243.489 253.89,245.723 253.951,261.716 254.017,260.213 254.206,240.488 254.272,246.556 254.333,267.164 254.399,252.847 254.461,237.756 254.654,249.105 254.716,249.563 254.782,241.442 254.843,227.215 254.909,235.384 255.164,265.48 255.23,232.265 255.292,227.08 255.357,241.076 255.546,268.486 255.612,245.475 255.674,252.077 255.74,241.732 255.801,250.404 255.995,261.462 256.056,258.354 256.122,236.714 256.184,215.288 256.25,249.017 256.438,256.296 256.504,243.943 256.566,230.536 256.632,250.176 256.693,244.1 256.887,236.92 256.948,255.977 257.014,235.465 257.076,213.876 257.142,245.442 257.331,232.46 257.458,253.43 257.524,240.017 257.585,253.231 257.779,241.38 257.845,237.981 257.906,258.838 257.972,261.632 258.034,249.908 258.227,245.848 258.289,241.209 258.354,218.044 258.416,255.615 258.482,253.287 258.671,220.694 258.737,234.43 258.798,243.482 258.864,249.145 258.926,227.221 259.119,245.588 259.181,248.935 259.247,235.658 259.308,241.589 259.374,251.738 259.563,247.23 259.629,248.27 259.69,249.721 259.756,237.564 259.818,249.441 260.011,242.07 260.073,225.169 260.139,232.972 260.2,241.258 260.266,238.826 260.455,248.154 260.521,242.368 260.587,250.3 260.648,240.319 260.714,244.3 260.903,236.089 260.969,240.298 261.031,242.87 261.097,243.983 261.158,236.182 261.413,240.933 261.479,257.661 261.541,250.336 261.606,238.607 261.795,243.063 261.861,229.319 261.923,237.803 261.989,245.498 262.05,240.196 262.244,242.176 262.305,246.465 262.371,236.073 262.433,250.916 262.499,247.307 262.688,230.821 262.753,232.922 262.815,242.931 262.881,241.142 262.942,246.901 263.136,248.019 263.197,240.541 263.263,226.646 263.329,240.532 263.391,246.961 263.584,242.563 263.646,240.908 263.711,247.18 263.773,230.161 263.839,241.005 264.028,239.94 264.094,248.698 264.155,241.811 264.221,242.762 264.283,242.371 264.476,235.624 264.538,244.497 264.604,239.116 264.665,236.828 264.731,254.897 264.92,243.024 264.986,244.231 265.047,253.681 265.113,244.266 265.175,246.37 265.368,228.197 265.43,240.559 265.496,240.219 265.557,250.434 265.623,241.361 265.812,239.604 265.878,234.572 265.939,239.589 266.005,240.344 266.067,242.491 266.26,244.08 266.326,241.387 266.388,240.249 266.515,248.655 266.708,262.583 266.77,238.591 266.836,230.391 266.897,242.059 266.963,248.099 267.152,231.41 267.218,237.863 267.28,245.033 267.346,249.261 267.407,241.548 267.601,240.664 267.662,245.264 267.728,241.345 267.79,231.611 267.855,242.216 268.044,248.096 268.11,240.454 268.172,245.477 268.238,248.178 268.299,250.367 268.554,236.518 268.62,232.666 268.682,245.683 268.748,251.022 269.068,245.079 269.13,242.028 269.196,251.864 269.385,240.125 269.451,244.366 269.512,240.908 269.578,234.748 269.64,237.283 269.895,242.566 269.96,244.819 270.022,248.5 270.088,239.566 270.277,250.982 270.343,238.787 270.404,231.97 270.47,259.046 270.532,244.875 270.725,244.926 270.787,235.986 270.853,233.991 270.914,235.844 270.98,241.108 271.169,244.728 271.235,242.85 271.296,241.49 271.362,245.397 271.424,253.494 271.617,247.915 271.683,233.007 271.745,232.853 271.811,241.955 271.872,244.586 272.127,239.909 272.193,245.589 272.254,244.779 272.32,248.463 272.509,244.998 272.575,291.263 272.637,235.866 272.703,247.497 272.764,259.606 272.958,256.755 273.019,222.237 273.085,247.236 273.146,234.259 273.212,242.644 273.401,240.359 273.467,272.095 273.529,234.702 273.595,238.662 273.656,249.131 273.85,228.87 273.911,235.186 273.977,220.316 274.039,243.874 274.104,242.078 274.293,242.707 274.359,252.128 274.425,254.754 274.487,238.312 274.553,245.709 274.742,240.035 274.808,230.803 274.869,242.405 274.935,239.153 275.19,243.151 275.251,239.968 275.317,252.613 275.379,234.905 275.445,238.725 275.634,228.914 275.7,241.004 275.761,242.988 275.827,245.332 275.889,230.258 276.082,246.545 276.144,244.028 276.209,229.44 276.271,244.468 276.337,243.62 276.526,254.587 276.592,240.27 276.653,234.542 276.719,237.475 276.781,240.792 276.974,240.415 277.036,245.114 277.102,238.863 277.167,263.048 277.229,230.537 277.422,245.932 277.484,245.223 277.55,231.259 277.611,244.932 277.677,234.757 277.866,241.966 277.932,244.757 277.994,245.331 278.06,257.082 278.121,235.915 278.376,241.327 278.442,232.427 278.503,243.013 278.569,238.633 278.758,241.065 278.824,250.941 278.886,255.568 278.952,268.319 279.013,228.099 279.207,242.406 279.268,258.338 279.334,222.262 279.396,236.973 279.461,236.677 279.65,245.229 279.716,241.295 279.778,263.158 279.844,234.839 279.91,260.345 280.099,248.436 280.165,247.801 280.226,230.332 280.292,243.713 280.354,246.85 280.547,230.086 280.608,238.327 280.736,243.297 280.802,238.651 280.991,242.094 281.057,263.685 281.118,235.408 281.184,217.538 281.246,239.487 281.439,246.299 281.5,243.475 281.566,245.677 281.628,237.622 281.694,261.221 281.883,237.456 281.949,271.092 282.01,237.25 282.076,273.784 282.138,265.389 282.331,229.787 282.393,261.534 282.458,232.946 282.52,237.779 282.586,281.155 282.779,210.836 282.841,234.781 282.907,224.875 282.968,282.046 283.034,242.679 283.223,244.152 283.289,268.438 283.351,264.119 283.417,235.801 283.478,210.092 283.671,244.31 283.733,242.178 283.799,227.488 283.86,244.947 283.926,227.523 284.115,255.8 284.181,275.961 284.243,213.284 284.309,248.863 284.37,229.162 284.625,228.916 284.691,259.65 284.752,237.691 284.818,267.839 285.007,245.461 285.073,224.56 285.135,243.236 285.201,232.229 285.262,243.382 285.456,251.107 285.521,203.89 285.583,235.102 285.649,253.076 285.71,237.393 285.904,251.349 285.965,241.922 286.031,237.338 286.093,239.753 286.159,247.784 286.348,225.626 286.414,244.222 286.475,249.308 286.541,240.889 286.603,231.893 286.796,247.027 286.857,232.818 286.923,246.558 286.985,252.94 287.051,238.009 287.24,255.271 287.306,251.788 287.367,246.523 287.433,243.419 287.495,280.401 287.688,235.23 287.75,233.699 287.815,244.215 287.877,245.563 287.943,231.626 288.132,240.298 288.198,251.216 288.264,228.872 288.325,278.365 288.391,244.002 288.58,247.104 288.646,229.295 288.708,281.72 288.773,244.66 288.835,258.213 289.028,257.942 289.09,205.858 289.156,256.907 289.217,259.916 289.283,238.907 289.472,265.875 289.538,238.787 289.6,262.174 289.727,220.904 289.92,277.872 289.982,224.733 290.048,208.474 290.109,241.366 290.175,234.15 290.364,250.432 290.43,251.923 290.492,225.01 290.558,222.277 290.619,247.865 290.812,233.142 290.874,280.707 290.94,244.235 291.006,238.038 291.067,261.03 291.261,261.876 291.322,236.033 291.388,245.906 291.45,239.708 291.516,222.792 291.705,232.404 291.832,241.483 291.898,260.707 291.959,246.21 292.153,251.815 292.28,263.259 292.342,244.271 292.408,276.026 292.597,241.618 292.663,269.662 292.724,224.851 292.79,230.485 292.852,262.087 293.045,230.38 293.106,275.118 293.172,248.031 293.234,286.593 293.3,252.789 293.555,245.602 293.616,213.505 293.682,231.771 293.748,271.828 293.937,220.18 294.003,237.368 294.064,251.558 294.13,220.957 294.192,226.913 294.385,258.532 294.447,288.219 294.513,257.489 294.574,230.404 294.64,250.173 294.829,236.497 294.895,234.84 294.957,230.089 295.022,263.198 295.084,241.413 295.339,251.22 295.405,231.522 295.466,264.352 295.532,233.127 295.721,224.529 295.787,233.694 295.849,242.739 295.915,254.522 295.976,277.905 296.169,242.399 296.231,246.383 296.297,236.96 296.358,273.412 296.424,252.81 296.618,263.842 296.679,193.806 296.745,256.714 296.807,233.285 296.873,273.115 297.062,251.054 297.127,187.572 297.189,278.453 297.255,211.171 297.51,223.812 297.571,239.812 297.637,255.884 297.699,258.86 297.765,256.998 297.954,237.241 298.02,198.244 298.081,246.128 298.147,240.023 298.208,243.021 298.402,245.125 298.463,248.601 298.529,255.039 298.591,238.452 298.657,269.468 298.846,246.993 298.912,240.025 298.973,215.791 299.039,241.377 299.101,221.318 299.294,243.333 299.36,253.362 299.421,241.851 299.487,235.196 299.549,233.305 299.742,245.432 299.804,247.67 299.87,249.877 299.931,220.379 299.997,239.507 300.186,248.651 300.252,230.395 300.313,268.698 300.379,240.339 300.441,250.277 300.634,229.569 300.696,245.002 300.762,241.376 300.823,228.886 301.078,242.571 301.144,253.888 301.206,266.945 301.271,240.684 301.333,260.009 301.588,233.948 301.654,239.196 301.715,236.123 301.781,243.145 301.97,257.826 302.036,252.994 302.102,242.697 302.164,217.444 302.418,241.941 302.484,244.923 302.546,266.17 302.612,238.922 302.673,224.809 302.867,242.571 302.928,253.963 302.994,255.005 303.056,237.363 303.122,268.279 303.311,244.79 303.376,246.527 303.438,235.252 303.504,279.175 303.565,248.22 303.759,242.381 303.82,234.566 303.886,270.362 304.203,256.441 304.269,219.478 304.33,275.809 304.396,233.91 304.458,253.302 304.651,259.274 304.712,257.804 304.778,208.541 304.844,229.079 304.906,241.489 305.099,245.848 305.161,221.848 305.227,240.063 305.288,276.514 305.354,239.184 305.543,269.48 305.609,213.837 305.67,222.096 305.736,259.253 305.991,256.164 306.053,211.308 306.119,237.858 306.246,211.835 306.435,232.313 306.501,259.965 306.628,231.649 306.69,239.149 306.883,264.05 306.945,254.023 307.011,235.316 307.072,236.531 307.138,227.831 307.327,269.086 307.393,238.854 307.455,232.295 307.586,258.071 307.841,255.122 307.903,245.039 307.969,283.096 308.03,233.362 308.224,223.027 308.285,292.282 308.351,238.986 308.413,220.194 308.479,236.443 308.667,304.853 308.733,213.572 308.795,308.242 308.861,191.779 308.922,199.186 309.116,298.739 309.177,266.705 309.243,243.601 309.305,216.268 309.371,230.694 309.56,341.83 309.625,178.057 309.687,246.215 309.753,300.841 309.814,263.565 310.008,289.488 310.069,325.421 310.135,250.314 310.197,348.597 310.263,240.312 310.456,106.639 310.518,260.495 310.583,375.342 310.645,189.01 310.711,246.251 310.9,183.127 310.966,281.619 311.027,322.516 311.093,228.349 311.155,274.937 311.348,286.663 311.41,99.7147 311.476,269.746 311.537,221.411 311.603,217.589 311.792,247.083 311.858,195.278 311.919,315.069 311.985,315.294 312.047,207.414 312.24,269.716 312.302,272.581 312.368,308.274 312.429,148.115 312.495,294.399 312.684,281.388 312.75,233.228 312.812,331.186 312.877,338.166 312.939,163.294 313.132,164.395 313.198,237.194 313.26,187.962 313.387,228.879 313.581,362.854 313.642,190.032 313.708,199.474 313.77,284.572 313.835,189.05 314.024,203.324 314.09,270.817 314.152,232.751 314.218,282.509 314.279,230.751 314.473,262.426 314.534,178.043 314.6,250.239 314.662,276.358 314.728,243.823 314.917,268.841 314.982,261.707 315.044,236.688 315.171,238.943 315.365,249.212 315.426,211.929 315.492,223.052 315.62,201.232 315.813,245.802 315.875,238.741 315.94,275.499 316.002,237.071 316.068,274.79 316.257,276.03 316.323,241.545 316.384,283.42 316.45,240.207 316.512,234.82 316.767,319.288 316.833,186.871 316.894,264.684 316.96,227.671 317.149,236.611 317.215,229.906 317.276,197.777 317.342,282.829 317.404,276.297 317.597,239.906 317.659,223.092 317.725,253.06 317.786,220.507 317.852,207.724 318.041,241.249 318.107,310.026 318.168,233.591 318.234,235.307 318.296,256.592 318.551,294.801 318.617,248.785 318.683,259.646 318.744,253.886 318.938,299.148 318.999,192.159 319.065,254.214 319.126,267.462 319.192,270.972 319.381,300.007 319.447,260.117 319.509,215.368 319.575,295.349 319.636,244.286 319.83,252.072 319.891,165.439 319.957,240.813 320.019,187.184 320.084,235.916 320.273,253.145 320.339,199.386 320.401,210.911 320.467,269.242 320.528,273.746 320.722,153.556 320.783,268.598 320.849,231.413 320.911,212.238 320.977,265.554 321.166,280.524 321.231,232.633 321.293,214.91 321.359,210.566 321.425,231.692 321.614,251.772 321.68,275.77 321.741,229.767 321.807,197.507 322.062,239.259 322.124,269.708 322.189,222.501 322.251,226.547 322.317,235.905 322.506,302.185 322.572,212.781 322.633,249.611 322.699,231.462 322.761,224.239 322.954,252.391 323.016,242.989 323.082,217.319 323.143,249.912 323.209,236.405 323.398,198.504 323.464,247.336 323.525,219.72 323.591,262.426 323.653,212.908 323.846,264.089 323.908,246.791 323.974,277.128 324.035,230.901 324.101,258.443 324.294,206.459 324.356,245.693 324.422,252.012 324.483,262.813 324.549,245.535 324.804,207.394 324.866,269.955 324.932,222.423 324.993,223.606 325.187,212.496 325.248,240.873 325.314,258.897 325.375,229.478 325.441,251.069 325.63,242.418 325.696,240.985 325.758,248.826 325.824,235.543 325.885,239.951 326.079,271.461 326.14,264.571 326.206,245.24 326.268,232.606 326.333,241.98 326.522,282.543 326.588,241.931 326.65,236.548 326.716,211.987 326.777,244.675 326.971,232.698 327.037,255.179 327.098,240.089 327.164,280.274 327.419,236.939 327.48,271.777 327.546,247.31 327.608,242.019 327.674,245.618 327.863,210.122 327.929,235.79 327.99,209.301 328.056,228.004 328.118,243.738 328.311,230.806 328.373,239.792 328.438,243.116 328.5,211.571 328.566,233.4 328.755,238.348 328.821,246.161 328.882,246.936 328.948,228.764 329.01,243.363 329.203,226.796 329.265,237.95 329.331,247.632 329.392,253.6 329.458,228.587 329.651,245.771 329.713,259.73 329.779,227.476 329.84,234.465 329.906,254.907 330.095,269.937 330.161,230.938 330.223,229.69 330.289,228.452 330.35,220.435 330.543,244.869 330.605,241.852 330.671,242.565 330.732,239.161 330.798,246.956 330.987,249.526 331.053,273.876 331.115,245.912 331.181,234.277 331.242,226.344 331.497,234.814 331.563,232.88 331.625,228.798 331.69,245.403 331.879,231.622 331.945,238.81 332.007,224.221 332.073,245.813 332.134,242.012 332.328,246.885 332.394,236.942 332.455,259.12 332.521,259.684 332.583,249.807 332.776,220.4 332.837,247.944 332.903,250.767 332.965,278.054 333.031,250.146 333.22,225.443 333.286,226.534 333.347,238.525 333.413,236.889 333.475,235.436 333.668,237.851 333.729,245.234 333.795,225.964 333.857,236.305 333.923,252.45 334.112,231.51 334.178,253.231 334.239,255.503 334.305,228.693 334.367,264.223 334.56,261.225 334.622,249.186 334.688,268.922 334.749,214.746 334.815,283.302 335.004,235.111 335.07,238.408 335.131,244.899 335.197,217.878 335.263,238.092 335.452,216.579 335.518,242.165 335.58,240.273 335.646,257.928 335.707,236.029 335.9,224.281 335.962,242.316 336.028,243.343 336.089,258.285 336.155,247.59 336.344,229.225 336.41,243.826 336.472,238.845 336.599,261.571 336.792,237.633 336.854,231.03 336.92,243.762 336.981,257.129 337.047,236.958 337.236,246.645 337.302,258.034 337.364,237.839 337.43,239.028 337.491,240.411 337.685,235.725 337.746,251.507 337.812,242.391 337.874,256.088 337.939,236.891 338.133,232.442 338.194,238.804 338.26,241.61 338.322,236.881 338.577,243.248 338.643,246.721 338.704,242.972 338.77,258.464 339.025,223.001 339.086,238.993 339.152,242.062 339.214,237.205 339.28,238.496 339.469,242.358 339.535,253.136 339.596,233.235 339.662,240.382 339.724,258.202 339.979,225.958 340.044,255.908 340.106,271.881 340.172,274.253 340.361,238.09 340.427,248.295 340.488,236.611 340.554,259.918 340.616,262.104 340.809,223.906 340.875,226.824 340.937,248.121 341.002,288.6 341.064,240.885 341.257,255.261 341.319,229.793 341.385,245.664 341.446,228.539 341.512,242.667 341.767,223.165 341.829,239.325 341.895,234.045 341.956,239.539 342.149,246.607 342.211,260.007 342.277,231.913 342.338,241.169 342.404,241.798 342.593,230.712 342.659,242.375 342.721,244.542 342.787,239.175 342.848,226.925 343.042,243.809 343.103,240.161 343.169,237.142 343.23,236.146 343.296,245.912 343.49,241.528 343.551,233.041 343.617,236.08 343.679,244.288 343.745,252.512 343.934,233.124 344,234.43 344.061,249.509 344.127,248.712 344.188,244.782 344.382,236.982 344.443,244.212 344.509,246.319 344.571,235.663 344.826,233.208 344.892,239.545 344.953,250.384 345.019,237.975 345.081,235.524 345.274,241.764 345.335,242.165 345.401,229.747 345.463,242.636 345.529,264.635 345.718,237.224 345.784,233.968 345.845,245.469 345.911,236.254 345.973,232.997 346.166,249.446 346.232,274.717 346.293,235.268 346.359,227.852 346.421,267.718 346.614,227.602 346.676,271.824 346.742,247.918 346.803,289.039 346.869,264.393 347.058,197.456 347.124,244.44 347.186,224.148 347.251,259.127 347.313,269.576 347.506,243.004 347.568,265.973 347.634,249.611 347.695,289.786 347.761,216.724 347.95,258.435 348.016,235.203 348.078,253.451 348.144,206.134 348.205,260.662 348.46,265.473 348.526,210.507 348.587,238.684 348.653,287.016 348.842,264.091 348.908,228.836 348.974,253.008 349.036,206.719 349.102,232.054 349.291,250.584 349.356,213.161 349.418,243.092 349.484,243.736 349.545,242.147 349.739,255.577 349.8,267.17 349.866,248.064 349.928,266.16 349.994,239.985 350.183,247.719 350.249,283.588 350.31,257.603 350.376,248.848 350.438,251.178 350.692,243.634 350.758,200.991 350.82,234.206 350.886,233.946 351.075,241.767 351.141,224.928 351.202,244.111 351.268,241.462 351.33,281.37 351.523,237.865 351.584,218.942 351.65,266.065 351.712,215.802 351.778,230.301 351.971,228.559 352.033,248.218 352.099,252.102 352.16,251.882 352.226,239.398 352.415,220.681 352.481,250.07 352.542,235.881 352.608,243.686 352.67,244.452 352.863,237.615 352.925,245.669 352.991,278.137 353.052,240.942 353.118,247.349 353.307,241.31 353.373,228.966 353.435,240.904 353.5,265.828 353.562,248.842 353.755,251.648 353.817,258.87 353.883,234.988 353.944,255.202 354.01,223.181 354.199,262.469 354.265,241.752 354.327,203.364 354.393,231.503 354.454,229.719 354.713,257.459 354.775,235.241 354.841,239.714 354.902,237.326 355.096,232.95 355.157,243.799 355.223,236.383 355.285,242.421 355.351,244.736 355.54,223.701 355.605,247.016 355.667,249.854 355.733,251.251 355.794,223.042 355.988,251.122 356.049,237.203 356.115,246.451 356.177,249.436 356.243,240.437 356.432,253.448 356.498,219.497 356.559,243.83 356.625,248.19 356.687,235.973 356.88,244.204 356.941,237.059 357.007,235.4 357.069,248.799 357.135,245.216 357.328,234.642 357.39,258.857 357.456,230.038 357.517,243.23 357.583,241.216 357.772,242.828 357.838,243.03 357.899,245.362 357.965,244.754 358.027,243.945 358.22,245.419 358.282,236.859 358.348,238.831 358.409,217.358 358.475,238.778 358.664,243.809 358.73,255.797 358.792,237.393 358.857,242.836 358.919,255.274 359.112,247.172 359.174,263.173 359.24,243.242 359.301,228.737 359.367,239.463 359.556,243.907 359.622,257.271 359.684,226.243 359.811,249.273 360.004,244.714 360.07,246.317 360.132,221.008 360.198,226.724 360.259,238.359 360.453,244.511 360.514,247.82 360.58,240.192 360.642,240.572 360.708,236.839 360.896,245.928 360.962,243.829 361.024,250.368 361.09,236.218 361.151,243.071 361.345,242.111 361.406,237.788 361.472,239.323 361.534,244.544 361.789,240.341 361.854,244.129 361.916,242.261 361.982,245.192 362.043,242.237 362.237,228.345 362.298,246.949 362.364,234.928 362.426,246.31 362.492,246.89 362.681,244.479 362.747,241.657 362.812,232.432 362.874,245.95 362.94,232.615 363.195,241.667 363.256,257.291 363.322,244.176 363.384,243.977 363.577,235.463 363.639,240.274 363.705,238.534 363.766,241.468 363.832,269.071 364.021,233.261 364.087,224.034 364.148,245.839 364.214,238.943 364.276,239.742 364.469,236.271 364.531,237.542 364.597,245.374 364.658,239.764 364.724,232.298 364.913,239.954 364.979,246.329 365.041,236.495 365.106,237.351 365.168,240.992 365.423,268.564 365.489,252.088 365.555,244.758 365.616,230.086 365.81,237.184 365.871,267.421 365.937,240.458 365.999,223.881 366.064,254.058 366.253,256.945 366.319,231.902 366.381,243.616 366.447,265.677 366.508,231.938 366.702,248.896 366.763,250.99 366.829,268.746 366.891,230.592 366.957,240.948 367.146,225.676 367.211,248.734 367.273,237.894 367.339,233.829 367.4,241.502 367.594,249.054 367.655,232.922 367.721,236.878 367.783,245.134 367.849,240.854 368.038,244.535 368.104,242.929 368.165,244.038 368.231,245.21 368.292,252.264 368.486,248.531 368.552,252.079 368.613,243.305 368.679,239.722 368.741,238.12 368.934,252.479 368.996,236.688 369.062,231.625 369.123,239.482 369.378,245.788 369.444,232.744 369.505,236.159 369.571,236.892 369.633,240.184 369.826,247.925 369.888,247.143 369.954,252.776 370.015,253.384 370.081,243.9 370.27,237.336 370.336,234.435 370.397,256.736 370.463,233.935 370.525,255.055 370.718,249.092 370.78,240.646 370.846,230.995 370.907,242.62 370.973,253.061 371.167,260.311 371.228,245.124 371.294,239.162 371.355,238.007 371.421,237.944 371.676,228.892 371.738,276.065 371.804,245.438 371.865,257.489 372.059,259.025 372.12,244.984 372.186,249.261 372.248,233.035 372.313,262.462 372.502,242.972 372.568,226.287 372.63,268.514 372.696,241.28 372.757,240.576 372.951,236.026 373.012,224.957 373.078,252.416 373.14,246.793 373.206,259.166 373.395,230.673 373.46,225.515 373.522,231.957 373.588,229.77 373.649,223.71 373.909,245.163 373.97,241.891 374.036,229.183 374.098,252.622 374.291,268.845 374.353,249.969 374.418,240.053 374.48,253.203 374.546,235.569 374.735,254.887 374.801,222.74 374.862,246.577 374.928,224.382 374.99,242.464 375.183,250.8 375.245,249.166 375.311,272.296 375.372,247.918 375.438,252.221 375.627,249.839 375.693,279.591 375.754,236.726 375.82,312.406 375.882,244.869 376.075,338.889 376.137,179.002 376.203,306.883 376.264,182.149 376.33,236.51 376.519,213.65 376.585,257.174 376.651,242.692 376.712,302.601 376.778,264.673 376.967,244.613 377.033,197.238 377.095,225.18 377.161,264.665 377.222,222.276 377.416,205.922 377.477,239.846 377.543,237.254 377.604,261.271 377.67,279.139 377.925,253.942 377.987,204.867 378.053,257.969 378.114,281.127 378.308,232.981 378.369,231.07 378.435,225.296 378.497,221.015 378.562,235.832 378.751,256.585 378.817,246.047 378.879,288.127 378.945,286.237 379.006,234.644 379.2,211.659 379.261,228.584 379.327,272.849 379.393,233.402 379.455,278.758 379.648,284.433 379.709,210.408 379.775,219.007 379.837,218.432 379.903,255.179 380.092,199.701 380.158,242.34 380.219,230.581 380.285,247.656 380.347,222.467 380.54,270.881 380.602,215.616 380.667,259.181 380.729,238.784 380.795,217.246 380.984,226.146 381.05,272.302 381.111,229.07 381.177,198.912 381.239,243.012 381.432,278.041 381.494,280.776 381.56,222.73 381.621,217.807 381.687,252.028 381.876,235.223 381.942,227.162 382.003,295.229 382.069,232.161 382.135,216.687 382.324,257.432 382.39,236.779 382.452,268.658 382.518,266.832 382.579,244.077 382.772,269.9 382.834,249.361 382.9,273.82 383.027,246.974 383.216,202.704 383.282,240.251 383.344,185.732 383.41,246.837 383.471,245.718 383.665,229.258 383.726,241.868 383.792,240.339 383.854,273.197 383.919,220.173 384.108,263.788 384.174,256.85 384.236,256.075 384.302,239.263 384.363,239.37 384.557,260.502 384.618,203.304 384.684,241.483 384.746,231.786 384.812,230.881 385.066,243.002 385.132,260.87 385.194,229.063 385.26,249.134 385.515,223.742 385.576,243.35 385.642,239.563 385.704,246.983 385.897,240.609 385.958,231.397 386.024,243.397 386.086,240.437 386.152,249.872 386.407,239.974 386.468,228.489 386.534,236.806 386.596,242.813 386.789,242.974 386.851,245.265 386.917,231.475 386.978,251.912 387.044,245.358 387.233,247.098 387.299,244.806 387.36,231.181 387.426,242.256 387.488,224.264 387.681,243.899 387.747,240.666 387.809,240.494 387.875,241.49 387.936,252.766 388.129,234.68 388.191,244.649 388.257,251.082 388.318,227.628 388.384,240.261 388.639,242.562 388.701,248.308 388.767,237.613 388.828,241.254 389.021,240.958 389.083,238.796 389.149,249.953 389.21,235.301 389.276,248.34 389.465,249.139 389.531,264.708 389.593,233.818 389.659,229.775 389.72,238.359 389.914,243.247 389.975,219.083 390.041,245.364 390.103,235.218 390.168,241.892 390.357,238.173 390.423,247.74 390.489,246.055 390.551,253.652 390.617,238.984 390.806,224.157 390.872,247.571 390.933,250.865 390.999,245.965 391.061,238.679 391.254,233.377 391.315,249.635 391.381,257.731 391.443,244.544 391.698,259.091 391.764,267.695 391.825,233.292 391.891,224.69 391.953,261.204 392.146,244.234 392.208,222.37 392.273,249.381 392.335,252.051 392.401,242.207 392.59,255.549 392.656,238.342 392.717,224.604 392.783,234.06 392.845,240.192 393.038,249.138 393.1,235.461 393.166,246.918 393.231,254.546 393.293,266.637 393.486,242.702 393.548,249.358 393.614,252.852 393.675,240.564 393.741,248.364 393.93,257.898 393.996,251.816 394.058,249.991 394.124,264.477 394.185,254.579 394.378,221.905 394.44,242.749 394.506,240.751 394.567,241.45 394.633,247.107 394.888,229.285 394.95,262.874 395.016,246.418 395.077,278.58 395.271,244.199 395.332,235.362 395.398,211.944 395.459,244.89 395.525,232.586 395.714,261.652 395.78,227.894 395.842,253.586 395.908,228.913 395.974,229.511 396.163,241.153 396.229,229.903 396.29,246.098 396.356,275.084 396.417,233.551 396.611,266.151 396.672,237.136 396.738,231.787 396.8,246.507 396.866,210.116 397.055,240.767 397.121,235.146 397.248,249.843 397.31,256.501 397.503,245.885 397.564,255.775 397.63,243.785 397.692,250.342 397.758,220.781 397.947,246.61 398.013,233.499 398.074,234.24 398.14,240.237 398.202,257.569 398.395,256.118 398.457,256.417 398.522,243.943 398.584,220.973 398.65,217 398.843,244.359 398.905,249.863 398.971,247.625 399.032,254.133 399.098,217.509 399.287,240.331 399.353,236.968 399.415,242.704 399.48,243.266 399.542,240.659 399.735,245.182 399.797,244.039 399.863,242.104 399.924,234.755 399.99,241.461 400.179,243.439 400.245,248.443 400.307,243.2 400.373,254.781 400.434,234.616 400.627,244.447 400.689,244.797 400.755,242.409 400.816,254.063 400.882,237.045 401.137,245.03 401.199,245.353 401.265,218.803 401.326,238.093 401.52,252.234 401.585,239.201 401.647,240.567 401.713,220.902 401.774,238.343 401.968,247.738 402.029,245.345 402.095,242.028 402.157,244.294 402.223,243.783 402.412,246.226 402.478,258.291 402.539,251.515 402.605,230.086 402.667,248.09 402.86,240.339 402.921,243.044 402.987,238.874 403.049,233.504 403.115,246.422 403.304,248.476 403.37,257.588 403.431,252.164 403.497,243.52 403.559,247.822 403.752,232.583 403.813,229.531 403.879,237.223 403.941,246.91 404.007,267.25 404.196,243.284 404.262,263.98 404.328,248 404.389,240.395 404.455,244.635 404.771,242.451 404.837,228.492 404.899,256.402 405.092,240.425 405.154,232.848 405.22,277.245 405.281,260.87 405.347,241.452 405.536,243.413 405.602,249.077 405.664,263.416 405.729,246.019 405.791,236.993 405.984,216.499 406.046,242.552 406.112,240.394 406.239,225.421 406.428,246.589 406.494,251.229 406.556,232.696 406.622,237.568 406.683,243.708 406.876,250.576 406.938,246.088 407.004,241.098 407.07,239.248 407.131,239.66 407.325,243.062 407.386,234.199 407.452,242.889 407.514,252.311 407.58,249.693 407.769,226.969 407.834,227.73 407.896,254.338 407.962,236.223 408.023,256.505 408.217,247.089 408.344,250.268 408.406,245.623 408.472,258.774 408.661,219.662 408.788,208.406 408.854,246.878 408.916,237.168 409.109,248.207 409.17,248.318 409.236,239.893 409.298,236.531 409.364,244.04 409.553,244.854 409.619,242.184 409.68,243.399 409.746,235.39 409.812,239.034 410.067,237.935 410.128,241.583 410.194,243.168 410.256,236.187 410.449,246.312 410.511,236.438 410.577,249.216 410.638,247.056 410.704,229.589 410.893,259.898 410.959,229.185 411.021,243.005 411.086,246.361 411.148,236.018 411.341,244.511 411.403,241.255 411.469,242.972 411.53,242.722 411.596,245.417 411.851,233.63 411.913,261.198 411.979,252.384 412.04,231.663 412.233,269.36 412.295,234.901 412.361,225.885 412.422,245.07 412.488,240.212 412.682,237.317 412.743,230.13 412.809,242.076 412.871,240.791 412.937,240.166 413.125,239.17 413.191,246.864 413.253,241.953 413.319,236.031 413.38,246.074 413.574,251.266 413.635,246.946 413.701,233.976 413.763,255.27 413.829,233.581 414.018,248.142 414.083,232.664 414.145,244.134 414.211,238.503 414.466,249.99 414.527,236.58 414.593,258.588 414.655,237.741 414.721,249.846 414.91,234.899 414.976,238.791 415.037,226.781 415.103,239.07 415.165,247.676 415.358,276.369 415.424,223.883 415.485,263.972 415.551,252.989 415.613,231.079 415.806,237.188 415.868,229.006 415.934,243.693 415.995,237.96 416.061,246.102 416.25,233.918 416.316,240.514 416.377,256.667 416.443,230.726 416.505,229.256 416.698,241.208 416.76,236.431 416.826,237.917 416.887,248.876 416.953,237.902 417.142,242.242 417.208,229.351 417.27,235.601 417.335,249.811 417.397,232.172 417.59,243.149 417.652,241.089 417.718,255.585 417.779,244.407 417.845,240.469 418.1,236.957 418.166,250.474 418.228,238.899 418.293,261.198 418.482,236.236 418.548,251.783 418.61,261.238 418.676,232.239 418.737,228.136 418.931,245.327 418.992,254.571 419.058,258.807 419.12,222.527 419.186,251.385 419.375,236.3 419.44,233.465 419.502,263.283 419.568,275.454 419.629,240.416 419.823,257.473 419.884,234.429 419.95,233.917 420.012,237.699 420.078,248.411 420.267,239.211 420.333,244.032 420.394,240.218 420.521,232.184 420.715,238.238 420.776,236.933 420.842,242.625 420.908,228.528 420.97,239.929 421.163,241.118 421.225,249.023 421.291,241.258 421.352,236.67 421.418,238.729 421.607,242.859 421.673,247.022 421.734,252.741 421.8,239.501 421.862,240.055 422.055,247.611 422.117,244.917 422.183,244.583 422.244,229.498 422.31,240.91 422.499,244.283 422.565,250.683 422.626,247.266 422.692,240.201 422.754,247.623 422.947,242.689 423.009,240.752 423.075,250.75 423.136,259.085 423.202,248.225 423.391,251.54 423.457,238.629 423.519,250.319 423.584,233.463 423.65,240.809 423.839,249.822 423.905,262.22 423.967,239.396 424.033,239.43 424.094,248.994 424.349,240.561 424.415,233.07 424.477,242.209 424.542,245.689 424.731,231.174 424.797,236.135 424.859,237.012 424.925,248.366 424.986,241.135 425.18,238.72 425.241,237.705 425.307,227.517 425.369,247.739 425.435,253.947 425.624,251.462 425.689,247.748 425.751,247.843 425.817,239.73 425.878,246.908 426.072,248.271 426.133,233.165 426.199,242.392 426.261,255.145 426.327,233.975 426.52,252.978 426.582,261.054 426.647,244.184 426.709,217.321 426.775,233.665 426.964,235.066 427.03,252.567 427.091,226.624 427.157,233.272 427.219,237.507 427.412,244.237 427.474,237.139 427.54,248.39 427.601,240.058 427.667,240.604 427.856,241.425 427.922,236.5 427.983,250.706 428.049,248.657 428.111,241.064 428.304,239.907 428.366,245.899 428.432,239.322 428.493,262.318 428.559,225.982 428.748,242.185 428.814,245.097 428.875,229.748 428.941,237.421 429.003,237.746 429.196,249.509 429.262,245.757 429.324,250.021 429.39,233.969 429.451,237.682 429.645,246.458 429.706,243.531 429.772,240.699 429.899,245.892 430.088,248.099 430.154,249.041 430.216,243.899 430.282,249.749 430.343,230.667 430.537,241.817 430.598,246.276 430.664,259.944 430.726,248.621 430.792,245.979 430.98,236.48 431.046,247.951 431.108,220.946 431.174,243.267 431.235,236.533 431.429,239.613 431.49,239.571 431.618,238.255 431.684,244.955 431.877,244.015 431.938,239.717 432.066,254.186 432.132,244.985 432.321,248.02 432.387,236.642 432.448,244.093 432.514,244.284 432.576,241.828 432.769,260.84 432.831,230.319 432.896,236.946 432.958,245.272 433.024,248.061 433.279,241.592 433.34,243.495 433.406,253.967 433.468,271.912 433.661,251.114 433.723,236.204 433.789,256.173 433.85,230.248 433.916,250.332 434.105,276.198 434.171,234.6 434.232,244.926 434.298,227.584 434.36,227.399 434.553,240.938 434.619,228.926 434.681,244.414 434.747,232.217 434.808,235.928 435.063,242.094 435.129,251.474 435.19,235.534 435.256,247.179 435.445,235.407 435.511,245.44 435.573,244.045 435.639,236.62 435.7,240.69 435.894,252.782 435.955,225.217 436.021,243.618 436.083,241.185 436.148,244.24 436.337,244.158 436.403,251.573 436.465,242.102 436.531,260.735 436.592,246.666 436.786,231.64 436.847,233.713 436.913,252.181 436.975,234.599 437.041,250.154 437.229,251.353 437.295,238.915 437.361,254.499 437.423,245.992 437.489,238.087 437.678,233.677 437.744,234.95 437.805,240.375 437.871,245.444 437.933,262.444 438.126,258.07 438.188,238.575 438.253,228.925 438.315,273.401 438.381,255.088 438.57,234.145 438.636,234.855 438.697,231.419 438.763,241.245 439.018,239.307 439.08,238.273 439.146,246.551 439.207,246.225 439.273,254.263 439.462,240.299 439.528,237.938 439.589,238.72 439.655,244.418 439.717,246.819 439.91,239.682 439.972,255.601 440.038,236.386 440.099,244.954 440.165,241.292 440.358,231.186 440.42,243.165 440.486,250.076 440.547,256.483 440.613,238.599 440.802,237.448 440.868,252.47 440.93,232.774 440.996,240.415 441.057,238.288 441.312,236.307 441.378,245.034 441.439,236.817 441.505,241.406 441.694,242.909 441.76,242.828 441.822,240.21 441.888,235.202 441.949,238.77 442.143,242.131 442.204,243.309 442.27,247.475 442.332,253.349 442.397,239.984 442.586,241.524 442.652,239.989 442.714,233.384 442.78,242.346 442.841,241.681 443.035,243.971 443.101,252.144 443.162,236.327 443.228,245.539 443.29,240.47 443.483,244.122 443.544,235.847 443.61,242.67 443.672,236.85 443.927,248.404 443.993,252.497 444.054,238.255 444.12,245.038 444.182,242.502 444.375,238.467 444.437,246.35 444.502,240.011 444.564,259.314 444.63,231.994 444.819,245.908 444.885,237.914 444.946,242.216 445.012,243.853 445.074,248.204 445.267,243.257 445.329,250.557 445.395,245.805 445.456,268.483 445.522,246.994 445.715,234.446 445.777,255.568 445.843,241.659 445.904,253.584 445.97,228.229 446.159,241.203 446.225,245.053 446.287,235.776 446.353,238.076 446.414,246.332 446.607,234.244 446.669,237.387 446.735,239.381 446.796,239.727 446.862,246.676 447.051,239.017 447.117,242.549 447.179,244.134 447.245,243.93 447.306,240.178 447.561,245.082 447.627,245.632 447.688,246.486 447.754,237.059 447.943,247.681 448.009,252.283 448.071,238.487 448.137,240.479 448.198,251.485 448.392,245.074 448.458,231.542 448.519,242.071 448.585,237.754 448.646,245.188 448.84,253.898 448.901,250.676 448.967,232.896 449.029,265.635 449.095,232.007 449.284,244.403 449.35,247.54 449.411,261.433 449.477,243.489 449.539,229.636 449.732,247.284 449.793,263.516 449.859,219.718 449.921,271.966 449.987,257.672 450.176,266.618 450.242,243.1 450.303,252.384 450.369,239.095 450.431,227.385 450.624,230.054 450.686,220.495 450.751,253.907 450.813,229.62 450.879,234.42 451.068,244.847 451.134,229.167 451.2,244.422 451.261,233.08 451.327,232.265 451.516,244.088 451.582,246.137 451.644,238.145 451.709,238.382 451.771,244.092 451.964,239.344 452.026,242.571 452.092,243.392 452.153,243.634 452.219,243.655 452.408,241.653 452.474,236.348 452.536,245.544 452.602,238.961 452.663,239.875 452.856,240.644 452.918,245.391 452.984,239.879 453.111,248.557 453.3,252.031 453.366,234.966 453.428,239.146 453.494,245.055 453.555,242.012 453.749,253.34 453.81,241.479 453.876,265.889 453.942,238.532 454.003,262.382 454.197,254.563 454.258,252.965 454.324,216.358 454.386,214.597 454.452,237.192 454.641,237.211 454.707,243.147 454.768,244.574 454.896,240.328 455.089,241.451 455.15,249.168 455.216,259.435 455.344,244.168 455.533,266.392 455.599,257.611 455.66,229.527 455.726,222.082 455.788,256.221 455.981,255.773 456.042,249.587 456.108,248.73 456.17,258.404 456.236,224.878 456.491,242.471 456.552,235.148 456.618,223.666 456.68,251.335 456.873,239.252 456.939,256.144 457,264.465 457.066,230.334 457.128,260.472 457.321,226.702 457.383,224.939 457.449,248.809 457.51,230.716 457.576,248.286 457.765,248.409 457.831,230.726 457.893,243.842 457.958,231.326 458.02,238.217 458.275,241.42 458.341,243.339 458.402,244.796 458.468,235.307 458.657,243.855 458.723,239.284 458.785,244.68 458.851,245.728 458.912,247.911 459.105,235.83 459.167,248.976 459.233,249.708 459.294,241.944 459.36,263.672 459.554,238.909 459.615,264.718 459.681,246.558 459.743,226.694 459.809,251.309 459.998,226.29 460.063,247.966 460.125,225.838 460.191,249.849 460.252,231.599 460.446,245.988 460.507,251.905 460.573,265.277 460.635,246.149 460.701,240.285 460.89,228.683 460.956,254.413 461.017,249.005 461.083,239.044 461.338,232.818 461.399,246.826 461.465,240.353 461.527,237.026 461.593,236.555 461.782,249.899 461.848,241.066 461.909,237.967 461.975,244.196 462.037,258.096 462.23,232.77 462.296,247.222 462.357,237.173 462.423,239.777 462.485,240.306 462.678,250.469 462.74,239.226 462.806,247.473 462.867,257.056 462.933,229.878 463.122,240.854 463.188,259.138 463.25,250.909 463.315,238.174 463.377,227.784 463.57,250.498 463.632,246.189 463.698,244.366 463.759,230.149 463.825,243.227 464.014,238.592 464.08,244.677 464.142,244.936 464.208,239.976 464.269,246.331 464.524,257.612 464.59,231.452 464.651,244.524 464.717,252.375 464.906,241.569 464.972,244.209 465.038,241.188 465.1,254.322 465.166,245.188 465.354,252.331 465.42,243.055 465.482,227.875 465.548,241.597 465.609,252.53 465.803,248.167 465.864,235.492 465.93,241.578 465.992,231.336 466.058,251.218 466.247,236.639 466.312,242.885 466.374,253.45 466.44,248.589 466.501,244.104 466.695,271.325 466.756,242.443 466.822,236.329 466.884,244.848 467.139,247.143 467.205,235.418 467.266,264.572 467.332,242.556 467.394,227.434 467.587,230.567 467.648,237.544 467.714,244.456 467.78,236.246 467.842,243.86 468.035,242.86 468.097,249.233 468.163,246.417 468.224,251.594 468.29,258.728 468.479,250.53 468.545,228.361 468.606,234.484 468.672,242.255 468.734,248.787 468.927,248.122 468.989,246.538 469.055,240.479 469.116,255.218 469.182,246.488 469.371,229.346 469.437,255.837 469.499,238.837 469.564,245.641 469.626,237.88 469.819,235.055 469.881,246.59 469.947,254.333 470.008,271.213 470.074,287.499 470.263,290.468 470.329,266.002 470.391,196.572 470.457,211.392 470.522,241.043 470.711,254.093 470.777,284.171 470.839,220.176 470.905,243.626 470.966,263.058 471.221,213.359 471.287,264.663 471.349,235.98 471.415,237.118 471.604,250.905 471.669,227.12 471.731,231.554 471.797,247.231 471.858,266.202 472.052,239.867 472.113,257.248 472.179,246.862 472.241,245.316 472.307,246.831 472.496,278.593 472.562,242.212 472.623,220.342 472.689,240.717 472.75,222.273 472.944,220.428 473.005,248.377 473.071,234.185 473.133,230.054 473.199,242.816 473.392,242.545 473.454,251.526 473.52,250.5 473.581,224.417 473.647,237.692 473.836,242.041 473.902,244.965 473.963,253.691 474.029,222.452 474.091,235.256 474.284,246.461 474.346,245.515 474.412,227.608 474.473,242.954 474.539,250.734 474.728,228.059 474.794,238.807 474.855,248.969 474.921,244.694 474.983,243.212 475.176,255.111 475.238,240.35 475.304,249.412 475.365,261.608 475.431,258.528 475.62,222.148 475.686,245.83 475.748,222.213 475.813,245.345 475.875,239.354 476.068,245.516 476.134,240.314 476.196,243.844 476.323,242.779 476.517,250.136 476.578,230.565 476.644,258.42 476.706,264.568 476.771,216.517 476.96,252.596 477.026,250.187 477.088,252.806 477.154,240.639 477.215,267.898 477.409,237.402 477.47,231.243 477.536,225.631 477.598,265.356 477.664,268.242 477.853,236.088 477.918,232.582 477.98,228.503 478.046,245.389 478.301,244.449 478.362,231.663 478.428,252.945 478.49,255.274 478.745,261.183 478.811,241.447 478.876,258.494 478.938,273.884 479.004,261.294 479.193,245.624 479.259,235.628 479.32,280.459 479.386,221.76 479.448,270.786 479.703,249.117 479.769,256.24 479.83,238.166 479.896,221.75 480.085,265.162 480.151,225.165 480.212,258.082 480.278,237.803 480.34,211.124 480.533,242.26 480.595,267.315 480.661,239.585 480.722,240.918 480.788,268.273 480.977,258.484 481.043,240.558 481.104,247.764 481.17,257.717 481.232,220.027 481.487,225.97 481.553,223.222 481.619,250.944 481.68,242.333 481.874,228.515 481.935,259.038 482.001,234.855 482.062,229.23 482.128,248.743 482.317,254.765 482.383,214.261 482.445,236.86 482.511,238.155 482.572,239.698 482.766,239.801 482.827,256.002 482.893,238.313 482.955,244.582 483.021,224.997 483.209,243.516 483.275,243.25 483.337,234.331 483.403,233.977 483.464,238.153 483.658,241.168 483.719,242.686 483.785,251.804 483.847,241.225 484.102,244.222 484.167,230.25 484.229,239.712 484.295,246.408 484.361,232.551 484.55,248.541 484.616,255.435 484.677,229.107 484.743,258.023 484.805,242.23 484.998,249.237 485.06,231.258 485.125,232.424 485.187,243.891 485.253,245.441 485.442,233.166 485.508,240.467 485.569,243.052 485.635,250.687 485.697,243.527 485.89,244.626 485.952,242.543 486.018,241.509 486.079,253.601 486.145,247.944 486.334,233.987 486.4,253.022 486.461,249.903 486.527,245.33 486.589,237.178 486.782,242.731 486.844,228.869 486.91,256.326 486.971,245.495 487.037,254.581 487.23,229.897 487.292,256.053 487.358,241.555 487.419,246.593 487.485,236.582"/>
</g>
</svg>
