<?xml version="1.0" encoding="UTF-8" standalone="no"?>
<svg xmlns="http://www.w3.org/2000/svg"
     xmlns:xlink="http://www.w3.org/1999/xlink"
     width="560px" height="420px" viewBox="0 0 560 420">
<title>glps_renderer figure</title>
<desc>
Creator: GL2PS 1.3.9, (C) 1999-2015 C. Geuzaine
For: Octave
CreationDate: Wed May  3 08:01:26 2017
</desc>
<defs>
</defs>
<g shape-rendering="crispEdges">
<polygon fill="#ffffff" points="74.8792,384.48 521.279,384.48 74.8792,32.4"/>
<polygon fill="#ffffff" points="521.279,384.48 521.279,32.4 74.8792,32.4"/>
<polyline fill="none" stroke="#000000" stroke-width="0.5" stroke-dasharray="16,0" points="74.8792,384.48 521.279,384.48"/>
<polyline fill="none" stroke="#000000" stroke-width="0.5" stroke-dasharray="16,0" points="74.8792,32.4 521.279,32.4"/>
<polyline fill="none" stroke="#000000" stroke-width="0.5" stroke-dasharray="16,0" points="74.8792,384.48 74.8792,32.4"/>
<polyline fill="none" stroke="#000000" stroke-width="0.5" stroke-dasharray="16,0" points="521.279,384.48 521.279,32.4"/>
<polyline fill="none" stroke="#000000" stroke-width="0.5" stroke-dasharray="0,3,1,3,1,3,1,3,1,0" points="105.872,384.48 105.872,32.4"/>
<polyline fill="none" stroke="#000000" stroke-width="0.5" stroke-dasharray="0,3,1,3,1,3,1,3,1,0" points="222.335,384.48 222.335,32.4"/>
<polyline fill="none" stroke="#000000" stroke-width="0.5" stroke-dasharray="0,3,1,3,1,3,1,3,1,0" points="338.798,384.48 338.798,32.4"/>
<polyline fill="none" stroke="#000000" stroke-width="0.5" stroke-dasharray="0,3,1,3,1,3,1,3,1,0" points="455.261,384.48 455.261,32.4"/>
<polyline fill="none" stroke="#000000" stroke-width="0.5" stroke-dasharray="16,0" points="105.872,384.48 105.872,380.015"/>
<polyline fill="none" stroke="#000000" stroke-width="0.5" stroke-dasharray="16,0" points="105.872,32.4 105.872,36.8651"/>
<polyline fill="none" stroke="#000000" stroke-width="0.5" stroke-dasharray="16,0" points="222.335,384.48 222.335,380.015"/>
<polyline fill="none" stroke="#000000" stroke-width="0.5" stroke-dasharray="16,0" points="222.335,32.4 222.335,36.8651"/>
<polyline fill="none" stroke="#000000" stroke-width="0.5" stroke-dasharray="16,0" points="338.798,384.48 338.798,380.015"/>
<polyline fill="none" stroke="#000000" stroke-width="0.5" stroke-dasharray="16,0" points="338.798,32.4 338.798,36.8651"/>
<polyline fill="none" stroke="#000000" stroke-width="0.5" stroke-dasharray="16,0" points="455.261,384.48 455.261,380.015"/>
<polyline fill="none" stroke="#000000" stroke-width="0.5" stroke-dasharray="16,0" points="455.261,32.4 455.261,36.8651"/>
<text fill="#000000" x="105.872" y="389.481" font-size="10" text-anchor="middle" baseline-shift="-10" font-family="Helvetica">2000/01</text>
<text fill="#000000" x="222.336" y="389.481" font-size="10" text-anchor="middle" baseline-shift="-10" font-family="Helvetica">2004/12</text>
<text fill="#000000" x="338.799" y="389.481" font-size="10" text-anchor="middle" baseline-shift="-10" font-family="Helvetica">2009/12</text>
<text fill="#000000" x="455.259" y="389.481" font-size="10" text-anchor="middle" baseline-shift="-10" font-family="Helvetica">2014/12</text>
<polyline fill="none" stroke="#000000" stroke-width="0.5" stroke-dasharray="0,3,1,3,1,3,1,3,1,0" points="74.8792,384.48 521.279,384.48"/>
<polyline fill="none" stroke="#000000" stroke-width="0.5" stroke-dasharray="0,3,1,3,1,3,1,3,1,0" points="74.8792,296.46 521.279,296.46"/>
<polyline fill="none" stroke="#000000" stroke-width="0.5" stroke-dasharray="0,3,1,3,1,3,1,3,1,0" points="74.8792,208.44 521.279,208.44"/>
<polyline fill="none" stroke="#000000" stroke-width="0.5" stroke-dasharray="0,3,1,3,1,3,1,3,1,0" points="74.8792,120.42 521.279,120.42"/>
<polyline fill="none" stroke="#000000" stroke-width="0.5" stroke-dasharray="0,3,1,3,1,3,1,3,1,0" points="74.8792,32.4 521.279,32.4"/>
<polyline fill="none" stroke="#000000" stroke-width="0.5" stroke-dasharray="16,0" points="74.8792,384.48 79.3481,384.48"/>
<polyline fill="none" stroke="#000000" stroke-width="0.5" stroke-dasharray="16,0" points="521.279,384.48 516.814,384.48"/>
<polyline fill="none" stroke="#000000" stroke-width="0.5" stroke-dasharray="16,0" points="74.8792,296.46 79.3481,296.46"/>
<polyline fill="none" stroke="#000000" stroke-width="0.5" stroke-dasharray="16,0" points="521.279,296.46 516.814,296.46"/>
<polyline fill="none" stroke="#000000" stroke-width="0.5" stroke-dasharray="16,0" points="74.8792,208.44 79.3481,208.44"/>
<polyline fill="none" stroke="#000000" stroke-width="0.5" stroke-dasharray="16,0" points="521.279,208.44 516.814,208.44"/>
<polyline fill="none" stroke="#000000" stroke-width="0.5" stroke-dasharray="16,0" points="74.8792,120.42 79.3481,120.42"/>
<polyline fill="none" stroke="#000000" stroke-width="0.5" stroke-dasharray="16,0" points="521.279,120.42 516.814,120.42"/>
<polyline fill="none" stroke="#000000" stroke-width="0.5" stroke-dasharray="16,0" points="74.8792,32.4 79.3481,32.4"/>
<polyline fill="none" stroke="#000000" stroke-width="0.5" stroke-dasharray="16,0" points="521.279,32.4 516.814,32.4"/>
<text fill="#000000" x="69.8735" y="384.48" font-size="10" text-anchor="end" baseline-shift="-5" font-family="Helvetica">0</text>
<text fill="#000000" x="69.8735" y="296.46" font-size="10" text-anchor="end" baseline-shift="-5" font-family="Helvetica">20</text>
<text fill="#000000" x="69.8735" y="208.44" font-size="10" text-anchor="end" baseline-shift="-5" font-family="Helvetica">40</text>
<text fill="#000000" x="69.8735" y="120.42" font-size="10" text-anchor="end" baseline-shift="-5" font-family="Helvetica">60</text>
<text fill="#000000" x="69.8735" y="32.4" font-size="10" text-anchor="end" baseline-shift="-5" font-family="Helvetica">80</text>
<polyline fill="none" stroke="#0000ff" stroke-width="0.5" points="106,377.56 106.064,371.359 106.128,370.959 106.192,378.484 106.256,380.399 106.448,379.296 106.512,381.195 106.577,378.806 106.641,380.079 106.7,378.404 106.957,380.049 107.021,382.423 107.085,379.027 107.149,381.904 107.341,375.394 107.405,376.719 107.469,381.469 107.529,376.138 107.593,372.049 107.786,375.759 107.85,379.763 107.914,379.743 107.978,376.298 108.042,381.193 108.234,382.05 108.298,380.349 108.362,380.373 108.422,379.692 108.486,379.866 108.679,379.817 108.743,378.899 108.807,380.407 108.871,376.615 108.935,377.511 109.191,375.948 109.255,379.124 109.315,371.828 109.379,374.419 109.572,375.204 109.636,378.535 109.7,379.988 109.764,380.152 109.828,378.202 110.02,381.3 110.084,372.021 110.144,377.643 110.208,379.95 110.272,378.683 110.464,362.244 110.529,377.137 110.593,373.847 110.657,371.401 110.913,380.428 110.977,377.384 111.037,381.015 111.101,377.827 111.165,377.6 111.357,380.986 111.486,377.598 111.55,373.548 111.614,372.135 111.806,374.785 111.866,327.811 111.93,361.69 111.994,376.223 112.058,379.835 112.25,380.016 112.314,372.983 112.379,379.217 112.443,367.811 112.507,335.474 112.699,354.177 112.759,373.277 112.823,377.245 112.887,381.04 113.143,361.506 113.207,374.272 113.271,379.752 113.336,367.169 113.4,378.204 113.588,378.437 113.652,379.79 113.716,373.125 113.78,379.185 113.844,378.829 114.036,378.751 114.1,378.909 114.164,372.454 114.229,375.807 114.293,380.765 114.481,380.987 114.545,374.459 114.609,377.076 114.673,381.14 114.737,374.923 114.929,370.371 114.993,376.769 115.057,369.877 115.121,376.507 115.186,375.936 115.438,375.267 115.502,377.927 115.566,378.439 115.63,370.598 115.822,379.583 115.886,381.286 115.95,381.041 116.014,381.743 116.078,381.136 116.266,382.128 116.331,381.131 116.395,380.496 116.459,380.897 116.523,382.201 116.715,382.081 116.779,380.578 116.843,380.481 116.907,380.237 116.971,380.835 117.159,380.909 117.224,382.478 117.288,381.101 117.352,377.6 117.416,381.724 117.736,381.322 117.8,381.833 117.864,382.434 118.052,382.577 118.116,380.907 118.181,381.051 118.245,382.908 118.309,382.343 118.501,383.373 118.565,382.217 118.629,382.258 118.693,380.563 118.757,382.715 118.945,382.16 119.009,380.297 119.073,380.175 119.138,378.71 119.202,377.515 119.394,379.645 119.458,380.83 119.522,381.149 119.586,378.073 119.646,380.824 119.838,382.578 119.902,382.636 119.966,381.517 120.031,382.465 120.095,381.927 120.287,383.294 120.351,382.891 120.415,382.765 120.479,382.322 120.539,383.003 120.731,382.157 120.795,382.752 120.859,382.891 120.923,383.5 120.988,383.469 121.18,382.967 121.244,383.044 121.308,383.299 121.368,382.51 121.432,381.122 121.688,382.085 121.752,382.245 121.816,382.335 121.88,382.409 122.073,381.205 122.137,382.175 122.201,379.719 122.261,381.343 122.325,382.093 122.517,381.695 122.581,380.05 122.645,378.659 122.709,378.925 122.773,364.268 122.966,380.936 123.03,379.814 123.09,377.878 123.154,380.572 123.218,379.099 123.41,379.381 123.474,379.347 123.538,376.548 123.602,380.035 123.666,376.68 123.859,380.132 123.923,377.23 123.983,366.289 124.047,360.845 124.111,376.887 124.303,380.421 124.367,378.105 124.431,355.28 124.495,369.319 124.559,380.281 124.752,380.584 124.811,377.642 124.875,374.321 124.94,371.386 125.004,374.298 125.196,378.845 125.26,380.078 125.324,378.475 125.388,380.635 125.452,381.719 125.645,382.98 125.704,382.23 125.768,379.064 125.833,369.257 125.897,375.257 126.089,367.076 126.153,371.642 126.217,378.698 126.281,379.439 126.345,371.651 126.533,376.375 126.597,379.097 126.661,373.256 126.79,378.245 126.982,376.042 127.046,378.396 127.11,376.047 127.174,364.684 127.238,375.423 127.426,376.084 127.49,375.139 127.554,375.863 127.618,380.18 127.682,370.345 127.875,380.574 127.939,381.287 128.003,376.11 128.067,377.793 128.131,373.709 128.319,375.041 128.383,369.988 128.447,363.467 128.511,374.354 128.575,376.812 128.832,380.834 128.896,380.738 128.96,382.06 129.024,380.491 129.276,375.924 129.34,339.728 129.404,377.007 129.468,373.932 129.725,376.078 129.789,374.567 129.853,381.216 129.917,379.673 130.169,381.004 130.233,377.654 130.297,380.541 130.361,379.004 130.554,380.096 130.618,381.101 130.682,381.11 130.746,380.918 130.81,380.577 130.998,382.387 131.062,382.097 131.126,379.771 131.19,381.22 131.254,381.525 131.447,382.036 131.511,382.605 131.575,380.301 131.639,381.699 131.703,381.396 131.891,381.44 131.955,381.456 132.019,380.578 132.083,380.955 132.147,374.05 132.404,381.025 132.468,378.965 132.532,369.185 132.592,369.156 132.784,378.732 132.848,380.86 132.912,374.974 132.976,372.323 133.04,372.015 133.232,380.935 133.297,376.126 133.361,378.843 133.484,374.407 133.677,366.875 133.741,372.212 133.805,344.343 133.869,374.341 133.933,373.256 134.125,378.697 134.189,372.55 134.313,360.316 134.377,369.881 134.57,376.079 134.634,378.957 134.698,367.792 134.762,373.164 134.826,374.952 135.082,371.813 135.146,368.678 135.206,364.374 135.27,363.632 135.463,377.363 135.527,375.589 135.591,373.083 135.655,376.182 135.911,379.467 135.975,375.155 136.099,379.988 136.163,379.462 136.356,380.293 136.42,380.552 136.484,379.197 136.548,379.923 136.612,376.756 136.804,380.279 136.868,381.008 136.928,379.187 136.992,377.189 137.056,373.016 137.249,380.936 137.313,381.474 137.377,378.865 137.441,379.356 137.505,380.954 137.697,382.968 137.757,380.057 137.821,379.242 137.885,380.197 137.949,381.888 138.141,381.596 138.206,381.589 138.27,381.007 138.334,381.375 138.398,382.615 138.65,382.489 138.714,380.232 138.778,381.187 138.842,380.903 139.034,381.871 139.099,382.016 139.163,381.028 139.227,381.677 139.291,382.639 139.483,382.782 139.543,378.557 139.607,382.344 139.671,380.698 139.735,376.927 139.927,380.893 139.991,374.855 140.056,380.667 140.12,381.044 140.184,381.596 140.372,381.727 140.436,377.85 140.5,379.248 140.564,379.624 140.628,382.154 140.82,382.377 140.884,383.393 141.013,382.149 141.077,379.777 141.265,382.097 141.329,380.998 141.393,378.516 141.457,379.065 141.521,381.87 141.713,381.584 141.777,380.972 141.841,379.02 141.906,378.028 141.97,381.437 142.158,380.349 142.222,379.156 142.286,380.013 142.35,381.042 142.414,381.844 142.606,381.991 142.67,381.934 142.734,382.061 142.798,381.011 142.863,381.007 143.051,382.434 143.115,382.731 143.179,380.683 143.243,379.76 143.307,379.773 143.499,382.635 143.563,381.77 143.627,381.415 143.691,379.242 143.755,378.404 143.943,382.674 144.136,382.916 144.2,380.98 144.392,382.465 144.456,381.146 144.52,380.859 144.584,377.71 144.648,379.133 144.901,378.036 144.965,373.66 145.029,371.138 145.093,372.245 145.285,382.028 145.729,361.264 145.793,379.702 145.858,365.404 145.922,361.043 145.986,319.265 146.178,351.228 146.242,376.991 146.306,377.946 146.37,376.77 146.43,376.061 146.622,379.005 146.686,379.016 146.75,375.067 146.815,375.231 146.879,375.997 147.135,380.905 147.199,378.631 147.259,376.866 147.323,369.302 147.515,378.638 147.579,379.285 147.643,373.582 147.708,379.478 147.772,380.825 147.964,380.596 148.028,378.732 148.152,372.251 148.216,378.181 148.408,378.538 148.472,375.619 148.536,376.784 148.6,376.106 148.665,378.886 148.857,378.121 148.921,378.61 148.985,381.661 149.045,378.534 149.109,379.325 149.301,369.079 149.365,376.962 149.429,382.17 149.493,380.813 149.557,381.202 149.75,381.36 149.814,381.528 149.874,381.748 150.002,383.527 150.194,382.018 150.258,377.257 150.322,378.761 150.386,380.347 150.45,382.303 150.643,378.928 150.707,382.045 150.767,379.876 150.831,382.064 150.895,380.872 151.087,381.562 151.151,381.277 151.215,380.763 151.279,377.154 151.343,380.953 151.536,382.081 151.595,381.127 151.66,380.195 151.724,382.504 151.788,382.276 151.98,384.148 152.108,382.571 152.172,383.375 152.236,382.874 152.429,382.671 152.552,380.371 152.617,382.583 152.681,379.676 152.873,382.402 152.937,382.084 153.001,380.031 153.065,382.108 153.129,381.747 153.317,382.77 153.381,381.51 153.445,380.088 153.574,383.222 153.83,381.374 153.894,381.927 153.958,381.657 154.022,382.163 154.21,384.044 154.274,379.776 154.338,371.381 154.402,380.677 154.659,379.99 154.723,375.755 154.787,376.611 154.851,379.037 154.915,380.071 155.103,382.197 155.167,381.055 155.231,381.671 155.295,381.459 155.359,381.005 155.616,379.666 155.68,379.62 155.744,379.272 155.808,377.421 155.996,380.678 156.06,379.508 156.124,378.853 156.188,380.133 156.252,380.432 156.445,381.543 156.509,379.357 156.573,381.87 156.637,379.752 156.701,379.535 156.889,382.64 156.953,376.593 157.017,381.797 157.081,383.207 157.145,382.434 157.338,381.754 157.402,382.042 157.466,380.782 157.53,381.728 157.594,381.873 157.782,382.46 157.846,380.513 157.91,382.449 157.974,382.572 158.231,380.962 158.295,381.814 158.359,381.894 158.423,381.967 158.483,381.515 158.675,378.785 158.739,382.356 158.803,382.106 158.867,380.161 158.931,380.955 159.124,381.241 159.188,378.641 159.252,382.727 159.316,376.51 159.376,383.029 159.568,382.248 159.632,381.259 159.696,381.547 159.76,380.877 159.824,380.876 160.016,381.088 160.081,380.612 160.145,379.546 160.209,380.581 160.269,380.509 160.461,380.815 160.525,379.702 160.589,369.123 160.653,378.378 160.717,380.502 160.909,381.117 160.974,375.807 161.038,378.83 161.097,381.926 161.161,381.705 161.354,380.836 161.418,381.187 161.482,380.653 161.546,381.384 161.61,382.304 161.866,381.714 161.931,382.484 161.99,379.49 162.054,381.764 162.247,378.768 162.311,375.748 162.375,381.062 162.439,380.319 162.503,370.279 162.695,379.65 162.759,379.155 162.819,375.965 162.883,378.67 162.947,366.989 163.14,378.969 163.204,379.934 163.268,378.343 163.332,378.623 163.396,377.481 163.588,373.044 163.652,372.96 163.712,351.183 163.776,370.507 163.84,379.489 164.033,377.991 164.097,373.593 164.161,374.836 164.289,376.127 164.481,376.157 164.541,375.781 164.605,370.114 164.669,355.955 164.733,367.132 164.926,358.515 164.99,360.195 165.054,344.899 165.118,372.465 165.182,360.784 165.374,336.113 165.434,347.945 165.498,320.524 165.562,330.655 165.626,367.131 165.818,361.787 165.883,363.873 165.947,369.916 166.011,369.452 166.075,371.781 166.263,373.04 166.327,357.032 166.391,351.512 166.455,371.263 166.519,368.319 166.711,369.477 166.776,369.013 166.84,368.584 166.904,367.32 166.968,381.677 167.156,379.453 167.22,375.25 167.284,370.652 167.348,377.888 167.412,376.378 167.604,377.922 167.668,372.814 167.733,375.568 167.797,367.9 167.861,373.719 168.113,367.591 168.177,377.318 168.241,365.91 168.305,367.095 168.497,376.177 168.561,381.224 168.625,378.374 168.69,377.342 168.754,374.324 168.942,379.354 169.006,372.815 169.07,370.991 169.134,368.337 169.198,376.736 169.39,370.666 169.454,361.866 169.518,365.02 169.583,371.696 169.647,373.073 169.835,354.352 169.899,368.553 169.963,373.73 170.027,365.687 170.091,349.216 170.283,369.022 170.347,354.627 170.411,355.005 170.475,362.106 170.54,360.654 170.728,372.718 170.792,352.73 170.856,371.678 170.92,352.819 170.984,371.904 171.176,375.342 171.24,381.134 171.304,372.728 171.368,374.338 171.432,374.693 171.62,374.451 171.685,370.834 171.749,376.371 171.877,373.891 172.069,373.668 172.133,379.983 172.197,368.046 172.261,375.752 172.321,376.406 172.513,378.644 172.578,377.151 172.642,373.101 172.706,372.045 172.77,375.742 172.962,378.494 173.026,379.194 173.154,377.962 173.214,380.026 173.406,380.843 173.47,378.996 173.535,376.919 173.663,382.627 173.855,367.269 173.919,378.218 173.983,372.954 174.043,380.139 174.107,372.654 174.299,377.674 174.363,380.185 174.427,378.484 174.492,379.429 174.556,376.695 174.748,380.836 174.812,381.246 174.876,379.463 174.936,379.363 175,378.873 175.192,381.296 175.256,383.404 175.385,380.5 175.449,380.581 175.641,380.863 175.705,379.219 175.829,373.062 175.893,380.221 176.085,381.53 176.149,379.583 176.213,378.888 176.277,379.468 176.342,377.37 176.534,379.044 176.598,381.353 176.658,381.5 176.722,380.018 177.106,380.092 177.17,377.917 177.234,377.32 177.427,372.931 177.487,378.084 177.551,373.63 177.615,378.714 177.679,376.889 177.871,379.65 177.935,373.373 177.999,376.316 178.063,376.372 178.127,376.24 178.32,378.51 178.38,380.333 178.444,379.357 178.508,376.682 178.572,375.45 178.828,377.514 178.892,380.859 178.956,380.961 179.02,377.796 179.208,380.244 179.272,373.505 179.337,378.859 179.401,375.936 179.465,379.811 179.657,377.884 179.721,382.222 179.785,379.018 179.849,375.78 179.913,369.609 180.101,378.79 180.165,378.905 180.229,376.353 180.294,370.965 180.358,373.992 180.55,367.993 180.614,376.069 180.678,377.769 180.742,375.388 180.806,375.521 180.994,365.584 181.058,377.996 181.122,379.683 181.187,377.683 181.251,379.508 181.443,373.537 181.507,378.689 181.571,370.695 181.635,381.156 181.699,377.238 181.887,361.224 181.951,379.69 182.015,378.178 182.079,382.031 182.144,376.614 182.336,380.409 182.4,381.377 182.464,378.671 182.528,382.206 182.78,380.531 182.844,379.191 182.908,382.085 182.972,380.388 183.036,381.441 183.229,381.459 183.293,378.866 183.357,379.283 183.421,379.772 183.485,380.008 183.673,380.721 183.737,380.87 183.801,380.178 183.865,379.344 183.929,381.464 184.122,382.01 184.186,381.397 184.25,380.778 184.314,379.964 184.378,381.967 184.566,379.954 184.63,378.645 184.694,380.247 184.758,381.389 184.822,382.714 185.079,380.659 185.143,381.44 185.207,380.303 185.267,380.895 185.459,379.125 185.523,380.807 185.587,381.571 185.651,379.992 185.715,376.038 185.908,381.772 185.972,381.264 186.036,381.725 186.1,380.519 186.16,381.016 186.352,381.213 186.416,381.802 186.48,381.833 186.544,380.947 186.608,380.402 186.801,382.019 186.865,382.009 186.929,378.763 186.989,381.39 187.053,380.958 187.245,379.268 187.309,379.507 187.373,382.076 187.437,378.485 187.693,378.903 187.758,381.915 187.822,380.52 187.881,379.55 187.946,381.141 188.138,375.618 188.202,378.978 188.266,381.691 188.33,379.877 188.394,381.13 188.586,381.32 188.651,379.599 188.71,382.698 188.774,379.547 188.839,380.72 189.031,380.545 189.095,378.499 189.159,382.243 189.223,375.484 189.287,380.959 189.479,379.231 189.543,378.131 189.603,380.003 189.667,381.496 189.731,381.727 189.924,382 189.988,381.902 190.052,382.692 190.116,382.018 190.18,383.837 190.372,382.885 190.436,382.402 190.496,382.356 190.56,380.87 190.624,379.531 190.817,382.938 190.881,381.02 190.945,383.674 191.009,382.163 191.073,382.006 191.325,381.299 191.389,381.91 191.453,383.185 191.517,381.858 191.71,382.518 191.774,382.318 191.838,382.042 191.902,381.92 191.966,381.923 192.158,383.085 192.218,382.987 192.282,383.154 192.346,383.062 192.41,383.127 192.603,379.311 192.667,382.364 192.731,381.843 192.795,381.107 192.859,380.306 193.047,381.34 193.111,378.544 193.175,380.998 193.239,382.072 193.303,374.32 193.495,383.424 193.56,381.265 193.624,382.978 193.688,378.971 193.752,383.312 193.94,382.264 194.004,383.219 194.132,383.491 194.196,382.481 194.388,382.856 194.453,383.032 194.517,379.977 194.581,381.734 194.645,379.996 194.833,382.056 194.897,382.504 194.961,382.368 195.025,381.192 195.089,382.674 195.281,382.439 195.345,382.912 195.41,382.204 195.474,382.872 195.538,382.372 195.726,383.575 195.79,383.573 195.854,383.295 195.918,382.789 195.982,382.273 196.174,380.621 196.238,381.809 196.302,382.813 196.367,380.529 196.431,382.039 196.619,381.383 196.683,383.167 196.747,382.642 196.875,384.114 197.067,381.884 197.131,383.357 197.195,382.303 197.26,383.004 197.324,381.811 197.512,383.407 197.576,382.271 197.64,382.979 197.704,383.117 197.768,383.322 197.96,379.905 198.024,382.743 198.088,383.528 198.152,383.598 198.212,383.059 198.405,383.63 198.469,383.815 198.533,383.985 198.661,384.172 198.853,383.38 198.917,383.978 198.981,383.624 199.105,382.316 199.297,382.029 199.362,383.499 199.426,383.17 199.49,383.053 199.554,381.345 199.874,383.52 199.938,382.377 199.998,382.81 200.255,383.346 200.319,382.923 200.383,382.95 200.447,382.649 200.639,383.231 200.703,382.996 200.767,380.066 200.827,380.71 200.891,382.239 201.083,380.725 201.147,382.97 201.212,380.783 201.276,382.481 201.34,382.253 201.532,383.647 201.596,383.423 201.66,382.545 201.72,383.519 201.784,382.399 202.04,381.554 202.104,383.707 202.169,382.192 202.233,382.251 202.425,382.971 202.489,382.462 202.549,383.673 202.613,383.31 202.677,382.958 202.869,383.02 202.933,382.81 202.997,383.476 203.062,383.884 203.126,379.599 203.318,383.372 203.382,381.957 203.442,382.216 203.506,379.409 203.57,381.506 203.762,380.633 203.826,380.051 203.89,382.614 203.954,381.231 204.019,382.799 204.211,379.05 204.271,381.032 204.335,380.507 204.399,381.284 204.463,382.944 204.655,381.538 204.719,382.999 204.783,382.817 204.847,382.76 204.911,378.46 205.104,383.796 205.164,382.757 205.228,382.934 205.292,380.51 205.548,383.386 205.612,382.368 205.676,381.762 205.74,381.86 205.804,382.962 205.992,383.502 206.057,382.741 206.121,382.005 206.185,381.782 206.249,383.266 206.441,382.871 206.505,382.357 206.569,381.933 206.633,380.639 206.697,379.997 206.885,382.421 206.949,380.362 207.014,382.832 207.078,381.001 207.142,379.787 207.334,377.712 207.398,382.271 207.462,378.74 207.526,380.809 207.59,380.472 207.778,377.374 207.842,382.2 207.906,380.063 207.971,382.732 208.035,382.354 208.227,381.509 208.291,382.373 208.355,383.263 208.419,382.187 208.483,383.923 208.735,383.054 208.799,383.007 208.864,382.728 208.928,381.641 209.12,382.913 209.184,383.145 209.248,383.212 209.312,383.678 209.564,382.544 209.628,381.411 209.692,383.825 209.756,383.475 209.821,383.453 210.013,383.786 210.077,383.272 210.141,383.535 210.205,383.519 210.269,383.669 210.457,381.957 210.521,383.76 210.585,383.212 210.649,382.414 210.714,383.12 210.97,382.879 211.034,383.675 211.098,382.085 211.162,382.637 211.35,383.247 211.414,384.053 211.478,381.754 211.542,383.036 211.606,382.46 211.799,382.732 211.863,382.798 211.927,381.855 211.991,380.943 212.051,382.052 212.243,381.223 212.307,382.346 212.371,380.987 212.435,382.045 212.499,383.136 212.692,382.823 212.756,383.369 212.82,382.126 212.884,382.158 212.944,379.381 213.136,383.072 213.2,382.469 213.264,379.585 213.328,382.216 213.392,382.593 213.585,382.67 213.649,383.164 213.713,382.409 213.773,382.778 213.837,383.223 214.029,383.535 214.093,382.724 214.157,383.256 214.221,383.751 214.285,384.016 214.478,383.69 214.542,383.254 214.606,383.169 214.666,383.591 214.73,383.337 214.986,381.863 215.05,383.43 215.114,382.969 215.178,383.252 215.37,383.638 215.435,383.817 215.494,383.517 215.558,383.942 215.623,383.321 215.815,382.676 215.879,383.654 215.943,381.368 216.007,383.2 216.071,383.691 216.263,383.464 216.328,383.156 216.387,383.38 216.451,383.253 216.516,382.584 216.708,382.636 216.772,383.613 216.836,383.735 216.9,383.754 216.964,383.174 217.156,383.785 217.28,381.8 217.344,383.276 217.408,381.771 217.601,382.717 217.665,382.927 217.729,382.137 217.793,382.349 217.857,382.844 218.049,382.359 218.109,382.788 218.173,382.391 218.237,382.844 218.301,383.384 218.494,383.592 218.558,382.504 218.622,375.106 218.686,382.961 218.75,382.601 218.938,383.608 219.002,383.421 219.066,383.369 219.13,383.502 219.194,383.846 219.387,383.191 219.451,383.486 219.515,381.877 219.579,383.621 219.643,383.122 219.831,383.493 219.895,383.147 219.959,383.484 220.087,384.193 220.28,382.175 220.344,383.243 220.408,383.145 220.472,383.124 220.536,382.359 220.724,383.384 220.788,383.009 220.852,383.277 220.916,382.185 220.98,383.149 221.172,382.55 221.237,383.756 221.301,383.368 221.365,383.149 221.429,382.387 221.617,382.5 221.681,383.401 221.745,383.738 221.809,384.003 222.065,383.271 222.13,383.632 222.194,384.096 222.258,384.201 222.322,384.12 222.51,382.142 222.574,382.245 222.638,382.464 222.702,382.81 222.766,382.659 222.958,383.139 223.022,382.753 223.087,382.269 223.151,383.44 223.215,383.386 223.467,383.143 223.531,383.683 223.595,381.533 223.659,382.737 223.851,382.428 223.915,382.358 223.979,382.831 224.044,383.466 224.108,383.227 224.296,381.649 224.36,383.885 224.424,383.572 224.488,383.266 224.552,383.64 224.744,383.955 224.808,383.879 224.872,383.307 224.937,383.251 224.996,383.022 225.189,384.085 225.253,383.812 225.317,383.554 225.381,383.309 225.445,383.743 225.701,382.543 225.765,382.719 225.829,382.705 225.889,383.484 226.082,383.027 226.146,383.181 226.21,382.132 226.274,382.926 226.338,382.284 226.53,383.761 226.594,383.517 226.658,382.856 226.718,382.701 226.782,382.796 226.974,383.443 227.039,383.112 227.103,382.929 227.167,383.567 227.231,383.008 227.423,382.746 227.487,381.722 227.551,382.839 227.611,383.158 227.867,383.251 227.932,382.596 227.996,382.898 228.06,383.459 228.124,380.746 228.316,383.21 228.38,383.028 228.44,383.064 228.504,383.605 228.568,383.578 228.76,383.658 228.824,382.322 228.889,382.77 228.953,381.94 229.017,380.634 229.209,381.853 229.273,382.044 229.333,381.613 229.397,379.204 229.461,380.725 229.653,381.996 229.717,382.515 229.781,381.774 229.846,381.804 229.91,380.103 230.102,383.114 230.162,380.911 230.226,382.611 230.29,381.987 230.354,382.565 230.546,383.522 230.61,381.381 230.674,382.583 230.739,382.318 230.803,381.216 230.995,383.295 231.055,382.72 231.119,382.29 231.183,383.429 231.247,383.578 231.439,383.436 231.503,383.161 231.567,383.414 231.631,383.535 231.696,384.172 231.948,383.491 232.012,382.385 232.076,383.341 232.14,383.346 232.332,384.007 232.396,382.599 232.46,383.449 232.524,382.959 232.589,383.625 232.776,383.248 232.841,383.592 232.905,382.979 232.969,383.569 233.033,382.274 233.225,383.253 233.289,383.665 233.353,382.769 233.417,382.928 233.481,383.479 233.669,383.639 233.734,383.529 233.798,383.662 233.862,383.049 233.926,382.901 234.182,383.349 234.246,383.459 234.31,380.098 234.374,383.524 234.562,383.643 234.626,383.506 234.691,383.885 234.755,381.967 234.819,383.931 235.011,383.726 235.075,382.555 235.139,382.864 235.203,382.213 235.267,383.625 235.455,383.595 235.519,383.563 235.583,383.628 235.648,383.602 235.712,383.762 235.904,383.505 235.968,383.855 236.032,383.929 236.096,383.617 236.16,383.555 236.348,383.292 236.412,383.084 236.476,382.431 236.541,382.996 236.605,382.936 236.797,383.732 236.861,383.076 236.925,383.211 236.989,383.191 237.053,383.503 237.241,382.859 237.305,383.527 237.369,382.914 237.433,383.776 237.498,383.169 237.69,383.218 237.754,382.211 237.818,382.018 237.882,382.011 237.942,383.43 238.198,382.737 238.262,383.732 238.326,383.478 238.391,383.621 238.583,384.025 238.647,383.341 238.711,383.415 238.775,382.973 238.835,383.049 239.027,383.815 239.091,382.736 239.155,383.065 239.219,382.13 239.283,383.394 239.476,382.247 239.54,383.063 239.604,383.079 239.664,382.532 239.728,383.659 239.92,383.434 239.984,382.732 240.048,382.014 240.112,380.111 240.176,382.356 240.369,382.391 240.433,381.97 240.497,380.954 240.557,380.436 240.621,381.533 240.813,383.247 240.877,383.087 240.941,380.962 241.005,380.182 241.069,381.013 241.262,381.448 241.326,382.222 241.39,381.818 241.45,382.962 241.514,381.003 241.706,382.439 241.77,383.639 241.834,383.212 241.898,382.406 241.962,383.047 242.155,383.399 242.219,383.2 242.278,383.448 242.343,382.617 242.407,384.206 242.599,383.789 242.663,383.406 242.727,383.413 242.791,383.432 242.855,382.91 243.047,383.835 243.112,383.51 243.171,383.882 243.3,384.192 243.492,383.738 243.556,382.971 243.62,383.199 243.684,382.372 243.748,383.895 243.94,383.606 244,382.739 244.064,383.29 244.128,382.879 244.193,383.612 244.385,383.385 244.449,383.323 244.513,383.587 244.577,383.5 244.641,383.588 244.833,383.592 244.893,383.754 244.957,383.002 245.021,383.863 245.085,384.209 245.342,383.112 245.406,383.801 245.47,383.768 245.534,383.284 245.786,381.288 245.85,383.317 245.914,383.559 245.978,381.595 246.171,383.947 246.235,383.002 246.299,383.733 246.363,383.918 246.427,383.728 246.679,382.868 246.743,382.179 246.807,383.482 246.871,382.612 247.064,383.305 247.128,383.031 247.192,381.751 247.256,381.718 247.32,383.064 247.508,384.029 247.572,383.229 247.636,383.212 247.7,382.78 247.764,381.687 247.957,383.564 248.021,382.617 248.085,383.428 248.149,383.505 248.213,382.761 248.401,383.429 248.465,383.156 248.529,382.658 248.593,383.86 248.657,383.893 248.914,383.409 248.978,383.652 249.042,383.244 249.106,383.858 249.294,383.777 249.358,382.917 249.422,383.514 249.486,382.936 249.55,382.373 249.742,383.271 249.807,383.125 249.871,383.022 249.935,383.611 249.999,383.157 250.187,383.483 250.251,383.744 250.315,383.834 250.379,383.45 250.443,383.777 250.635,383.76 250.699,383.359 250.764,383.631 250.828,383.581 250.892,383.702 251.08,383.9 251.144,383.126 251.208,383.358 251.272,382.746 251.336,383.397 251.528,383.566 251.592,383.237 251.656,383.315 251.721,383.462 251.78,382.143 251.973,383.661 252.037,382.562 252.101,383.499 252.165,383.551 252.421,383.683 252.485,381.856 252.549,383.023 252.614,383.032 252.673,382.776 252.866,383.261 252.93,383.072 252.994,382.831 253.058,379.149 253.122,383.426 253.314,382.476 253.378,383.286 253.442,383.563 253.502,383.645 253.566,382.328 253.759,384.168 253.823,384.203 253.887,383.36 253.951,383.026 254.015,381.131 254.207,381.872 254.271,383.239 254.335,380.103 254.395,382.382 254.459,380.57 254.651,379.242 254.716,380.81 254.78,377.859 254.844,381.774 254.908,383.634 255.164,382.562 255.224,381.284 255.288,382.577 255.352,382.202 255.544,382.031 255.609,380.054 255.673,381.662 255.737,377.159 255.801,381.792 255.993,381.596 256.057,377.651 256.117,380.33 256.181,381.131 256.245,382.443 256.437,381.736 256.501,382.578 256.566,382.672 256.63,382.674 256.694,382.178 256.886,383.327 256.946,382.936 257.01,383.059 257.074,380.112 257.138,383.341 257.33,383.761 257.458,381.973 257.523,383.14 257.587,383.003 257.779,383.153 257.839,382.723 257.903,383.135 257.967,381.623 258.031,380.629 258.223,382.434 258.287,380.852 258.351,380.582 258.416,383.015 258.48,381.496 258.668,382.001 258.732,382.083 258.796,382.368 258.86,381.281 258.924,381.607 259.116,383.59 259.18,382.945 259.244,382.534 259.308,382.038 259.373,382.443 259.561,383.431 259.625,381.524 259.689,380.046 259.753,382.454 259.817,383.23 260.009,382.095 260.073,379.881 260.137,383.458 260.201,383.691 260.266,383.765 260.453,383.569 260.518,383.675 260.582,383.721 260.646,383.323 260.71,383.709 260.902,383.848 260.966,383.641 261.03,383.78 261.094,384.108 261.158,383.323 261.411,384.001 261.475,382.822 261.539,382.78 261.603,383.721 261.795,382.937 261.859,383.541 261.923,383.838 261.987,383.841 262.051,382.942 262.239,383.762 262.303,383.593 262.368,382.829 262.432,383.013 262.496,383.606 262.688,382.656 262.752,383.213 262.816,383.495 262.88,383.744 262.944,384.023 263.132,383.778 263.196,383.419 263.26,383.545 263.325,383.848 263.389,382.83 263.581,384.037 263.645,383.905 263.709,383.309 263.773,383.53 263.837,384.06 264.025,384.231 264.089,383.201 264.153,381.996 264.218,383.831 264.282,384.08 264.474,383.255 264.538,383.491 264.602,383.354 264.666,383.31 264.726,383.002 264.918,383.885 264.982,383.215 265.046,383.433 265.11,383.584 265.175,382.786 265.367,383.388 265.431,383.601 265.495,382.535 265.559,383.448 265.619,383.786 265.811,383.808 265.875,382.845 265.939,383.824 266.003,383.538 266.068,383.439 266.26,383.664 266.324,384.131 266.388,383.987 266.512,383.181 266.704,382.727 266.768,382.716 266.832,382.379 266.896,382.409 266.96,381.802 267.153,383.456 267.217,383.483 267.281,384.053 267.341,383.322 267.405,383.486 267.597,384.099 267.661,383.2 267.725,383.323 267.789,383.597 267.853,383.454 268.046,383.926 268.11,382.982 268.17,384.109 268.234,383.664 268.298,383.548 268.554,384.202 268.618,383.545 268.682,384.024 268.746,383.432 269.062,382.422 269.127,382.691 269.191,382.688 269.383,382.985 269.447,383.206 269.511,383.111 269.575,383.596 269.639,383.935 269.891,383.866 269.955,383.466 270.02,383.382 270.084,383.95 270.276,383.624 270.34,383.615 270.404,383.731 270.468,383.535 270.532,382.981 270.724,383.572 270.784,383.503 270.848,382.663 270.912,383.505 270.977,383.903 271.169,384.049 271.233,384.009 271.297,383.995 271.361,383.234 271.425,383.273 271.617,383.979 271.677,383.554 271.741,383.387 271.805,384.044 271.87,384.026 272.126,383.798 272.19,383.168 272.254,383.348 272.318,383.705 272.506,383.315 272.57,372.382 272.634,378.941 272.698,368.093 272.762,380.946 272.955,377.022 273.019,379.486 273.083,382.828 273.147,381.196 273.211,381.753 273.399,383.529 273.463,380.343 273.527,377.728 273.591,382.648 273.655,383.177 273.848,381.814 273.912,383.529 273.976,381.703 274.04,383.604 274.104,383.277 274.292,382.261 274.356,382.668 274.42,381.757 274.484,380.944 274.548,382.321 274.741,383.504 274.805,382.808 274.869,383.908 274.933,384.147 275.185,383.965 275.249,384.04 275.313,383.515 275.377,383.513 275.441,383.734 275.634,382.934 275.698,383.808 275.762,383.732 275.826,382.636 275.89,380.961 276.078,383.898 276.142,383.497 276.206,382.947 276.27,383.822 276.334,383.546 276.526,383.503 276.591,382.899 276.655,383.811 276.719,383.655 276.783,383.58 276.971,383.998 277.035,383.369 277.099,383.587 277.163,382.185 277.227,383.185 277.419,383.287 277.484,382.164 277.548,382.78 277.612,383.595 277.672,383.395 277.864,383.808 277.928,383.521 277.992,383.161 278.056,382.125 278.12,383.121 278.376,383.327 278.441,382.405 278.505,383.704 278.564,382.867 278.757,383.91 278.821,382.959 278.885,382.809 278.949,381.361 279.013,382.175 279.205,383.299 279.269,381.562 279.333,381.396 279.393,383.39 279.457,382.404 279.65,383.713 279.714,383.707 279.778,382.155 279.842,381.053 279.906,381.015 280.098,380.043 280.162,380.907 280.226,380.771 280.286,381.975 280.35,380.881 280.543,382.743 280.607,384.012 280.735,383.479 280.799,383.719 280.991,383.763 281.055,380.561 281.115,382.322 281.179,382.282 281.243,383.562 281.436,383.642 281.5,383.487 281.564,381.161 281.628,382.651 281.692,380.675 281.884,382.464 281.948,379.146 282.008,376.855 282.072,368.347 282.136,375.469 282.328,377.889 282.393,377.417 282.457,371.721 282.521,379.586 282.585,377.713 282.777,374.291 282.841,373.185 282.901,378.508 282.965,363.398 283.029,366.321 283.221,378.649 283.286,377.677 283.35,376.664 283.414,359.806 283.478,356.915 283.67,379.445 283.73,380.08 283.794,378.754 283.858,380.337 283.922,382.978 284.114,382.627 284.178,381.104 284.243,378.853 284.307,378.778 284.371,376.467 284.623,382.787 284.687,379.993 284.751,381.999 284.815,373.443 285.007,379.242 285.071,380.553 285.135,381.784 285.2,381.526 285.264,380.788 285.452,382.879 285.516,374.058 285.58,380.577 285.644,382.669 285.708,382.244 285.9,382.79 285.964,382.3 286.028,382.823 286.093,383.234 286.157,383.378 286.345,383.167 286.409,383.662 286.473,382.949 286.537,383.835 286.601,382.237 286.793,383.779 286.857,383.046 286.921,383.285 286.985,380.721 287.05,383.064 287.238,382.233 287.302,382.478 287.366,380.775 287.43,382.451 287.494,379.101 287.686,379.54 287.75,381.326 287.814,375.813 287.878,378.214 287.943,381.601 288.13,382.845 288.195,383.203 288.259,378.993 288.323,375.237 288.387,375.521 288.579,377.237 288.643,381.056 288.707,375.79 288.771,369.03 288.835,373.762 289.023,376.76 289.088,378.935 289.152,378.877 289.216,378.201 289.28,376.993 289.472,378.031 289.536,371.467 289.6,374.713 289.728,380.435 289.916,378.857 289.98,375.513 290.045,379.071 290.109,379.528 290.173,377.018 290.365,381.142 290.429,381.177 290.493,379.105 290.557,382.637 290.617,383.122 290.809,383.12 290.873,374.381 290.938,364.375 291.002,379.561 291.066,380.023 291.258,379.94 291.322,377.998 291.386,380.168 291.45,381.354 291.51,380.555 291.702,383.612 291.83,383.541 291.895,382.779 291.959,381.834 292.151,382.835 292.279,379.599 292.343,381.601 292.403,377.052 292.595,376.09 292.659,374.501 292.723,373.573 292.787,368.906 292.852,374.641 293.044,380.424 293.108,377.928 293.172,373.265 293.232,371.569 293.296,368.252 293.552,316.684 293.616,330.031 293.68,371.469 293.745,372.112 293.937,375.584 294.001,380.059 294.065,374.422 294.125,362.818 294.189,378.376 294.381,381.506 294.445,369.887 294.509,378.332 294.573,372.849 294.637,377.532 294.83,380.474 294.894,377.475 294.954,378.764 295.018,379.286 295.082,381.218 295.338,378.464 295.402,375.524 295.466,379.444 295.53,377.717 295.723,376.554 295.787,380.102 295.847,379.324 295.911,379.884 295.975,377.5 296.167,379.165 296.231,375.464 296.295,377.355 296.359,377.769 296.423,370.138 296.616,377.906 296.675,360.785 296.74,379.37 296.804,366.537 296.868,359.464 297.06,363.091 297.124,359.456 297.188,373.091 297.252,378.351 297.509,379.523 297.568,380.351 297.632,379.609 297.697,378.93 297.761,380.6 297.953,380.772 298.017,376.531 298.081,381.058 298.145,381.028 298.209,381.247 298.397,381.268 298.461,381.072 298.525,382.254 298.589,381.173 298.654,378.308 298.846,382.262 298.91,381.351 298.974,380.07 299.038,381.857 299.102,372.86 299.29,382.911 299.354,381.679 299.418,381.678 299.482,379.26 299.547,380.37 299.739,382.79 299.803,383.028 299.867,378.377 299.931,381.516 299.995,377.866 300.183,382.475 300.247,381.311 300.311,382.263 300.375,381.231 300.439,380.257 300.632,382.892 300.696,383.273 300.76,382.658 300.824,382.348 301.076,382.018 301.14,381.594 301.204,380.201 301.268,382.521 301.332,381.721 301.589,381.805 301.653,382.032 301.717,382.477 301.781,382.771 301.969,381.811 302.033,381.108 302.097,379.84 302.161,381.318 302.418,379.737 302.482,378.551 302.546,379.802 302.61,379.178 302.674,379.033 302.862,381.473 302.926,380.943 302.99,379.456 303.054,381.2 303.118,378.433 303.311,381.914 303.375,380.44 303.439,379.4 303.503,378.618 303.567,379.383 303.755,380.62 303.819,374.258 303.883,378.258 304.203,373.195 304.268,377.543 304.332,378.682 304.396,371.93 304.456,361.028 304.648,374.3 304.712,370.293 304.776,375.491 304.84,376.618 304.904,380.842 305.096,382.304 305.161,379.383 305.225,378.53 305.289,380.294 305.349,379.219 305.541,381.259 305.605,380.294 305.669,377.491 305.733,378.985 305.989,381.394 306.053,381.144 306.118,381.768 306.241,380.929 306.434,381.365 306.498,380.873 306.626,380.585 306.69,381.103 306.882,380.849 306.946,380.428 307.01,379.755 307.07,380.179 307.134,380.713 307.327,380.846 307.391,381.498 307.455,381.862 307.583,382.007 307.839,377.801 307.899,379.159 307.963,378.101 308.027,377.054 308.22,355.874 308.284,374.973 308.348,376.404 308.412,367.781 308.476,375.333 308.668,344.236 308.732,329.555 308.792,340.721 308.856,312.588 308.92,329.529 309.113,372.201 309.177,367.022 309.241,373.772 309.305,372.172 309.369,365.877 309.561,296.673 309.621,355.815 309.685,361.761 309.749,365.073 309.813,336.693 310.005,304.883 310.07,344.529 310.134,274.611 310.198,307.153 310.262,43.502 310.454,313.093 310.514,263.759 310.578,308.801 310.642,240.636 310.706,303.303 310.898,348.816 310.963,349.642 311.027,321.256 311.091,245.986 311.155,228.904 311.343,300.595 311.407,272.89 311.471,273.836 311.535,324.599 311.599,343.116 311.791,373.519 311.855,359.735 311.92,351.876 311.984,354.92 312.048,351.667 312.236,349.407 312.3,334.7 312.364,354.353 312.428,255.418 312.492,305.551 312.684,317.164 312.748,327.14 312.812,332.897 312.877,273.482 312.941,250.887 313.129,323.645 313.193,330.222 313.257,352.778 313.385,378.479 313.577,324.71 313.641,336.44 313.705,335.927 313.77,345.142 313.834,334.762 314.022,350.829 314.086,350.86 314.15,359.488 314.214,359.276 314.278,337.831 314.47,368.942 314.534,357.023 314.598,358.532 314.662,366.12 314.727,366.481 314.915,372.131 314.979,373.618 315.043,382.983 315.171,382.451 315.363,379.122 315.427,378.134 315.491,378.108 315.62,377.916 315.807,374.912 315.872,373.033 315.936,374.611 316,374.043 316.064,371.161 316.256,375.451 316.32,369.507 316.384,362.531 316.448,357.781 316.512,354.76 316.765,354.089 316.829,352.89 316.893,336.694 316.957,336.41 317.149,362.731 317.213,368.387 317.277,358.672 317.341,373.75 317.401,370.275 317.593,366.689 317.657,372.518 317.722,372.687 317.786,365.084 317.85,373.326 318.042,374.102 318.106,354.978 318.17,369.881 318.234,352.461 318.294,370.481 318.55,347.081 318.615,363.655 318.679,367.023 318.743,354.634 318.935,367.846 318.999,359.813 319.063,357.991 319.123,360.101 319.187,346.042 319.379,359.713 319.443,354.831 319.507,362.595 319.572,352.076 319.636,346.81 319.828,359.483 319.892,351.68 319.956,362.643 320.016,370.996 320.08,368.643 320.272,369.243 320.336,368.379 320.4,348.691 320.464,365.741 320.529,371.409 320.721,357.06 320.785,370.695 320.845,359.451 320.909,361.229 320.973,370.605 321.165,360.247 321.229,370.873 321.293,362.994 321.357,358.768 321.422,374.085 321.614,371.83 321.678,360.663 321.738,374.372 321.802,362.86 322.058,373.546 322.122,372.872 322.186,377.134 322.25,376.198 322.314,378.313 322.507,365.809 322.571,375.47 322.631,371.079 322.695,373.224 322.759,375.216 322.951,373.192 323.015,375.702 323.079,373.504 323.143,372.832 323.207,377.819 323.4,375.727 323.459,379.166 323.524,370.557 323.588,368.555 323.652,370.329 323.844,376.306 323.908,376.185 323.972,368.743 324.036,377.241 324.1,378.658 324.293,377.443 324.352,378.302 324.417,372.163 324.481,374.452 324.545,378.961 324.801,376.036 324.865,376.227 324.929,370.987 324.993,375.24 325.181,377.18 325.245,378.527 325.309,378.011 325.374,380.951 325.438,374.505 325.63,377.577 325.694,380.288 325.758,376.61 325.822,378.199 325.886,380.223 326.074,375.906 326.138,379.72 326.202,377.643 326.266,380.419 326.331,380.432 326.523,376.009 326.587,377.452 326.651,378.37 326.715,378.71 326.779,380.123 326.967,381.534 327.031,380.195 327.095,380.759 327.159,372.294 327.416,380.104 327.48,380.141 327.544,376.899 327.608,378.406 327.672,378.701 327.86,379.246 327.924,381.707 327.988,379.84 328.052,381.522 328.116,381.738 328.309,379.707 328.373,379.879 328.437,380.549 328.501,379.175 328.565,380.92 328.753,380.867 328.817,379.016 328.881,378.717 328.945,374.808 329.009,380.547 329.202,379.001 329.266,381.371 329.33,380.191 329.394,380.646 329.458,377.873 329.646,382.006 329.71,381.295 329.774,380.115 329.838,379.957 329.902,381.128 330.095,374.859 330.159,382.266 330.223,379.903 330.287,383.133 330.347,380.315 330.539,380.532 330.603,380.058 330.667,380.735 330.731,381.518 330.795,380.425 330.988,381.461 331.052,378.419 331.116,380.19 331.18,381.719 331.24,382.021 331.496,381.374 331.56,382.3 331.624,382.375 331.688,381.703 331.88,381.272 331.945,381.637 332.009,381.918 332.068,381.156 332.133,382.325 332.325,379.18 332.389,382.36 332.453,380.353 332.517,379.5 332.581,380.098 332.773,381.451 332.838,380.441 332.902,377.779 332.961,379.395 333.026,377.067 333.218,380.722 333.282,378.98 333.346,381.613 333.41,381.817 333.474,383.373 333.666,382.9 333.73,381.837 333.795,380.551 333.854,382.974 333.918,379.408 334.111,383.019 334.175,381.472 334.239,379.924 334.303,381.305 334.367,378.486 334.559,376.44 334.623,376.772 334.683,378.604 334.747,380.35 334.811,373.203 335.004,370.946 335.068,376.319 335.132,376.643 335.196,379.935 335.26,379.771 335.452,382.202 335.516,382.524 335.576,381.283 335.64,380.9 335.704,381.919 335.897,379.844 335.961,382.089 336.025,382.385 336.089,380.053 336.153,382.589 336.345,379.577 336.405,382.579 336.469,383.672 336.597,368.176 336.79,381.91 336.854,380.152 336.918,382.467 336.982,381.341 337.046,374.55 337.238,382.503 337.298,379.508 337.362,381.858 337.426,382.246 337.49,382.926 337.682,383.2 337.747,382.654 337.811,382.33 337.875,382.039 337.939,382.974 338.127,381.627 338.191,383.5 338.255,383.782 338.319,383.925 338.575,383.939 338.64,383.958 338.704,383.358 338.768,383.623 339.02,381.369 339.084,383.165 339.148,383.605 339.212,383.221 339.276,383.325 339.468,383.063 339.532,382.277 339.597,382.806 339.661,383.545 339.725,383.07 339.977,383.549 340.041,380.797 340.105,377.585 340.169,378.833 340.361,378.604 340.425,380.492 340.49,379.934 340.554,376.619 340.618,378.212 340.806,379.524 340.87,382.262 340.934,381.881 340.998,375.36 341.062,373.419 341.254,379.999 341.318,372.945 341.382,380.679 341.447,379.579 341.511,376.423 341.763,381.787 341.827,382.028 341.891,382.983 341.955,382.391 342.147,382.83 342.211,380.707 342.275,380.965 342.339,377.018 342.404,382.645 342.592,382.682 342.656,382.593 342.72,383.25 342.784,383.013 342.848,383.094 343.04,383.638 343.104,383.243 343.168,382.584 343.232,383.221 343.297,383.372 343.484,383.032 343.549,383.161 343.613,383.017 343.677,383.538 343.741,382.869 343.933,382.796 343.997,383.247 344.061,382.935 344.125,381.292 344.185,382.478 344.377,383.035 344.442,383.089 344.506,382.564 344.57,381.532 344.826,383.599 344.89,383.635 344.954,382.746 345.018,382.9 345.078,383.306 345.27,383.508 345.334,383.496 345.399,383.452 345.463,383.718 345.527,377.964 345.719,382.43 345.783,382.983 345.847,382.953 345.907,379.975 345.971,382.1 346.163,382.933 346.227,378.355 346.292,380.038 346.356,381.685 346.42,380.325 346.612,381.893 346.676,374.891 346.74,376.626 346.8,312.081 346.864,348.318 347.056,342.175 347.12,377.681 347.184,380.846 347.249,380.821 347.313,373.923 347.505,375.309 347.569,373.96 347.629,369.984 347.693,357.494 347.757,363.224 347.949,378.204 348.013,359.416 348.077,372.926 348.141,372.562 348.206,374.126 348.462,375.606 348.522,379.96 348.586,378.754 348.65,369.757 348.842,378.198 348.906,372.457 348.97,377.016 349.034,367.713 349.099,379.701 349.291,380.184 349.351,381.376 349.415,381.098 349.479,381.082 349.543,382.876 349.735,379.932 349.799,379.574 349.863,378.098 349.927,378.008 349.991,378.479 350.184,381.371 350.244,369.486 350.308,379.451 350.372,372.833 350.436,376.123 350.692,374.477 350.756,379.794 350.82,379.373 350.884,382 351.072,381.081 351.136,378.921 351.201,381.137 351.265,379.894 351.329,378.909 351.521,380.474 351.585,378.485 351.649,379.156 351.713,375.09 351.777,379.871 351.965,382.33 352.029,381.489 352.094,382.031 352.158,379.155 352.222,377.546 352.414,379.641 352.478,382.428 352.542,382.475 352.606,381.908 352.67,380.946 352.858,383.36 352.922,380.761 352.986,369.806 353.051,381.095 353.115,382.431 353.307,381.066 353.371,381.087 353.435,381.782 353.499,377.761 353.563,381.307 353.751,381.225 353.815,377.729 353.879,380.043 353.943,379.905 354.008,378.691 354.2,381.927 354.264,376.566 354.328,369.808 354.392,383.216 354.456,379.97 354.708,381.44 354.772,382.011 354.836,380.15 354.901,383.552 355.093,381.749 355.157,382.486 355.221,382.431 355.285,383.254 355.349,382.695 355.537,382.928 355.601,381.888 355.665,382.162 355.729,381.412 355.793,381.065 355.986,383.119 356.05,381.653 356.114,381.566 356.178,378.787 356.242,380.39 356.43,382.39 356.494,380.548 356.558,382.999 356.622,382.362 356.686,382.968 356.879,383.575 356.943,381.718 357.007,382.492 357.071,382.084 357.131,381.725 357.323,383.258 357.387,377.571 357.451,381.229 357.515,380.996 357.579,383.568 357.772,381.671 357.836,382.174 357.9,381.994 357.964,382.109 358.024,383.084 358.216,381.909 358.28,382.832 358.344,380.746 358.408,378.949 358.472,382.985 358.665,383.369 358.729,382.474 358.793,382.52 358.853,381.493 358.917,381.402 359.109,382.66 359.173,379.039 359.237,382.745 359.301,381.004 359.365,383.261 359.557,381.045 359.622,379.914 359.686,381.45 359.81,382.903 360.002,377.983 360.066,380.791 360.13,378.45 360.194,383.447 360.258,383.322 360.45,383.801 360.515,380.928 360.574,383.188 360.638,383.11 360.703,383.971 360.895,383.489 360.959,383.638 361.023,383.41 361.087,383.022 361.151,383.928 361.343,383.888 361.407,384.28 361.467,384.237 361.531,384.15 361.788,383.997 361.852,384.244 361.916,384.186 361.98,384.075 362.044,384.06 362.236,380.73 362.296,383.611 362.36,383.632 362.424,383.356 362.488,382.372 362.681,382.172 362.745,383.139 362.809,383.133 362.873,383.685 362.937,383.745 363.189,383.809 363.253,383.432 363.317,382.037 363.381,382.827 363.574,383.806 363.638,382.811 363.702,383.033 363.766,383.592 363.83,381.699 364.022,382.851 364.082,382.404 364.146,383.574 364.21,382.877 364.274,383.106 364.467,383.679 364.531,383.823 364.595,383.422 364.659,382.241 364.723,383.387 364.911,383.951 364.975,383.414 365.039,382.87 365.103,383.783 365.167,383.848 365.424,378.063 365.488,380.588 365.552,380.789 365.616,382.513 365.804,383.134 365.868,381.413 365.932,382.264 365.996,380.486 366.06,381.937 366.252,381.268 366.317,382.432 366.381,381.743 366.445,375.545 366.509,382.241 366.697,380.85 366.761,361.334 366.825,375.661 366.889,376.493 366.953,378.58 367.145,378.427 367.209,383.36 367.274,382.965 367.338,383.262 367.402,383.583 367.59,383.828 367.654,383.573 367.718,383.249 367.782,383.73 367.846,383.174 368.038,383.694 368.102,383.651 368.167,383.597 368.231,381.428 368.295,383.269 368.483,383.141 368.547,381.655 368.611,381.945 368.675,382.447 368.739,383.356 368.931,378.419 368.995,383.325 369.059,381.495 369.124,383.692 369.376,383.911 369.44,383.486 369.504,383.401 369.568,383.815 369.632,384.102 369.824,383.156 369.888,382.963 369.952,381.72 370.016,380.091 370.076,378.147 370.269,383.17 370.333,383.723 370.397,382.222 370.461,382.149 370.525,382.503 370.717,382.369 370.781,381.489 370.845,383.193 370.909,382.849 370.969,382.745 371.161,375.015 371.226,382.977 371.29,382.693 371.354,382.63 371.418,382.951 371.674,379.25 371.738,381.785 371.798,381.383 371.862,377.513 372.054,382.525 372.119,381.983 372.183,382.053 372.247,383.361 372.311,380.443 372.503,382.133 372.567,379.68 372.631,378.476 372.691,381.086 372.755,379.317 372.947,382.737 373.011,382.918 373.076,382.884 373.14,368.67 373.204,382.243 373.396,382.615 373.46,383.056 373.524,382.376 373.584,382.693 373.648,382.294 373.904,382.899 373.969,383.296 374.033,381.325 374.097,379.6 374.289,377.645 374.353,381.219 374.413,381.081 374.477,380.36 374.541,380.241 374.733,380.709 374.797,380.575 374.861,383.358 374.926,380.432 374.99,383.472 375.182,380.52 375.246,383.393 375.306,379.247 375.37,382.503 375.434,375.208 375.626,370.878 375.69,378.482 375.754,375.102 375.818,365.131 375.883,336.679 376.075,338.047 376.135,315.793 376.199,315.234 376.263,351.709 376.327,367.374 376.519,376.574 376.583,371.129 376.647,378.395 376.711,340.239 376.776,366.155 376.968,361.356 377.028,373.94 377.092,376.237 377.156,368.052 377.22,368.361 377.412,372.179 377.476,374.901 377.54,375.969 377.604,374.989 377.668,364.035 377.921,349.112 377.985,375.518 378.049,376.148 378.113,367.615 378.305,371.34 378.369,377.203 378.433,374.412 378.497,377.215 378.561,379.209 378.749,368.227 378.813,379.484 378.878,374.528 378.942,335.306 379.006,372.27 379.198,370.383 379.262,363.044 379.326,373.716 379.39,359.745 379.454,362.259 379.642,364.623 379.706,352.497 379.771,371.964 379.835,376.456 379.899,375.47 380.091,368.524 380.155,378.744 380.219,377.054 380.283,377.016 380.347,374.724 380.535,378.231 380.599,374.298 380.663,378.432 380.728,375.238 380.792,375.854 380.984,381.657 381.048,374.993 381.112,370.784 381.176,355.359 381.24,380.679 381.428,374.062 381.492,341.98 381.556,370.151 381.62,373.472 381.685,377.701 381.877,380.321 381.941,379.019 382.005,358.416 382.069,372.596 382.133,376.3 382.321,380.966 382.385,379.908 382.449,373.744 382.513,375.534 382.578,380.428 382.77,370.003 382.834,379.032 382.898,374.701 383.022,381.242 383.214,349.713 383.278,381.016 383.342,353.284 383.406,381.456 383.47,379.601 383.663,372.777 383.727,382.226 383.791,379.138 383.855,377.27 383.915,379.238 384.107,375.229 384.171,376.341 384.235,378.758 384.299,377.958 384.363,379.371 384.556,380.493 384.62,370.541 384.684,381.352 384.748,383.227 384.808,383.507 385.064,383.54 385.128,382.769 385.192,383.14 385.256,383.725 385.513,371.201 385.577,382.768 385.637,381.612 385.701,383.006 385.893,383.611 385.957,378.872 386.021,382.682 386.085,382.673 386.149,379.879 386.406,380.617 386.47,382.776 386.53,383.172 386.594,383.696 386.786,383.177 386.85,382.324 386.914,381.94 386.978,382.331 387.042,383.072 387.234,379.123 387.299,381.002 387.358,380.714 387.422,383.507 387.487,380.227 387.679,382.886 387.743,383.167 387.807,383.495 387.871,383.059 387.935,380.378 388.127,382.416 388.192,383.084 388.251,382.105 388.315,383.156 388.38,383.559 388.636,383.163 388.7,383.4 388.764,383.603 388.828,383.735 389.02,381.451 389.08,383.344 389.144,382.528 389.208,382.046 389.272,383.389 389.465,383.068 389.529,378.793 389.593,383.378 389.657,381.687 389.721,383.484 389.913,383.587 389.973,382.478 390.037,383.521 390.101,383.414 390.165,383.832 390.358,383.748 390.422,382.024 390.486,383.638 390.55,381.595 390.614,383.678 390.802,381.308 390.866,383.842 390.93,383.008 390.994,381.609 391.058,382.998 391.251,383.492 391.315,382.103 391.379,379.886 391.443,383.21 391.695,377.601 391.759,381.611 391.823,380.044 391.887,383.458 391.951,382.173 392.144,380.233 392.208,381.384 392.272,382.472 392.336,380.84 392.4,382.706 392.588,377.554 392.652,383.089 392.716,378.63 392.78,383.514 392.844,383.256 393.036,383.422 393.101,382.355 393.165,382.212 393.229,382.715 393.293,381.347 393.481,382.484 393.545,379.975 393.609,376.262 393.673,379.944 393.737,381.389 393.929,380.632 393.994,381.737 394.058,381.003 394.122,380.696 394.186,380.613 394.374,382.086 394.438,380.692 394.502,379.353 394.566,380.915 394.63,382.89 394.886,381.412 394.951,378.935 395.015,380.621 395.079,374.636 395.267,381.303 395.331,382.108 395.395,380.537 395.459,378.171 395.523,382.296 395.715,380.791 395.779,380.843 395.844,380.721 395.908,380.556 395.972,382.908 396.16,381.308 396.224,381.923 396.288,381.111 396.352,381.501 396.416,382.603 396.608,376.696 396.672,382.341 396.736,382.66 396.801,378.879 396.86,373.711 397.053,382.239 397.117,383.83 397.245,383.011 397.309,379.931 397.501,383.396 397.565,381.107 397.629,381.986 397.693,380.043 397.753,382.276 397.946,383.271 398.01,380.488 398.074,383.229 398.138,382.896 398.202,382.051 398.394,372.235 398.458,381.111 398.522,381.849 398.582,371.02 398.646,380.808 398.839,382.97 398.903,382.941 398.967,381.468 399.031,378.766 399.095,375.253 399.287,383.647 399.351,382.988 399.415,383.347 399.475,383.672 399.539,382.765 399.731,383.536 399.796,383.439 399.86,383.962 399.924,383.889 399.988,384.172 400.18,383.862 400.244,382.987 400.304,382.848 400.368,382.726 400.432,383.296 400.624,383.723 400.688,383.315 400.753,383.95 400.817,382.387 400.881,379.518 401.137,383.19 401.197,383.618 401.261,381.108 401.325,383.981 401.517,383.987 401.581,383.819 401.646,383.335 401.71,381.828 401.774,382.36 401.966,383.835 402.026,383.664 402.09,383.428 402.154,382.536 402.218,383.142 402.41,382.972 402.474,382.974 402.538,382.899 402.603,382.998 402.667,382.689 402.859,380.435 402.919,382.286 402.983,383.099 403.047,382.914 403.111,382.689 403.303,382.945 403.367,383.083 403.431,383.367 403.495,381.778 403.56,383.365 403.752,383.074 403.812,383.254 403.876,383.787 403.94,382.922 404.004,381.831 404.196,382.641 404.26,376.71 404.324,382.09 404.388,379.712 404.453,381.709 404.769,382.13 404.833,382.834 404.897,382.492 405.089,383.414 405.153,382.666 405.217,372.323 405.281,381.543 405.345,380.566 405.533,383.445 405.598,380.591 405.662,381.024 405.726,381.198 405.79,380.53 405.982,377.073 406.046,381.739 406.11,383.896 406.238,383.012 406.426,382.156 406.49,382.463 406.555,380.113 406.619,380.905 406.683,383.326 406.875,381.964 406.939,382.81 407.003,382.417 407.067,383.256 407.131,382.827 407.319,383.748 407.383,382.761 407.448,383.067 407.512,383.154 407.576,383.123 407.768,382.967 407.832,383.269 407.896,383.37 407.96,383.057 408.024,377.754 408.212,384.067 408.34,383.499 408.405,381.169 408.469,381.309 408.661,380.088 408.789,366.881 408.853,383.214 408.917,383.574 409.105,383.016 409.169,383.532 409.233,383.631 409.297,383.59 409.362,384.014 409.554,383.81 409.618,383.231 409.682,383.884 409.746,383.411 409.806,383.914 410.062,383.934 410.126,384.146 410.19,383.651 410.255,383.148 410.447,383.924 410.511,383.768 410.575,383.56 410.639,383.187 410.699,382.426 410.891,382.138 410.955,382.571 411.019,382.853 411.083,382.916 411.147,383.826 411.34,384.117 411.404,384.152 411.468,383.669 411.528,383.441 411.592,383.651 411.848,383.852 411.912,383.417 411.976,382.189 412.04,382.638 412.233,380.613 412.297,381.32 412.361,383.025 412.421,383.096 412.485,380.684 412.677,383.268 412.741,381.898 412.805,383.456 412.869,383.8 412.933,383.572 413.126,384.077 413.19,383.729 413.25,383.913 413.314,383.87 413.378,383.808 413.57,379.206 413.634,381.343 413.698,381.946 413.762,382.152 413.826,383.014 414.019,382.416 414.083,383.212 414.142,381.54 414.207,383.926 414.463,383.535 414.527,382.964 414.591,382.966 414.655,382.705 414.719,375.98 414.911,383.669 414.976,383.428 415.035,382.889 415.099,383.667 415.164,382.522 415.356,379.068 415.42,381.278 415.484,378.748 415.548,381.494 415.612,382.764 415.804,382.522 415.864,376.33 415.928,383.852 415.992,383.331 416.057,383.693 416.249,383.748 416.313,383.511 416.377,382.894 416.441,383.382 416.505,379.724 416.697,384.144 416.757,383.736 416.821,384.019 416.885,383.302 416.949,383.195 417.142,383.816 417.206,383.635 417.27,383.421 417.334,383.11 417.398,383.521 417.586,383.59 417.65,383.203 417.714,379.339 417.778,379.069 417.842,383.069 418.099,379.422 418.163,381.671 418.227,383.268 418.291,381.925 418.479,381.763 418.543,381.617 418.607,381.782 418.671,381.517 418.735,382.375 418.928,383.378 418.992,379.262 419.056,381.107 419.12,382.568 419.184,382.233 419.372,381.35 419.436,383.681 419.5,379.566 419.564,377.942 419.628,378.029 419.821,375.238 419.885,380.485 419.949,381.189 420.013,382.377 420.077,382.28 420.265,382.239 420.329,382.947 420.393,383.013 420.521,381.879 420.714,383.062 420.778,383.455 420.842,382.726 420.906,381.027 420.97,383.946 421.158,384.253 421.222,383.919 421.286,383.479 421.35,383.859 421.414,384.039 421.606,384.022 421.671,384.066 421.735,383.695 421.799,383.53 421.863,383.243 422.051,383.748 422.115,383.656 422.179,382.42 422.243,382.016 422.307,384.057 422.499,384.12 422.563,383.791 422.628,383.237 422.692,383.426 422.751,383.603 422.944,383.698 423.008,383.603 423.072,383.651 423.136,381.737 423.2,383.208 423.392,383.731 423.456,383.81 423.521,381.952 423.585,383.742 423.644,383.896 423.837,383.498 423.901,381.168 423.965,383.485 424.029,383.418 424.093,382.212 424.349,379.824 424.413,383.497 424.478,383.736 424.537,381.208 424.73,383.482 424.794,383.499 424.858,383.953 424.922,383.929 424.986,383.983 425.178,381.686 425.242,384.2 425.306,381.966 425.366,383.688 425.43,383.665 425.623,383.58 425.687,383.667 425.751,383.051 425.815,383.25 425.879,383.348 426.071,381.663 426.135,383.022 426.199,382.681 426.259,381.176 426.323,383.645 426.516,381.532 426.58,382.309 426.644,382.359 426.708,380.145 426.772,383.454 426.964,382.693 427.028,382.083 427.088,381.89 427.152,383.453 427.216,383.756 427.408,384.06 427.473,383.164 427.537,383.184 427.601,383.908 427.665,384.061 427.857,384.061 427.921,383.758 427.981,382.927 428.045,383.133 428.109,383.033 428.301,383.889 428.365,383.593 428.43,383.643 428.494,382.782 428.558,382.958 428.75,383.982 428.81,383.419 428.874,383.585 428.938,383.585 429.002,384.203 429.194,383.486 429.258,383.145 429.323,382.748 429.387,383.658 429.451,384.215 429.643,384.136 429.703,384.082 429.767,384.225 429.895,384.13 430.087,383.889 430.151,383.918 430.215,381.867 430.28,383.199 430.344,381.479 430.532,383.959 430.596,384.194 430.66,383.255 430.724,383.164 430.788,383.566 430.98,382.526 431.044,383.63 431.108,380.04 431.172,383.713 431.237,383.947 431.425,383.928 431.489,384.409 431.617,384.287 431.681,384.255 431.873,384.344 431.937,384.129 432.065,383.047 432.13,383.758 432.318,383.237 432.382,383.81 432.446,383.358 432.51,383.597 432.574,383.712 432.766,383.497 432.83,383.402 432.894,383.99 432.958,383.871 433.022,383.901 433.275,382.53 433.339,384.047 433.403,382.246 433.467,380.861 433.659,381.583 433.723,383.236 433.787,379.7 433.851,381.801 433.915,379.11 434.103,380.366 434.167,381.521 434.232,380.699 434.296,383.112 434.36,382.599 434.552,384.05 434.616,383.717 434.68,383.556 434.744,383.412 434.808,383.834 435.06,383.929 435.125,383.176 435.189,383.323 435.253,383.735 435.445,382.985 435.509,383.059 435.573,383.163 435.637,383.269 435.701,382.837 435.889,380.808 435.953,380.36 436.017,383.721 436.082,383.761 436.146,383.126 436.338,383.486 436.402,383.377 436.466,382.463 436.53,382.13 436.59,382.436 436.782,382.02 436.846,383.456 436.91,381.955 436.974,383.182 437.039,382.255 437.231,382.352 437.295,381.914 437.359,382.65 437.423,381.672 437.483,382.806 437.675,382.285 437.739,383.481 437.803,383.868 437.867,383.836 437.932,381.834 438.124,382.115 438.188,382.755 438.252,383.162 438.312,381.439 438.376,380.014 438.568,381.278 438.632,380.772 438.696,382.409 438.76,383.493 439.017,383.966 439.081,384.006 439.145,383.895 439.205,382.953 439.269,382.967 439.461,381.495 439.525,383.379 439.589,383.389 439.653,383.584 439.717,383.087 439.91,382.138 439.974,383.321 440.034,380.939 440.098,383.293 440.162,383.109 440.354,383.465 440.418,384.038 440.482,383.819 440.546,382.378 440.61,383.518 440.803,383.964 440.867,383.274 440.927,383.405 440.991,384.079 441.055,384.293 441.311,383.685 441.375,384.102 441.439,383.9 441.503,384.111 441.696,383.81 441.755,384.063 441.819,384.099 441.884,383.81 441.948,384.162 442.14,384.142 442.204,384.092 442.268,383.735 442.332,383.71 442.396,383.65 442.589,383.622 442.648,383.874 442.712,383.706 442.776,384.107 442.841,384.24 443.033,384.167 443.097,383.66 443.161,383.849 443.225,383.396 443.289,383.927 443.477,384.156 443.541,383.881 443.605,384.179 443.669,384.042 443.926,383.9 443.99,383.105 444.054,383.556 444.118,381.93 444.182,383.938 444.37,383.728 444.434,383.202 444.498,383.6 444.562,382.667 444.626,383.784 444.819,383.744 444.883,383.856 444.947,384.199 445.011,384.145 445.075,383.655 445.263,383.695 445.327,383.555 445.391,382.863 445.455,381.18 445.519,381.43 445.712,383.469 445.776,381.019 445.84,382.474 445.904,382.24 445.968,383.309 446.156,383.708 446.22,383.517 446.284,383.556 446.348,384.169 446.412,382.005 446.605,383.529 446.669,384.195 446.733,384.08 446.797,384.111 446.861,383.678 447.049,383.931 447.113,384.232 447.177,384.223 447.241,383.766 447.305,384.196 447.562,383.899 447.626,383.873 447.69,383.744 447.754,383.56 447.942,383.821 448.006,383.226 448.07,383.289 448.134,383.665 448.198,383.489 448.391,383.707 448.455,383.626 448.519,382.217 448.583,383.876 448.647,383.559 448.835,383.606 448.899,383.41 448.963,383.741 449.027,382.301 449.091,382.903 449.283,380.57 449.348,382.873 449.412,381.833 449.476,382.012 449.536,381.604 449.728,382.597 449.792,381.234 449.856,380.972 449.92,379.668 449.984,379.097 450.176,378.387 450.24,377.76 450.305,361.123 450.369,372.38 450.428,377.606 450.621,382.177 450.685,382.006 450.749,382.041 450.813,379.796 450.877,382.943 451.069,382.744 451.133,383.318 451.198,382.215 451.257,383.095 451.321,382.067 451.514,383.55 451.578,383.275 451.642,382.949 451.706,383.777 451.77,383.592 451.962,384.124 452.026,384.185 452.09,383.756 452.15,383.346 452.214,384.018 452.407,383.923 452.471,384.103 452.535,383.303 452.599,383.853 452.663,382.557 452.855,384.073 452.919,383.998 452.979,384.325 453.107,384.081 453.3,382.876 453.364,383.834 453.428,384.162 453.492,383.668 453.556,383.895 453.748,383.153 453.812,379.928 453.872,381.415 453.936,381.272 454,380.802 454.193,377.297 454.257,377.662 454.321,377.2 454.385,379.773 454.449,382.952 454.641,383.933 454.705,383.995 454.765,384.276 454.893,384.2 455.085,384.23 455.15,384.082 455.214,383.43 455.342,380.786 455.534,381.399 455.594,379.595 455.658,380.88 455.722,381.33 455.786,381.728 455.978,381.523 456.042,374.847 456.107,378.008 456.171,379.933 456.235,381.648 456.487,380.797 456.551,380.073 456.615,381.793 456.679,383.384 456.871,383.157 456.935,379.965 457,380.394 457.064,380.624 457.128,380.168 457.316,379.295 457.38,380.581 457.444,381.551 457.508,382.985 457.572,382.676 457.764,383.001 457.828,382.774 457.892,383.253 457.957,383.321 458.021,384.021 458.273,383.818 458.337,383.637 458.401,383.591 458.465,383.57 458.657,383.983 458.721,384.033 458.785,384.035 458.849,383.613 458.914,383.95 459.102,384.167 459.166,383.377 459.23,382.517 459.294,383.919 459.358,382.079 459.55,383.817 459.614,381.374 459.678,382.944 459.742,382.607 459.807,382.293 459.995,383.272 460.059,382.948 460.123,379.615 460.187,383.134 460.251,382.527 460.443,383.866 460.507,383.585 460.571,382.406 460.635,381.122 460.699,382.966 460.887,382.438 460.952,382.64 461.016,382.095 461.08,383.338 461.336,383.225 461.4,383.617 461.464,382.209 461.528,382.908 461.592,384.126 461.78,383.936 461.844,383.263 461.909,383.596 461.973,383.747 462.037,381.932 462.229,382.838 462.293,383.577 462.357,383.553 462.421,383.407 462.481,384.008 462.673,383.458 462.737,382.653 462.802,382.551 462.866,382.3 462.93,382.489 463.122,383.859 463.186,383.047 463.25,380.7 463.314,383.099 463.374,381.122 463.566,383.74 463.63,381.507 463.694,382.514 463.759,383.156 463.823,383.975 464.015,384.269 464.079,384.05 464.143,383.708 464.203,384.136 464.267,383.998 464.523,383.31 464.587,383.767 464.651,383.632 464.716,383.218 464.908,382.718 464.972,383.13 465.036,383.648 465.096,382.484 465.16,382.969 465.352,383.842 465.416,383.504 465.48,382.767 465.544,383.608 465.609,383.31 465.801,380.719 465.865,383.257 465.929,382.669 465.989,383.069 466.053,383.989 466.245,382.377 466.309,384.041 466.373,383.852 466.437,383.741 466.501,383.463 466.694,381.154 466.758,380.911 466.818,381.851 466.882,383.541 467.138,380.704 467.202,380.533 467.266,380.66 467.33,376.907 467.394,378.928 467.587,382.434 467.651,384.221 467.711,383.884 467.775,383.792 467.839,384.221 468.031,384.104 468.095,384.008 468.159,383.648 468.223,383.775 468.287,383.606 468.48,381.831 468.539,383.209 468.604,383.589 468.668,383.555 468.732,383.832 468.924,383.065 468.988,383.457 469.052,382.65 469.116,383.193 469.18,383.018 469.373,382.47 469.432,381.518 469.496,379.441 469.561,382.663 469.625,383.752 469.817,382.958 469.881,383.884 469.945,380.511 470.009,379.409 470.073,374.297 470.261,220.226 470.325,352.142 470.389,348.878 470.453,368.651 470.518,380.461 470.71,379.257 470.774,362.299 470.838,375.168 470.902,380.141 470.966,375.351 471.218,374.995 471.282,379.018 471.346,381.099 471.411,381.626 471.603,382.917 471.667,383.115 471.731,382.933 471.795,377.271 471.859,376.34 472.047,381.121 472.111,376.947 472.175,381.956 472.239,379.682 472.303,379.732 472.496,378.606 472.56,378.323 472.624,374.634 472.688,378.78 472.752,371.858 472.94,380.989 473.004,382.428 473.068,380.53 473.132,382.244 473.196,383.224 473.389,383.857 473.453,382.815 473.517,382.434 473.581,383.211 473.645,383.324 473.833,383.252 473.897,383.361 473.961,382.028 474.025,381.897 474.089,382.456 474.282,383.837 474.346,382.967 474.41,380.582 474.474,383.46 474.538,383.221 474.726,383.702 474.79,383.451 474.854,382.832 474.918,382.979 474.982,382.877 475.175,382.037 475.239,383.149 475.303,383.497 475.367,381.122 475.431,382.522 475.619,382.212 475.683,381.988 475.747,382.261 475.811,383.531 475.875,383.054 476.068,383.65 476.132,382.6 476.196,384.029 476.32,384.209 476.512,383.652 476.576,382.776 476.64,383.29 476.704,381.353 476.768,381.335 476.96,381.589 477.025,377.243 477.089,379.638 477.153,381.795 477.213,378.552 477.405,377.72 477.469,379.526 477.533,380.226 477.597,380.874 477.661,380.293 477.853,381.019 477.917,382.677 477.982,382.979 478.041,384.147 478.298,383.173 478.362,382.706 478.426,383.639 478.49,382.357 478.746,369.184 478.81,381.722 478.875,375.823 478.934,367.266 478.998,376.72 479.191,377.344 479.255,376.625 479.319,375.44 479.383,377.311 479.447,362.076 479.703,375.705 479.763,365.251 479.827,371.399 479.891,376.457 480.084,381.351 480.148,378.831 480.212,375.927 480.276,373.143 480.34,381.204 480.532,379.107 480.596,379.196 480.656,372.335 480.72,376.378 480.784,378.196 480.977,371.564 481.041,371.477 481.105,377.217 481.169,371.055 481.233,380.212 481.485,380.408 481.549,381.246 481.613,382.568 481.677,381.403 481.87,381.515 481.934,382.292 481.998,376.274 482.062,381.494 482.126,382.042 482.318,382.377 482.378,381.642 482.442,382.605 482.506,383.242 482.57,382.69 482.762,382.266 482.827,381.331 482.891,381.966 482.955,379.601 483.019,381.801 483.207,383.621 483.271,383.036 483.335,381.231 483.399,383.453 483.463,383.334 483.655,383.718 483.719,383.305 483.784,383.526 483.848,382.902 484.1,383.787 484.164,383.116 484.228,383.136 484.292,383.867 484.356,382.215 484.548,383.691 484.612,381.69 484.677,383.129 484.741,381.85 484.805,382.439 484.993,382.819 485.057,382.821 485.121,382.998 485.185,383.762 485.249,384.211 485.441,383.558 485.505,383.6 485.569,383.802 485.634,383.429 485.698,383.501 485.886,383.523 485.95,383.723 486.014,383.132 486.078,382.873 486.142,382.186 486.334,383.462 486.398,382.196 486.462,382.919 486.526,382.98 486.591,382.583 486.779,383.516 486.843,383.572 486.907,383.496 486.971,382.396 487.035,383 487.227,383.597 487.291,382.912 487.355,380.447 487.419,381.633 487.484,383.326"/>
</g>
</svg>
